<svg xmlns="http://www.w3.org/2000/svg" width="14" height="14" viewBox="0 0 14 14">
  <g id="global" transform="translate(-1.25 -1.25)">
    <path id="Path_46588" data-name="Path 46588" d="M8.25,15.25a7,7,0,1,1,7-7A7.006,7.006,0,0,1,8.25,15.25Zm0-13.023A6.023,6.023,0,1,0,14.273,8.25,6.03,6.03,0,0,0,8.25,2.227Z" transform="translate(0 0)" fill="#292d32"/>
    <path id="Path_46589" data-name="Path 46589" d="M8.231,14.95h-.65a.492.492,0,0,1-.488-.488.485.485,0,0,1,.475-.488,19.24,19.24,0,0,1,0-10.746.485.485,0,0,1-.475-.488.492.492,0,0,1,.488-.488h.65a.5.5,0,0,1,.4.2.49.49,0,0,1,.065.443,18.234,18.234,0,0,0,0,11.417.49.49,0,0,1-.065.443A.512.512,0,0,1,8.231,14.95Z" transform="translate(-1.936 -0.35)" fill="#292d32"/>
    <path id="Path_46590" data-name="Path 46590" d="M14.737,14.947a.436.436,0,0,1-.156-.026.485.485,0,0,1-.306-.619,18.234,18.234,0,0,0,0-11.417.487.487,0,1,1,.923-.313,19.127,19.127,0,0,1,0,12.029A.484.484,0,0,1,14.737,14.947Z" transform="translate(-4.532 -0.347)" fill="#292d32"/>
    <path id="Path_46591" data-name="Path 46591" d="M8.6,16.167A19.034,19.034,0,0,1,3.227,15.4a.489.489,0,0,1-.977-.013v-.65a.5.5,0,0,1,.2-.4.49.49,0,0,1,.443-.065,18.234,18.234,0,0,0,11.417,0,.49.49,0,0,1,.443.065.481.481,0,0,1,.2.4v.65a.492.492,0,0,1-.488.488.485.485,0,0,1-.488-.475A19.112,19.112,0,0,1,8.6,16.167Z" transform="translate(-0.35 -4.532)" fill="#292d32"/>
    <path id="Path_46592" data-name="Path 46592" d="M14.46,8.717a.439.439,0,0,1-.156-.026,18.234,18.234,0,0,0-11.417,0,.488.488,0,0,1-.619-.306.5.5,0,0,1,.313-.618,19.127,19.127,0,0,1,12.029,0,.484.484,0,0,1,.306.618A.475.475,0,0,1,14.46,8.717Z" transform="translate(-0.349 -1.934)" fill="#292d32"/>
  </g>
</svg>
