<svg xmlns="http://www.w3.org/2000/svg" xmlns:xlink="http://www.w3.org/1999/xlink" width="20" height="20" viewBox="0 0 20 20">
  <defs>
    <clipPath id="clip-path">
      <rect id="Rectangle_17265" data-name="Rectangle 17265" width="20" height="20" transform="translate(0 -4)" fill="#fff"/>
    </clipPath>
  </defs>
  <g id="Group_44668" data-name="Group 44668" transform="translate(0 4)" clip-path="url(#clip-path)">
    <path id="Path_53516" data-name="Path 53516" d="M44.85,60.709a2.355,2.355,0,1,0-1.665,4.02h0a2.413,2.413,0,0,0,.623-.079c.055-.119.115-.236.179-.35a3.559,3.559,0,0,1,.621-.81l.006,0,.005-.005a2.928,2.928,0,0,1,.861-.562,2.441,2.441,0,0,0,.059-.543,2.278,2.278,0,0,0-.69-1.665m-.4,2.925a1.781,1.781,0,1,1,.522-1.26,1.7,1.7,0,0,1-.522,1.26" transform="translate(-39.168 -57.577)" fill="#fff"/>
    <path id="Path_49180_-_Outline" data-name="Path 49180 - Outline" d="M43.185,64.829l-.1,0a2.455,2.455,0,1,1,2.555-2.453,2.552,2.552,0,0,1-.062.566l-.011.05-.047.02a2.83,2.83,0,0,0-.832.543l-.012.011a3.462,3.462,0,0,0-.6.785c-.064.113-.123.228-.176.343l-.02.043-.045.012A2.524,2.524,0,0,1,43.185,64.829Zm0-4.709a2.254,2.254,0,0,0,0,4.509h.045a2.325,2.325,0,0,0,.507-.064c.05-.106.1-.211.163-.314q.05-.089.1-.175a1.835,1.835,0,0,1-.82.18,1.882,1.882,0,1,1,1.882-1.882,1.863,1.863,0,0,1-.14.732,3.02,3.02,0,0,1,.467-.26,2.377,2.377,0,0,0,.046-.472,2.255,2.255,0,0,0-2.255-2.254Zm0,.573a1.682,1.682,0,1,0,1.189.493A1.607,1.607,0,0,0,43.185,60.693Z" transform="translate(-39.168 -57.577)" fill="#fff"/>
    <path id="Path_53517" data-name="Path 53517" d="M4.467,180.529H1.724a1.169,1.169,0,0,1-.847-.3,1.06,1.06,0,0,1-.3-.813c0-.183.006-.364.018-.538a5.224,5.224,0,0,1,.072-.556,4.292,4.292,0,0,1,.133-.547A2.492,2.492,0,0,1,1,177.308a1.6,1.6,0,0,1,.283-.371,1.125,1.125,0,0,1,.368-.229,1.315,1.315,0,0,1,.451-.087c.02.011.056.031.114.069l.4.26a2.841,2.841,0,0,0,.648.289,2.577,2.577,0,0,0,.946.126v0c.022-.126.048-.254.078-.38.015-.068.033-.136.051-.2a2,2,0,0,1-.9-.083,2.267,2.267,0,0,1-.515-.227c-.149-.095-.283-.181-.4-.257a.715.715,0,0,0-.383-.162,1.9,1.9,0,0,0-.706.128,1.7,1.7,0,0,0-.553.348,2.185,2.185,0,0,0-.385.5,3.079,3.079,0,0,0-.256.58,4.918,4.918,0,0,0-.152.621,5.735,5.735,0,0,0-.079.618c-.013.187-.02.381-.02.577a1.624,1.624,0,0,0,.482,1.228,1.735,1.735,0,0,0,1.243.453H4.912a2.65,2.65,0,0,1-.446-.573" transform="translate(0 -168.882)" fill="#fff"/>
    <path id="Path_49181_-_Outline" data-name="Path 49181 - Outline" d="M5.158,181.2H1.724a1.831,1.831,0,0,1-1.312-.481,1.72,1.72,0,0,1-.513-1.3c0-.2.007-.4.02-.584a5.858,5.858,0,0,1,.08-.629,5.036,5.036,0,0,1,.155-.633,3.188,3.188,0,0,1,.264-.6,2.283,2.283,0,0,1,.4-.524,1.788,1.788,0,0,1,.587-.369,1.994,1.994,0,0,1,.722-.135h.02a.79.79,0,0,1,.436.178c.116.076.25.162.4.257a2.173,2.173,0,0,0,.492.216,1.9,1.9,0,0,0,.856.08l.15-.02-.04.146c-.018.065-.035.133-.05.2-.03.126-.056.252-.077.375l0,.018-.022.064-.068,0a2.678,2.678,0,0,1-.983-.131,2.936,2.936,0,0,1-.67-.3l-.4-.26c-.037-.024-.064-.041-.084-.052a1.21,1.21,0,0,0-.39.08,1.021,1.021,0,0,0-.336.209,1.5,1.5,0,0,0-.264.346,2.4,2.4,0,0,0-.2.453,4.2,4.2,0,0,0-.13.534,5.143,5.143,0,0,0-.07.546c-.012.17-.018.349-.018.53a.966.966,0,0,0,.273.741,1.074,1.074,0,0,0,.778.268h2.8l.029.05a2.559,2.559,0,0,0,.429.551ZM2.13,176.148a1.8,1.8,0,0,0-.65.121,1.587,1.587,0,0,0-.521.327,2.082,2.082,0,0,0-.366.477,2.988,2.988,0,0,0-.248.561,4.835,4.835,0,0,0-.148.608,5.656,5.656,0,0,0-.078.608c-.013.183-.019.375-.019.57a1.528,1.528,0,0,0,.451,1.156A1.639,1.639,0,0,0,1.724,181H4.681a2.761,2.761,0,0,1-.271-.373H1.724a1.264,1.264,0,0,1-.916-.323,1.155,1.155,0,0,1-.336-.886c0-.186.006-.369.019-.545a5.342,5.342,0,0,1,.073-.567,4.405,4.405,0,0,1,.136-.559,2.6,2.6,0,0,1,.217-.49,1.7,1.7,0,0,1,.3-.393,1.222,1.222,0,0,1,.4-.251,1.41,1.41,0,0,1,.485-.094H2.13l.023.012c.033.017.073.042.121.073l.4.259a2.742,2.742,0,0,0,.624.278,2.466,2.466,0,0,0,.832.124c.019-.1.041-.206.066-.31l.016-.067a2.093,2.093,0,0,1-.8-.1,2.363,2.363,0,0,1-.538-.238c-.149-.095-.283-.181-.4-.258-.187-.122-.262-.146-.328-.146Z" transform="translate(0 -168.882)" fill="#fff"/>
    <path id="Path_53518" data-name="Path 53518" d="M335.85,60.709a2.355,2.355,0,0,0-4.02,1.665,2.444,2.444,0,0,0,.049.5l.023.009a2.927,2.927,0,0,1,.765.437,1.777,1.777,0,1,1,.535.549,3.469,3.469,0,0,1,.289.436c.07.124.135.251.192.377a2.439,2.439,0,0,0,.5.05h0a2.355,2.355,0,0,0,1.665-4.02" transform="translate(-318.324 -57.577)" fill="#fff"/>
    <path id="Path_49182_-_Outline" data-name="Path 49182 - Outline" d="M334.185,64.829l-.1,0a2.5,2.5,0,0,1-.423-.051l-.05-.01-.021-.046c-.055-.121-.118-.245-.188-.369a3.382,3.382,0,0,0-.281-.424l.135-.144a1.59,1.59,0,0,0,.927.274,1.67,1.67,0,1,0-1.433-.794l-.146.132a2.83,2.83,0,0,0-.739-.422l-.073-.027-.011-.054a2.556,2.556,0,0,1-.051-.517,2.455,2.455,0,1,1,2.455,2.455Zm-.433-.239a2.375,2.375,0,0,0,.433.039h.046a2.254,2.254,0,1,0-2.3-2.254,2.382,2.382,0,0,0,.037.423,3.055,3.055,0,0,1,.442.218,1.886,1.886,0,0,1-.105-.642,1.881,1.881,0,1,1,1.882,1.882,1.876,1.876,0,0,1-.673-.117q.034.056.066.113C333.642,64.365,333.7,64.479,333.752,64.59Z" transform="translate(-318.324 -57.577)" fill="#fff"/>
    <path id="Path_53519" data-name="Path 53519" d="M375.228,178.843a5.833,5.833,0,0,0-.079-.617A4.837,4.837,0,0,0,375,177.6a3.05,3.05,0,0,0-.255-.58,2.189,2.189,0,0,0-.385-.5,1.7,1.7,0,0,0-.553-.348,1.9,1.9,0,0,0-.706-.128.714.714,0,0,0-.383.162l-.4.257a2.275,2.275,0,0,1-.516.227,1.991,1.991,0,0,1-.916.081c.018.067.035.133.051.2.03.127.057.258.08.388v0a2.577,2.577,0,0,0,.961-.125,2.834,2.834,0,0,0,.648-.29l.4-.26c.058-.037.094-.058.114-.069a1.327,1.327,0,0,1,.451.087,1.132,1.132,0,0,1,.368.229,1.632,1.632,0,0,1,.283.371,2.514,2.514,0,0,1,.208.47,4.372,4.372,0,0,1,.134.548,5.236,5.236,0,0,1,.072.556c.012.173.018.354.018.538a1.06,1.06,0,0,1-.3.813,1.169,1.169,0,0,1-.847.3h-2.758a2.639,2.639,0,0,1-.446.573h3.2a1.736,1.736,0,0,0,1.243-.453,1.623,1.623,0,0,0,.482-1.228c0-.2-.007-.391-.02-.578" transform="translate(-355.248 -168.882)" fill="#fff"/>
    <path id="Path_49183_-_Outline" data-name="Path 49183 - Outline" d="M373.523,181.2h-3.449l.176-.172a2.547,2.547,0,0,0,.429-.551l.029-.05h2.816a1.074,1.074,0,0,0,.778-.268.966.966,0,0,0,.273-.741c0-.182-.006-.36-.018-.531a5.159,5.159,0,0,0-.07-.545,4.285,4.285,0,0,0-.131-.536,2.416,2.416,0,0,0-.2-.451,1.535,1.535,0,0,0-.266-.349,1.026,1.026,0,0,0-.334-.207,1.222,1.222,0,0,0-.391-.08c-.018.011-.046.027-.084.052l-.4.26a2.934,2.934,0,0,1-.671.3,2.678,2.678,0,0,1-1,.13l-.094-.006v-.087c-.022-.126-.048-.252-.077-.375-.014-.061-.031-.125-.05-.2l-.04-.147.151.022a1.9,1.9,0,0,0,.87-.077,2.186,2.186,0,0,0,.494-.217l.4-.256a.79.79,0,0,1,.437-.178h.019a2,2,0,0,1,.723.135,1.787,1.787,0,0,1,.586.368,2.288,2.288,0,0,1,.4.525,3.155,3.155,0,0,1,.263.6,4.958,4.958,0,0,1,.155.634,5.959,5.959,0,0,1,.08.627c.013.188.02.385.02.585a1.719,1.719,0,0,1-.513,1.3A1.833,1.833,0,0,1,373.523,181.2Zm-2.972-.2h2.972a1.64,1.64,0,0,0,1.174-.425,1.527,1.527,0,0,0,.451-1.156c0-.2-.007-.387-.019-.571a5.756,5.756,0,0,0-.078-.606,4.753,4.753,0,0,0-.149-.609,2.953,2.953,0,0,0-.247-.56,2.087,2.087,0,0,0-.368-.479,1.586,1.586,0,0,0-.519-.326,1.8,1.8,0,0,0-.651-.121H373.1c-.067,0-.142.024-.329.146l-.4.257a2.375,2.375,0,0,1-.539.238,2.088,2.088,0,0,1-.813.1l.015.061c.024.1.047.21.067.317a2.466,2.466,0,0,0,.846-.124,2.74,2.74,0,0,0,.625-.279l.4-.26c.067-.043.107-.065.12-.073l.023-.013h.027a1.422,1.422,0,0,1,.485.094,1.227,1.227,0,0,1,.4.249,1.734,1.734,0,0,1,.3.4,2.616,2.616,0,0,1,.216.488,4.485,4.485,0,0,1,.137.561,5.347,5.347,0,0,1,.073.566c.012.175.019.359.019.545a1.155,1.155,0,0,1-.335.886,1.264,1.264,0,0,1-.916.323h-2.7A2.741,2.741,0,0,1,370.552,181Z" transform="translate(-355.248 -168.882)" fill="#fff"/>
    <path id="Path_53520" data-name="Path 53520" d="M176.324.862a2.942,2.942,0,0,0-4.162,0,2.848,2.848,0,0,0-.862,2.081,2.849,2.849,0,0,0,.862,2.081q.064.064.13.123a2.828,2.828,0,0,0,1.054.606,2.982,2.982,0,0,0,.9.133,2.878,2.878,0,0,0,1.317-.3,2.851,2.851,0,0,0,.455-.288,3.2,3.2,0,0,0,.309-.272,2.847,2.847,0,0,0,.862-2.081,2.847,2.847,0,0,0-.862-2.081m-.506,3.655a2.226,2.226,0,0,1-3.149,0,2.127,2.127,0,0,1-.652-1.575,2.127,2.127,0,0,1,.652-1.574,2.226,2.226,0,0,1,3.149,0,2.127,2.127,0,0,1,.653,1.574,2.128,2.128,0,0,1-.653,1.575" transform="translate(-164.328 0)" fill="#fff"/>
    <path id="Path_49184_-_Outline" data-name="Path 49184 - Outline" d="M174.243,5.986a3.094,3.094,0,0,1-.927-.137,2.935,2.935,0,0,1-1.091-.627c-.046-.042-.092-.084-.134-.127a2.945,2.945,0,0,1-.892-2.152,2.944,2.944,0,0,1,.892-2.151,3.042,3.042,0,0,1,4.3,0,2.944,2.944,0,0,1,.892,2.151,2.945,2.945,0,0,1-.891,2.152,3.312,3.312,0,0,1-.319.28,2.921,2.921,0,0,1-1.833.611Zm0-5.886a2.751,2.751,0,0,0-2.01.833,2.751,2.751,0,0,0-.833,2.01,2.752,2.752,0,0,0,.833,2.011c.04.04.083.08.126.12a2.737,2.737,0,0,0,1.017.585,2.9,2.9,0,0,0,.867.128,2.787,2.787,0,0,0,1.271-.292,2.763,2.763,0,0,0,.439-.278,3.113,3.113,0,0,0,.3-.263,2.751,2.751,0,0,0,.833-2.01,2.751,2.751,0,0,0-.833-2.01A2.751,2.751,0,0,0,174.243.1Zm0,5.17a2.223,2.223,0,0,1-1.645-.682,2.223,2.223,0,0,1-.682-1.645A2.223,2.223,0,0,1,172.6,1.3a2.326,2.326,0,0,1,3.29,0,2.221,2.221,0,0,1,.682,1.645,2.223,2.223,0,0,1-.682,1.645A2.221,2.221,0,0,1,174.243,5.27Zm0-4.454a2.032,2.032,0,0,0-1.5.623,2.032,2.032,0,0,0-.623,1.5,2.032,2.032,0,0,0,.623,1.5,2.126,2.126,0,0,0,3.008,0,2.032,2.032,0,0,0,.624-1.5,2.03,2.03,0,0,0-.624-1.5A2.03,2.03,0,0,0,174.243.816Z" transform="translate(-164.328 0)" fill="#fff"/>
    <path id="Path_53521" data-name="Path 53521" d="M191.025,145.223l-.267.173a3.641,3.641,0,0,0,.467-.293c-.057.03-.122.069-.2.12m-3.365.322-.5-.322a.942.942,0,0,0-.462-.2,3.631,3.631,0,0,0,1.083.6c-.044-.023-.085-.047-.122-.071" transform="translate(-179.101 -139.118)" fill="#fff"/>
    <path id="Path_49185_-_Outline" data-name="Path 49185 - Outline" d="M187.75,145.71a3.735,3.735,0,0,1-1.112-.611l-.239-.19.3.011a1.019,1.019,0,0,1,.512.219l.5.321c.036.023.074.045.115.067Zm3.054-.225-.1-.172,0,0,.264-.171c.08-.052.148-.093.208-.124l.106.169A3.755,3.755,0,0,1,190.8,145.485Z" transform="translate(-179.101 -139.118)" fill="#fff"/>
    <path id="Path_53522" data-name="Path 53522" d="M130.44,148.5h0a7.252,7.252,0,0,0-.1-.772c-.02-.116-.044-.231-.071-.345q-.051-.218-.119-.431-.057-.176-.131-.347a3.879,3.879,0,0,0-.188-.377,2.731,2.731,0,0,0-.481-.627,2.127,2.127,0,0,0-.691-.434,2.4,2.4,0,0,0-.86-.16h-.023a.579.579,0,0,0-.279.083c-.057.03-.122.069-.2.12l-.267.173-.231.148a2.854,2.854,0,0,1-.645.284,2.5,2.5,0,0,1-1.577,0,3.283,3.283,0,0,1-.522-.213c-.044-.023-.085-.047-.123-.071l-.5-.322a.942.942,0,0,0-.462-.2h-.039a2.388,2.388,0,0,0-.86.16,2.129,2.129,0,0,0-.691.434,2.74,2.74,0,0,0-.481.627,3.764,3.764,0,0,0-.194.392c-.047.109-.089.22-.125.333q-.068.217-.12.438-.04.168-.07.339a7.137,7.137,0,0,0-.1.772c-.016.234-.024.476-.024.722a2.032,2.032,0,0,0,.6,1.529l.007.007a2.064,2.064,0,0,0,1.226.548,2.936,2.936,0,0,0,.327.018h5.884a2.881,2.881,0,0,0,.335-.019,2.066,2.066,0,0,0,1.218-.547l.007-.007a2.029,2.029,0,0,0,.6-1.529c0-.246-.008-.489-.025-.722m-1.072,1.738a1.46,1.46,0,0,1-1.059.369h-5.884a1.46,1.46,0,0,1-1.059-.369,1.326,1.326,0,0,1-.381-1.017c0-.229.008-.455.023-.672a6.463,6.463,0,0,1,.09-.7,5.426,5.426,0,0,1,.167-.684c.033-.1.072-.2.115-.3s.092-.193.144-.287a2.01,2.01,0,0,1,.193-.285,1.908,1.908,0,0,1,.161-.178,1.414,1.414,0,0,1,.46-.286,1.651,1.651,0,0,1,.564-.109c.025.013.07.039.142.086.147.1.317.206.5.325a3.552,3.552,0,0,0,.81.361,3.214,3.214,0,0,0,2.017,0,3.537,3.537,0,0,0,.81-.362c.192-.122.357-.229.5-.325.072-.047.117-.073.142-.086a1.649,1.649,0,0,1,.564.109,1.41,1.41,0,0,1,.46.286,2.007,2.007,0,0,1,.163.18,1.979,1.979,0,0,1,.19.283c.051.089.1.181.139.275a3.082,3.082,0,0,1,.12.314,5.345,5.345,0,0,1,.167.685,6.653,6.653,0,0,1,.09.7c.015.217.023.442.023.672a1.324,1.324,0,0,1-.381,1.016" transform="translate(-115.375 -139.108)" fill="#fff"/>
    <path id="Path_49186_-_Outline" data-name="Path 49186 - Outline" d="M128.309,151.427h-5.884a3.047,3.047,0,0,1-.338-.019,2.165,2.165,0,0,1-1.284-.575l-.009-.009a2.128,2.128,0,0,1-.625-1.6c0-.249.008-.494.025-.729a7.265,7.265,0,0,1,.1-.783c.02-.113.044-.229.071-.343.034-.146.075-.3.122-.445.038-.118.081-.233.129-.342a3.878,3.878,0,0,1,.2-.4,2.837,2.837,0,0,1,.5-.649,2.221,2.221,0,0,1,.725-.456,2.479,2.479,0,0,1,.9-.167h.047a1.02,1.02,0,0,1,.509.219l.5.321c.036.023.075.045.115.067a3.188,3.188,0,0,0,.506.206,2.414,2.414,0,0,0,1.515,0,2.759,2.759,0,0,0,.623-.273l.071-.045.159-.1,0,0,.262-.17c.08-.052.148-.093.207-.124a.677.677,0,0,1,.326-.095h.023a2.491,2.491,0,0,1,.9.166,2.219,2.219,0,0,1,.724.455,2.832,2.832,0,0,1,.5.651,3.99,3.99,0,0,1,.193.386c.05.114.095.234.134.355.047.149.087.3.121.439.027.114.051.232.072.35a7.377,7.377,0,0,1,.1.782v0c.016.231.025.475.025.725a2.126,2.126,0,0,1-.625,1.6l-.008.008a2.167,2.167,0,0,1-1.277.576A3,3,0,0,1,128.309,151.427Zm-7.368-.74,0,0a1.968,1.968,0,0,0,1.167.52,2.847,2.847,0,0,0,.316.017h5.884a2.8,2.8,0,0,0,.323-.018,1.971,1.971,0,0,0,1.16-.521h0l.006-.006a1.933,1.933,0,0,0,.566-1.457c0-.247-.008-.487-.025-.714v0a7.179,7.179,0,0,0-.1-.758c-.02-.115-.044-.229-.07-.34-.033-.138-.072-.281-.117-.424-.037-.115-.08-.228-.127-.337a3.8,3.8,0,0,0-.184-.368,2.63,2.63,0,0,0-.464-.6,2.017,2.017,0,0,0-.657-.413,2.291,2.291,0,0,0-.824-.153h-.023a.488.488,0,0,0-.233.072c-.054.029-.117.066-.191.115l-.263.171,0,0-.16.1-.071.045a2.95,2.95,0,0,1-.668.295,2.617,2.617,0,0,1-1.639,0,3.381,3.381,0,0,1-.537-.219c-.045-.024-.089-.049-.129-.075l-.5-.322a.873.873,0,0,0-.411-.187h-.036a2.28,2.28,0,0,0-.824.153,2.02,2.02,0,0,0-.659.414,2.636,2.636,0,0,0-.462.6,3.687,3.687,0,0,0-.189.382c-.045.1-.086.213-.122.324-.045.144-.085.288-.118.43-.026.111-.049.223-.069.333a7.069,7.069,0,0,0-.1.762c-.016.23-.024.47-.024.714a1.935,1.935,0,0,0,.566,1.457Zm7.368.024h-5.884a1.555,1.555,0,0,1-1.128-.4,1.42,1.42,0,0,1-.412-1.089c0-.23.008-.459.023-.679a6.591,6.591,0,0,1,.091-.707,5.539,5.539,0,0,1,.17-.7c.034-.1.074-.209.119-.313s.1-.2.149-.3a2.113,2.113,0,0,1,.2-.3,2.008,2.008,0,0,1,.169-.187,1.509,1.509,0,0,1,.494-.308,1.746,1.746,0,0,1,.6-.115h.026l.023.012c.043.023.092.053.149.09.147.1.316.205.5.325a3.454,3.454,0,0,0,.786.351,3.127,3.127,0,0,0,1.955,0,3.442,3.442,0,0,0,.787-.351c.191-.122.356-.228.5-.324.077-.05.124-.077.15-.091l.023-.012h.025a1.743,1.743,0,0,1,.6.115,1.5,1.5,0,0,1,.492.306,2.117,2.117,0,0,1,.173.191,2.086,2.086,0,0,1,.2.3c.051.089.1.184.143.282a3.2,3.2,0,0,1,.124.324,5.467,5.467,0,0,1,.171.7,6.775,6.775,0,0,1,.091.705c.015.22.023.449.023.679a1.418,1.418,0,0,1-.412,1.089A1.555,1.555,0,0,1,128.309,150.711Zm-5.431-4.883a1.548,1.548,0,0,0-.5.1,1.308,1.308,0,0,0-.427.266,1.807,1.807,0,0,0-.151.167,1.919,1.919,0,0,0-.184.272c-.05.089-.1.182-.14.278s-.08.2-.111.293a5.34,5.34,0,0,0-.164.671,6.4,6.4,0,0,0-.088.686c-.015.215-.023.439-.023.665a1.231,1.231,0,0,0,.35.944,1.366,1.366,0,0,0,.99.341h5.884a1.366,1.366,0,0,0,.99-.342,1.23,1.23,0,0,0,.349-.944c0-.226-.008-.45-.023-.665a6.576,6.576,0,0,0-.088-.685,5.268,5.268,0,0,0-.164-.672,2.99,2.99,0,0,0-.116-.3c-.041-.092-.087-.182-.135-.266a1.89,1.89,0,0,0-.181-.27,1.919,1.919,0,0,0-.155-.172,1.3,1.3,0,0,0-.425-.264,1.544,1.544,0,0,0-.5-.1c-.023.013-.059.035-.112.069-.147.1-.313.2-.5.325a3.635,3.635,0,0,1-.833.373,3.33,3.33,0,0,1-2.08,0,3.649,3.649,0,0,1-.832-.372c-.188-.12-.358-.23-.505-.326C122.948,145.869,122.911,145.846,122.878,145.828Z" transform="translate(-115.375 -139.108)" fill="#fff"/>
  </g>
</svg>
