<svg id="Invoice-rafiki" xmlns="http://www.w3.org/2000/svg" xmlns:xlink="http://www.w3.org/1999/xlink" width="118" height="118" viewBox="0 0 118 118">
  <defs>
    <clipPath id="clip-path">
      <rect id="Rectangle_16682" data-name="Rectangle 16682" width="118" height="118" fill="#fff" stroke="#707070" stroke-width="1"/>
    </clipPath>
  </defs>
  <g id="Mask_Group_41856" data-name="Mask Group 41856" clip-path="url(#clip-path)">
    <g id="task" transform="translate(2.812 11.466)">
      <g id="Group_44334" data-name="Group 44334">
        <path id="Path_51717" data-name="Path 51717" d="M329,534.774a23.041,23.041,0,0,1-1.783-2.708,26.123,26.123,0,0,1-4.229-8.9c-.709-2.461-1.237-5.075-1.814-7.833-.39-1.86-1.017-3.939-2.378-4.526-1.324-.57-2.749.612-3.563,2.135s-1.224,3.37-1.92,5c-1.263,2.948-3.5,4.183-5.345,1.592-2.639-3.7-3.828-8.75-5.5-13.265-1.214-3.278-2.232-7.116-3.763-10.138-2.334-4.607-5.535-8.537-9.791-8.537-2.7.552-5.075,3.788-6.685,7.829a68.266,68.266,0,0,0-3.347,13.644c-.67,4.022-1.258,8.088-1.8,12.175-1.012-4.925-2.065-9.814-3.2-14.619a82.615,82.615,0,0,0-4.491-14.551c-1.893-4.164-4.4-7.235-6.917-7.213-3.879,1.017-6.381,6.2-8.022,11.941-1.076,3.765-1.6,8.326-2.36,12.3-1.049,5.48-1.6,11.441-3.614,16.237-1.41,3.356-3.578,2.5-5.039-.516-.806-1.665-1.375-3.644-2.277-5.163s-2.327-2.509-3.472-1.552c-1.178.984-1.531,3.475-1.689,5.66-.235,3.243-.441,6.308-.828,9.246q-.125.961-.281,1.9h40.5c-.028.234-.057.47-.084.7Z" transform="translate(-219.176 -447.905)" fill="#dce6ef" opacity="0.31"/>
        <path id="Path_51718" data-name="Path 51718" d="M741.511,633.212c-.142,2.825-3.216,7.764-6.042,7.622s-4.333-5.313-4.189-8.138,3.151-16.964,5.976-16.82S741.653,630.387,741.511,633.212Z" transform="translate(-653.622 -553.792)" fill="#de362e" opacity="0.77"/>
        <g id="Group_44277" data-name="Group 44277" transform="translate(82.001 63.846)">
          <path id="Path_51719" data-name="Path 51719" d="M754.032,648.111h0a.073.073,0,0,1-.069-.079l1.425-22.9a.07.07,0,0,1,.079-.069.073.073,0,0,1,.069.079l-1.425,22.9A.077.077,0,0,1,754.032,648.111Z" transform="translate(-753.958 -625.067)" fill="#333"/>
        </g>
        <path id="Path_51720" data-name="Path 51720" d="M744.352,663.576a19.634,19.634,0,0,0-1.429,4.442,3.726,3.726,0,0,0,.109,2.348,2.81,2.81,0,0,0,2.106,1.377,5.852,5.852,0,0,0,5.432-2.677,16.658,16.658,0,0,0,2.254-5.928,23.559,23.559,0,0,1,1.49-4.8c.311-.652,2.135-3.167,1.272-3.819-1.18-.927-4.593.08-6.78,2.47A25.421,25.421,0,0,0,744.352,663.576Z" transform="translate(-662.93 -584.745)" fill="#de362e" opacity="0.77"/>
        <g id="Group_44278" data-name="Group 44278" transform="translate(82.133 71.391)">
          <path id="Path_51721" data-name="Path 51721" d="M754.724,680.087a.071.071,0,0,1-.019,0,.074.074,0,0,1-.054-.09c.025-.1,2.612-9.956,8.679-15.568a.075.075,0,0,1,.106,0,.074.074,0,0,1,0,.105c-6.036,5.581-8.61,15.4-8.635,15.5A.072.072,0,0,1,754.724,680.087Z" transform="translate(-754.649 -664.407)" fill="#333"/>
        </g>
        <path id="Path_51722" data-name="Path 51722" d="M806.015,685.437a2.464,2.464,0,0,1-.993.861c-.455.257-.94.481-1.41.7a16.312,16.312,0,0,0-1.8.93,6.081,6.081,0,0,0-1.1.878,13.969,13.969,0,0,1,1.749-2.973,3.663,3.663,0,0,1,2.729-1.734c.021,0,.042,0,.063,0a1.026,1.026,0,0,1,.656.209A.932.932,0,0,1,806.015,685.437Z" transform="translate(-709.743 -608.932)" fill="#de362e" opacity="0.77"/>
        <path id="Path_51723" data-name="Path 51723" d="M807.435,716.842a2.488,2.488,0,0,1-1.266.355c-.522.036-1.057.033-1.573.031a16.288,16.288,0,0,0-2.023.071,6.148,6.148,0,0,0-1.373.322,13.9,13.9,0,0,1,2.852-1.939,3.662,3.662,0,0,1,3.209-.4l.058.029a1.03,1.03,0,0,1,.5.47A.936.936,0,0,1,807.435,716.842Z" transform="translate(-710.139 -633.956)" fill="#de362e" opacity="0.77"/>
        <path id="Path_51724" data-name="Path 51724" d="M806.506,730.027a1.7,1.7,0,0,1-.8-.418c-.276-.226-.541-.478-.8-.723a11.321,11.321,0,0,0-1.039-.913,4.127,4.127,0,0,0-.834-.483,9.518,9.518,0,0,1,2.328.372,2.5,2.5,0,0,1,1.782,1.3c.006.013.01.027.015.04a.713.713,0,0,1,.031.47A.638.638,0,0,1,806.506,730.027Z" transform="translate(-711.626 -644)" fill="#de362e" opacity="0.77"/>
        <g id="Group_44279" data-name="Group 44279" transform="translate(87.931 75.811)">
          <path id="Path_51725" data-name="Path 51725" d="M784.955,698.769a.079.079,0,0,1-.075-.075c0-.061.113-6.137,7.436-11.229a.074.074,0,1,1,.084.123c-7.259,5.048-7.373,11.047-7.373,11.107A.072.072,0,0,1,784.955,698.769Z" transform="translate(-784.88 -687.451)" fill="#333"/>
        </g>
        <g id="Group_44280" data-name="Group 44280" transform="translate(87.93 82.126)">
          <path id="Path_51726" data-name="Path 51726" d="M784.949,725.382a.068.068,0,0,1-.033-.008.074.074,0,0,1-.036-.1,9.44,9.44,0,0,1,8.472-4.895.075.075,0,1,1,0,.15,9.283,9.283,0,0,0-8.335,4.808A.073.073,0,0,1,784.949,725.382Z" transform="translate(-784.873 -720.38)" fill="#333"/>
        </g>
        <g id="Group_44281" data-name="Group 44281" transform="translate(91.272 83.475)">
          <path id="Path_51727" data-name="Path 51727" d="M806.046,729.349a.076.076,0,0,1-.044-.015c-2.421-1.826-3.612-1.772-3.621-1.77a.075.075,0,0,1-.081-.069.078.078,0,0,1,.069-.081c.05-.006,1.245-.067,3.723,1.8a.076.076,0,0,1,.015.105A.085.085,0,0,1,806.046,729.349Z" transform="translate(-802.3 -727.412)" fill="#333"/>
        </g>
        <g id="Group_44287" data-name="Group 44287" transform="translate(7.138 8.991)">
          <path id="Path_51736" data-name="Path 51736" d="M418.316,414.032H365.73a2.1,2.1,0,0,1-2.1-2.1V341.16a2.1,2.1,0,0,1,2.1-2.1h15.718v.575H365.73a1.527,1.527,0,0,0-1.525,1.525v70.772a1.527,1.527,0,0,0,1.525,1.525h52.586a1.527,1.527,0,0,0,1.525-1.525V341.16a1.527,1.527,0,0,0-1.525-1.525H402.6v-.575h15.714a2.1,2.1,0,0,1,2.1,2.1v70.772A2.1,2.1,0,0,1,418.316,414.032Z" transform="translate(-363.63 -339.06)" fill="#de362e"/>
        </g>
        <path id="Path_51737" data-name="Path 51737" d="M431.1,425.991H382.9a.741.741,0,0,1-.74-.74V359.2a.741.741,0,0,1,.74-.74h48.2a.741.741,0,0,1,.74.74v66.05A.741.741,0,0,1,431.1,425.991Z" transform="translate(-371.468 -345.748)" fill="#f2f2f2"/>
        <g id="Group_44288" data-name="Group 44288" transform="translate(24.702 3.103)">
          <path id="Path_51738" data-name="Path 51738" d="M476.867,319.929H455.21v-7.087h6.27a4.56,4.56,0,0,1,9.118,0h6.27Zm-21.082-.575h20.507v-5.936H470l.019-.38c0-.038.006-.079.006-.119a3.984,3.984,0,1,0-7.967,0c0,.04,0,.081.006.119l.019.38h-6.295Z" transform="translate(-455.21 -308.36)" fill="#de362e"/>
        </g>
        <g id="Group_44289" data-name="Group 44289" transform="translate(32.844 4.975)">
          <path id="Path_51739" data-name="Path 51739" d="M500.347,323.494a2.687,2.687,0,1,1,2.687-2.687A2.69,2.69,0,0,1,500.347,323.494Zm0-4.8a2.112,2.112,0,1,0,2.112,2.112A2.114,2.114,0,0,0,500.347,318.7Z" transform="translate(-497.66 -318.12)" fill="#de362e"/>
        </g>
        <path id="Path_51740" data-name="Path 51740" d="M265.064,753.915H156.125c-1.726,0-3.125-1.8-3.125-4.028h0c0-2.225,1.4-4.028,3.125-4.028H265.064c1.726,0,3.125,1.8,3.125,4.028h0C268.189,752.112,266.791,753.915,265.064,753.915Z" transform="translate(-153 -658.847)" fill="#d3d3d3"/>
        <g id="Group_44330" data-name="Group 44330" transform="translate(16.954 23.161)">
          <g id="Group_44299" data-name="Group 44299">
            <g id="Group_44290" data-name="Group 44290">
              <path id="Path_51741" data-name="Path 51741" d="M423.109,421.239h-8.3v-8.3h8.3ZM415,421.047h7.915v-7.915H415Z" transform="translate(-414.81 -412.94)" fill="#333"/>
            </g>
            <g id="Group_44293" data-name="Group 44293" transform="translate(1.68 0.829)">
              <g id="Group_44292" data-name="Group 44292">
                <g id="Group_44291" data-name="Group 44291">
                  <path id="Path_51742" data-name="Path 51742" d="M426.313,422.9l-2.743-2.154.474-.6,2.217,1.74,4.8-4.624.531.552Z" transform="translate(-423.57 -417.26)" fill="#333"/>
                </g>
              </g>
            </g>
            <g id="Group_44298" data-name="Group 44298" transform="translate(11.782 1.772)">
              <g id="Group_44294" data-name="Group 44294">
                <path id="Path_51743" data-name="Path 51743" d="M502.968,422.805H476.553a.313.313,0,0,1-.313-.313h0a.313.313,0,0,1,.313-.313h26.416a.313.313,0,0,1,.313.313h0A.313.313,0,0,1,502.968,422.805Z" transform="translate(-476.24 -422.18)" fill="#333"/>
              </g>
              <g id="Group_44295" data-name="Group 44295" transform="translate(0 1.377)">
                <path id="Path_51744" data-name="Path 51744" d="M502.968,429.985H476.553a.313.313,0,0,1-.313-.313h0a.313.313,0,0,1,.313-.313h26.416a.313.313,0,0,1,.313.313h0A.313.313,0,0,1,502.968,429.985Z" transform="translate(-476.24 -429.36)" fill="#333"/>
              </g>
              <g id="Group_44296" data-name="Group 44296" transform="translate(0 2.752)">
                <path id="Path_51745" data-name="Path 51745" d="M502.968,437.155H476.553a.313.313,0,0,1-.313-.313h0a.313.313,0,0,1,.313-.313h26.416a.313.313,0,0,1,.313.313h0A.313.313,0,0,1,502.968,437.155Z" transform="translate(-476.24 -436.53)" fill="#333"/>
              </g>
              <g id="Group_44297" data-name="Group 44297" transform="translate(0 4.129)">
                <path id="Path_51746" data-name="Path 51746" d="M502.968,444.335H476.553a.313.313,0,0,1-.313-.313h0a.313.313,0,0,1,.313-.313h26.416a.313.313,0,0,1,.313.313h0A.313.313,0,0,1,502.968,444.335Z" transform="translate(-476.24 -443.71)" fill="#333"/>
              </g>
            </g>
          </g>
          <g id="Group_44309" data-name="Group 44309" transform="translate(0 13.052)">
            <g id="Group_44300" data-name="Group 44300">
              <path id="Path_51747" data-name="Path 51747" d="M423.109,489.289h-8.3v-8.3h8.3ZM415,489.1h7.915v-7.915H415Z" transform="translate(-414.81 -480.99)" fill="#333"/>
            </g>
            <g id="Group_44303" data-name="Group 44303" transform="translate(1.68 0.829)">
              <g id="Group_44302" data-name="Group 44302">
                <g id="Group_44301" data-name="Group 44301">
                  <path id="Path_51748" data-name="Path 51748" d="M426.313,490.951,423.57,488.8l.474-.6,2.217,1.74,4.8-4.624.531.552Z" transform="translate(-423.57 -485.31)" fill="#333"/>
                </g>
              </g>
            </g>
            <g id="Group_44308" data-name="Group 44308" transform="translate(11.782 1.772)">
              <g id="Group_44304" data-name="Group 44304">
                <path id="Path_51749" data-name="Path 51749" d="M502.968,490.855H476.553a.313.313,0,0,1-.313-.313h0a.313.313,0,0,1,.313-.313h26.416a.313.313,0,0,1,.313.313h0A.313.313,0,0,1,502.968,490.855Z" transform="translate(-476.24 -490.23)" fill="#333"/>
              </g>
              <g id="Group_44305" data-name="Group 44305" transform="translate(0 1.377)">
                <path id="Path_51750" data-name="Path 51750" d="M502.968,498.035H476.553a.313.313,0,0,1-.313-.313h0a.313.313,0,0,1,.313-.313h26.416a.313.313,0,0,1,.313.313h0A.313.313,0,0,1,502.968,498.035Z" transform="translate(-476.24 -497.41)" fill="#333"/>
              </g>
              <g id="Group_44306" data-name="Group 44306" transform="translate(0 2.752)">
                <path id="Path_51751" data-name="Path 51751" d="M502.968,505.205H476.553a.313.313,0,0,1-.313-.313h0a.313.313,0,0,1,.313-.313h26.416a.313.313,0,0,1,.313.313h0A.313.313,0,0,1,502.968,505.205Z" transform="translate(-476.24 -504.58)" fill="#333"/>
              </g>
              <g id="Group_44307" data-name="Group 44307" transform="translate(0 4.129)">
                <path id="Path_51752" data-name="Path 51752" d="M502.968,512.385H476.553a.313.313,0,0,1-.313-.313h0a.313.313,0,0,1,.313-.313h26.416a.313.313,0,0,1,.313.313h0A.313.313,0,0,1,502.968,512.385Z" transform="translate(-476.24 -511.76)" fill="#333"/>
              </g>
            </g>
          </g>
          <g id="Group_44319" data-name="Group 44319" transform="translate(0 26.103)">
            <g id="Group_44310" data-name="Group 44310">
              <path id="Path_51753" data-name="Path 51753" d="M423.109,557.339h-8.3v-8.3h8.3ZM415,557.147h7.915v-7.915H415Z" transform="translate(-414.81 -549.04)" fill="#333"/>
            </g>
            <g id="Group_44313" data-name="Group 44313" transform="translate(1.68 0.829)">
              <g id="Group_44312" data-name="Group 44312">
                <g id="Group_44311" data-name="Group 44311">
                  <path id="Path_51754" data-name="Path 51754" d="M426.313,559l-2.743-2.154.474-.6,2.217,1.74,4.8-4.624.531.552Z" transform="translate(-423.57 -553.36)" fill="#333"/>
                </g>
              </g>
            </g>
            <g id="Group_44318" data-name="Group 44318" transform="translate(11.782 1.772)">
              <g id="Group_44314" data-name="Group 44314">
                <path id="Path_51755" data-name="Path 51755" d="M502.968,558.905H476.553a.313.313,0,0,1-.313-.313h0a.313.313,0,0,1,.313-.313h26.416a.313.313,0,0,1,.313.313h0A.313.313,0,0,1,502.968,558.905Z" transform="translate(-476.24 -558.28)" fill="#333"/>
              </g>
              <g id="Group_44315" data-name="Group 44315" transform="translate(0 1.377)">
                <path id="Path_51756" data-name="Path 51756" d="M502.968,566.085H476.553a.313.313,0,0,1-.313-.313h0a.313.313,0,0,1,.313-.313h26.416a.313.313,0,0,1,.313.313h0A.313.313,0,0,1,502.968,566.085Z" transform="translate(-476.24 -565.46)" fill="#333"/>
              </g>
              <g id="Group_44316" data-name="Group 44316" transform="translate(0 2.752)">
                <path id="Path_51757" data-name="Path 51757" d="M502.968,573.255H476.553a.313.313,0,0,1-.313-.313h0a.313.313,0,0,1,.313-.313h26.416a.313.313,0,0,1,.313.313h0A.313.313,0,0,1,502.968,573.255Z" transform="translate(-476.24 -572.63)" fill="#333"/>
              </g>
              <g id="Group_44317" data-name="Group 44317" transform="translate(0 4.129)">
                <path id="Path_51758" data-name="Path 51758" d="M502.968,580.435H476.553a.313.313,0,0,1-.313-.313h0a.313.313,0,0,1,.313-.313h26.416a.313.313,0,0,1,.313.313h0A.313.313,0,0,1,502.968,580.435Z" transform="translate(-476.24 -579.81)" fill="#333"/>
              </g>
            </g>
          </g>
          <g id="Group_44329" data-name="Group 44329" transform="translate(0 39.155)">
            <g id="Group_44320" data-name="Group 44320">
              <path id="Path_51759" data-name="Path 51759" d="M423.109,625.389h-8.3v-8.3h8.3ZM415,625.2h7.915v-7.915H415Z" transform="translate(-414.81 -617.09)" fill="#333"/>
            </g>
            <g id="Group_44323" data-name="Group 44323" transform="translate(1.68 0.829)">
              <g id="Group_44322" data-name="Group 44322">
                <g id="Group_44321" data-name="Group 44321">
                  <path id="Path_51760" data-name="Path 51760" d="M426.313,627.051,423.57,624.9l.474-.6,2.217,1.74,4.8-4.624.531.552Z" transform="translate(-423.57 -621.41)" fill="#333"/>
                </g>
              </g>
            </g>
            <g id="Group_44328" data-name="Group 44328" transform="translate(11.782 1.772)">
              <g id="Group_44324" data-name="Group 44324">
                <path id="Path_51761" data-name="Path 51761" d="M502.968,626.955H476.553a.313.313,0,0,1-.313-.313h0a.313.313,0,0,1,.313-.313h26.416a.313.313,0,0,1,.313.313h0A.313.313,0,0,1,502.968,626.955Z" transform="translate(-476.24 -626.33)" fill="#333"/>
              </g>
              <g id="Group_44325" data-name="Group 44325" transform="translate(0 1.377)">
                <path id="Path_51762" data-name="Path 51762" d="M502.968,634.135H476.553a.313.313,0,0,1-.313-.313h0a.313.313,0,0,1,.313-.313h26.416a.313.313,0,0,1,.313.313h0A.313.313,0,0,1,502.968,634.135Z" transform="translate(-476.24 -633.51)" fill="#333"/>
              </g>
              <g id="Group_44326" data-name="Group 44326" transform="translate(0 2.752)">
                <path id="Path_51763" data-name="Path 51763" d="M502.968,641.305H476.553a.313.313,0,0,1-.313-.313h0a.313.313,0,0,1,.313-.313h26.416a.313.313,0,0,1,.313.313h0A.313.313,0,0,1,502.968,641.305Z" transform="translate(-476.24 -640.68)" fill="#333"/>
              </g>
              <g id="Group_44327" data-name="Group 44327" transform="translate(0 4.129)">
                <path id="Path_51764" data-name="Path 51764" d="M502.968,648.485H476.553a.313.313,0,0,1-.313-.313h0a.313.313,0,0,1,.313-.313h26.416a.313.313,0,0,1,.313.313h0A.313.313,0,0,1,502.968,648.485Z" transform="translate(-476.24 -647.86)" fill="#333"/>
              </g>
            </g>
          </g>
        </g>
        <path id="Path_51781" data-name="Path 51781" d="M635.824,294.435a2.078,2.078,0,0,1-1.835,2.255H612.225a2.078,2.078,0,0,1-1.835-2.255h0a2.078,2.078,0,0,1,1.835-2.255h21.763a2.079,2.079,0,0,1,1.835,2.255Z" transform="translate(-555.925 -292.18)" fill="#f2f2f2"/>
        <path id="Path_51784" data-name="Path 51784" d="M735.531,345.355a2.255,2.255,0,0,1-2.255,2.255h-26.74a2.255,2.255,0,0,1-2.256-2.255h0a2.255,2.255,0,0,1,2.256-2.255h26.742a2.256,2.256,0,0,1,2.254,2.255Z" transform="translate(-631.807 -333.334)" fill="#f2f2f2"/>
        <g id="Group_44368" data-name="Group 44368" transform="translate(56.188 19.534)">
          <path id="Path_52962" data-name="Path 52962" d="M5.1,0H41.65a5.1,5.1,0,0,1,5.1,5.1v6.8a5.1,5.1,0,0,1-5.1,5.1H5.1A5.1,5.1,0,0,1,0,11.9V5.1A5.1,5.1,0,0,1,5.1,0Z" fill="#de362e"/>
          <text id="_New" data-name="+ New" transform="translate(7 13)" fill="#fff" font-size="11" font-family="CeraGR-Medium, CeraGR ☞" font-weight="500"><tspan x="0" y="0">+ New</tspan></text>
        </g>
      </g>
      <path id="Path_51785" data-name="Path 51785" d="M690.5,741.817a2.477,2.477,0,0,1-2.342-.3s-2.789.447-3.589,1.272-.221,1.233.784,1.216,4.881-.058,4.881-.058S691.228,743.342,690.5,741.817Z" transform="translate(-615.572 -655.339)" fill="#333"/>
      <path id="Path_51786" data-name="Path 51786" d="M754.415,736.01a1.641,1.641,0,0,1-1.914.316s-2.942,1.344-3.462,2.369.154,1.243,1.109.93,4.645-1.5,4.645-1.5S755.563,737.249,754.415,736.01Z" transform="translate(-667.836 -650.886)" fill="#333"/>
    </g>
  </g>
</svg>
