<svg id="Invoice-rafiki" xmlns="http://www.w3.org/2000/svg" width="58.066" height="64.519" viewBox="0 0 58.066 64.519">
  <g id="freepik--Shadow--inject-2" transform="translate(0 61.962)">
    <ellipse id="freepik--path--inject-2" cx="28.308" cy="1.278" rx="28.308" ry="1.278" fill="#f5f5f5"/>
  </g>
  <g id="freepik--Invoice--inject-2" transform="translate(13.582 7.893)">
    <path id="Path_52996" data-name="Path 52996" d="M253.473,136.97H224.146a2.063,2.063,0,0,1-2.075-2.255l3.592-47.271a2.478,2.478,0,0,1,2.42-2.255H257.41a2.062,2.062,0,0,1,2.075,2.255l-3.592,47.271a2.48,2.48,0,0,1-2.42,2.255Z" transform="translate(-219.787 -85.189)" fill="#de362e"/>
    <path id="Path_52997" data-name="Path 52997" d="M253.473,136.97H224.146a2.063,2.063,0,0,1-2.075-2.255l3.592-47.271a2.478,2.478,0,0,1,2.42-2.255H257.41a2.062,2.062,0,0,1,2.075,2.255l-3.592,47.271a2.48,2.48,0,0,1-2.42,2.255Z" transform="translate(-219.787 -85.189)" fill="#fff" opacity="0.5"/>
    <path id="Path_52998" data-name="Path 52998" d="M251.055,136.97H221.726a2.063,2.063,0,0,1-2.075-2.255l3.594-47.271a2.478,2.478,0,0,1,2.422-2.255h29.327a2.062,2.062,0,0,1,2.075,2.255l-3.592,47.271a2.478,2.478,0,0,1-2.422,2.255Z" transform="translate(-217.804 -85.189)" fill="#de362e"/>
    <path id="Path_52999" data-name="Path 52999" d="M251.055,136.97H221.726a2.063,2.063,0,0,1-2.075-2.255l3.594-47.271a2.478,2.478,0,0,1,2.422-2.255h29.327a2.062,2.062,0,0,1,2.075,2.255l-3.592,47.271a2.478,2.478,0,0,1-2.422,2.255Z" transform="translate(-217.804 -85.189)" fill="#fff" opacity="0.7"/>
    <path id="Path_53000" data-name="Path 53000" d="M225.2,142.456a1.372,1.372,0,0,1-1.383-1.5L227.357,94.3a1.648,1.648,0,0,1,1.613-1.5H258.3a1.372,1.372,0,0,1,1.383,1.5l-3.545,46.651a1.648,1.648,0,0,1-1.611,1.5Z" transform="translate(-221.216 -91.425)" fill="#de362e"/>
    <path id="Path_53001" data-name="Path 53001" d="M293.791,128.025H272.8a.813.813,0,0,1-.82-.888h0a.979.979,0,0,1,.955-.887h20.988a.811.811,0,0,1,.82.887h0A.975.975,0,0,1,293.791,128.025Z" transform="translate(-260.691 -118.835)" opacity="0.2"/>
    <path id="Path_53002" data-name="Path 53002" d="M326.878,88.277h-3.39a.2.2,0,0,1-.2-.219h0a.242.242,0,0,1,.235-.219h3.391a.2.2,0,0,1,.2.219h0A.238.238,0,0,1,326.878,88.277Z" transform="translate(-302.731 -87.361)" fill="#de362e" opacity="0.3"/>
    <path id="Path_53003" data-name="Path 53003" d="M265.708,120.015a2.243,2.243,0,0,0-2.268-2.456h21.309a2.243,2.243,0,0,1,2.268,2.456Z" transform="translate(-253.693 -111.713)" fill="#f0f0f0"/>
    <path id="Path_53004" data-name="Path 53004" d="M229.563,117.56a2.7,2.7,0,0,0-2.646,2.456l-2.183,28.617a2.7,2.7,0,0,1-2.644,2.456H243.4a2.7,2.7,0,0,0,2.646-2.456l2.183-28.617a2.7,2.7,0,0,1,2.644-2.456Z" transform="translate(-219.81 -111.714)" fill="#fff"/>
    <path id="Path_53005" data-name="Path 53005" d="M230.783,289.63a2.243,2.243,0,0,0,2.268,2.456H211.742a2.243,2.243,0,0,1-2.268-2.456Z" transform="translate(-209.464 -252.563)" fill="#f0f0f0"/>
    <path id="Path_53006" data-name="Path 53006" d="M252.591,277.921c.081-1.046-.247-1.891-1.291-1.891h16.408A1.3,1.3,0,0,1,269,277.921Z" transform="translate(-243.745 -241.431)" fill="#e0e0e0"/>
    <path id="Path_53007" data-name="Path 53007" d="M230.829,278.461A2.7,2.7,0,0,1,233.473,276H212.164a2.7,2.7,0,0,0-2.644,2.456Z" transform="translate(-209.51 -241.405)" fill="#f0f0f0"/>
    <path id="Path_53008" data-name="Path 53008" d="M269.6,323.069h-24.46a.591.591,0,0,1-.6-.645h0a.71.71,0,0,1,.693-.645H269.7a.59.59,0,0,1,.594.645h0A.71.71,0,0,1,269.6,323.069Z" transform="translate(-238.211 -278.858)" fill="#fff"/>
    <path id="Path_53009" data-name="Path 53009" d="M256.179,340.229H243.834a.589.589,0,0,1-.6-.645h0a.71.71,0,0,1,.693-.645h12.345a.59.59,0,0,1,.6.645h0A.71.71,0,0,1,256.179,340.229Z" transform="translate(-237.137 -292.92)" fill="#fff"/>
    <path id="Path_53010" data-name="Path 53010" d="M336.834,340.229h-5a.589.589,0,0,1-.6-.645h0a.71.71,0,0,1,.694-.645h5a.592.592,0,0,1,.6.645h0A.71.71,0,0,1,336.834,340.229Z" transform="translate(-309.245 -292.92)" fill="#fff"/>
    <path id="Path_53011" data-name="Path 53011" d="M370.731,271.149l-1.277.2a1.179,1.179,0,0,0-.146-.334.755.755,0,0,0-.237-.19l-.076.981a3.377,3.377,0,0,1,1.333.581,1.239,1.239,0,0,1,.377,1.04,1.482,1.482,0,0,1-.217.679,1.827,1.827,0,0,1-.459.515,1.857,1.857,0,0,1-.567.3,2.862,2.862,0,0,1-.722.11l-.049.639h-.477l.049-.639a3.047,3.047,0,0,1-.8-.161,1.5,1.5,0,0,1-.516-.325,1.4,1.4,0,0,1-.312-.446,1.912,1.912,0,0,1-.139-.578l1.381-.159a1.215,1.215,0,0,0,.126.486.761.761,0,0,0,.321.264l.09-1.2a6.031,6.031,0,0,1-.946-.329,1.172,1.172,0,0,1-.462-.446,1.225,1.225,0,0,1-.152-.749,1.455,1.455,0,0,1,.5-1.008,2.03,2.03,0,0,1,1.289-.45l.025-.336h.495l-.025.336a1.951,1.951,0,0,1,1.134.361A1.318,1.318,0,0,1,370.731,271.149Zm-2.154-.34a.7.7,0,0,0-.314.181.408.408,0,0,0-.1.249.386.386,0,0,0,.067.26.579.579,0,0,0,.285.181Zm.24,3.339a.863.863,0,0,0,.439-.213.524.524,0,0,0,.159-.33.411.411,0,0,0-.09-.294.918.918,0,0,0-.424-.249Z" transform="translate(-338.141 -236.154)" fill="#fff"/>
    <path id="Path_53012" data-name="Path 53012" d="M256.048,161.67h.609l-.15,1.961H255.9Z" transform="translate(-247.514 -147.804)" fill="#de362e"/>
    <path id="Path_53013" data-name="Path 53013" d="M261.84,161.67h.565l.655,1.084.083-1.084h.571l-.15,1.961h-.571l-.652-1.084-.083,1.084h-.569Z" transform="translate(-252.259 -147.804)" fill="#de362e"/>
    <path id="Path_53014" data-name="Path 53014" d="M274.06,161.67h.634l.334,1.412.542-1.412h.614l-.87,1.961h-.656Z" transform="translate(-262.395 -147.804)" fill="#de362e"/>
    <path id="Path_53015" data-name="Path 53015" d="M285.538,162.492a1.1,1.1,0,0,1,.325-.748,1.083,1.083,0,0,1,.766-.267.959.959,0,0,1,.735.262.928.928,0,0,1,.208.737,1.251,1.251,0,0,1-.159.563.924.924,0,0,1-.361.343,1.165,1.165,0,0,1-.554.123,1.2,1.2,0,0,1-.542-.107.742.742,0,0,1-.327-.334A1.083,1.083,0,0,1,285.538,162.492Zm.607,0a.623.623,0,0,0,.078.428.345.345,0,0,0,.291.128.4.4,0,0,0,.311-.126.753.753,0,0,0,.143-.455.574.574,0,0,0-.081-.406.348.348,0,0,0-.293-.126.4.4,0,0,0-.305.13.7.7,0,0,0-.143.43Z" transform="translate(-271.794 -147.644)" fill="#de362e"/>
    <path id="Path_53016" data-name="Path 53016" d="M298.5,161.67h.607l-.148,1.961h-.609Z" transform="translate(-282.298 -147.804)" fill="#de362e"/>
    <path id="Path_53017" data-name="Path 53017" d="M305.473,162.673l.518.161a1.057,1.057,0,0,1-.2.372.786.786,0,0,1-.3.226,1.1,1.1,0,0,1-.441.078,1.214,1.214,0,0,1-.515-.094.723.723,0,0,1-.325-.327,1.041,1.041,0,0,1-.1-.6,1.094,1.094,0,0,1,.316-.749,1.053,1.053,0,0,1,.751-.26.93.93,0,0,1,.571.15.791.791,0,0,1,.28.459l-.542.119a.424.424,0,0,0-.049-.13.3.3,0,0,0-.116-.107.343.343,0,0,0-.163-.038.385.385,0,0,0-.329.166.731.731,0,0,0-.112.385.708.708,0,0,0,.065.448.316.316,0,0,0,.269.121.361.361,0,0,0,.271-.1A.677.677,0,0,0,305.473,162.673Z" transform="translate(-287.012 -147.647)" fill="#de362e"/>
    <path id="Path_53018" data-name="Path 53018" d="M316.043,161.67h1.625l-.031.419h-1.017l-.023.312h.937l-.031.4h-.943l-.031.386h1.047l-.034.444H315.89Z" transform="translate(-296.671 -147.804)" fill="#de362e"/>
    <path id="Path_53019" data-name="Path 53019" d="M272.443,184.338H254.83l.036-.488H272.48Z" transform="translate(-246.637 -165.965)" fill="#de362e"/>
    <path id="Path_53020" data-name="Path 53020" d="M271.918,186.55H254.306l-.116,1.5H271.8Z" transform="translate(-246.113 -168.174)" fill="#f0f0f0"/>
    <path id="Path_53021" data-name="Path 53021" d="M270.658,203.12H253.044l-.114,1.5h17.614Z" transform="translate(-245.081 -181.74)" fill="#f0f0f0"/>
    <path id="Path_53022" data-name="Path 53022" d="M269.4,219.68H251.784l-.114,1.5h17.613Z" transform="translate(-244.048 -195.298)" fill="#f0f0f0"/>
    <path id="Path_53023" data-name="Path 53023" d="M268.128,236.25H250.514l-.114,1.5h17.614Z" transform="translate(-243.007 -208.864)" fill="#f0f0f0"/>
    <path id="Path_53024" data-name="Path 53024" d="M267.174,253.3H249.56l.038-.489h17.614Z" transform="translate(-242.319 -222.424)" fill="#de362e"/>
    <path id="Path_53025" data-name="Path 53025" d="M335.186,136.08h3.66l-.166,2.183H335.02Z" transform="translate(-312.346 -126.853)" fill="#f0f0f0"/>
  </g>
  <g id="timer-1" transform="translate(41.495)">
    <path id="Path_53026" data-name="Path 53026" d="M11.616,4.648A8.37,8.37,0,1,0,19.9,13.023,8.336,8.336,0,0,0,11.616,4.648Zm.717,8.056a.717.717,0,1,1-1.434,0V7.881a.717.717,0,1,1,1.434,0Z" transform="translate(-3.33 -2.093)" fill="#333"/>
    <path id="Path_53027" data-name="Path 53027" d="M14.6,3.4H9.079A.689.689,0,0,1,8.391,2.7.7.7,0,0,1,9.079,2H14.6a.689.689,0,0,1,.688.695A.7.7,0,0,1,14.6,3.4Z" transform="translate(-3.554 -2)" fill="#333"/>
  </g>
  <rect id="Rectangle_16946" data-name="Rectangle 16946" width="6.772" height="1.447" rx="0.724" transform="translate(49.058 11.615)" fill="#fff"/>
  <rect id="Rectangle_16947" data-name="Rectangle 16947" width="7.859" height="1.447" rx="0.724" transform="translate(50.505 5.167) rotate(90)" fill="#fff"/>
</svg>
