<svg id="Invoice-rafiki" xmlns="http://www.w3.org/2000/svg" xmlns:xlink="http://www.w3.org/1999/xlink" width="118" height="118" viewBox="0 0 118 118">
  <defs>
    <clipPath id="clip-path">
      <rect id="Rectangle_16682" data-name="Rectangle 16682" width="118" height="118" fill="#fff" stroke="#707070" stroke-width="1"/>
    </clipPath>
  </defs>
  <g id="Mask_Group_41856" data-name="Mask Group 41856" clip-path="url(#clip-path)">
    <g id="Currency_Flatline" transform="translate(1.704 9.827)">
      <path id="Path_52029" data-name="Path 52029" d="M83.63,161.294a.21.21,0,0,1-.21-.21V96.23a.21.21,0,1,1,.419,0v64.855A.21.21,0,0,1,83.63,161.294Z" transform="translate(-72.15 -72.472)" fill="#d1d3d4"/>
      <path id="Path_52030" data-name="Path 52030" d="M143.71,161.294a.21.21,0,0,1-.21-.21V96.23a.21.21,0,1,1,.419,0v64.855A.21.21,0,0,1,143.71,161.294Z" transform="translate(-108.152 -72.472)" fill="rgba(51,51,51,0.11)"/>
      <path id="Path_52031" data-name="Path 52031" d="M203.71,161.294a.21.21,0,0,1-.21-.21V96.23a.21.21,0,1,1,.419,0v64.855A.21.21,0,0,1,203.71,161.294Z" transform="translate(-143.765 -72.472)" fill="#d1d3d4"/>
      <path id="Path_52032" data-name="Path 52032" d="M263.81,161.294a.21.21,0,0,1-.21-.21V96.23a.21.21,0,1,1,.419,0v64.855A.21.21,0,0,1,263.81,161.294Z" transform="translate(-179.438 -72.472)" fill="rgba(51,51,51,0.11)"/>
      <path id="Path_52033" data-name="Path 52033" d="M323.87,161.294a.21.21,0,0,1-.21-.21V96.23a.21.21,0,1,1,.419,0v64.855A.21.21,0,0,1,323.87,161.294Z" transform="translate(-215.326 -72.472)" fill="rgba(51,51,51,0.11)"/>
      <path id="Path_52034" data-name="Path 52034" d="M180.7,96.419H83.622a.21.21,0,0,1,0-.419H180.7a.21.21,0,0,1,0,.419Z" transform="translate(-72.15 -70.293)" fill="rgba(51,51,51,0.11)"/>
      <path id="Path_52035" data-name="Path 52035" d="M180.7,147.6H83.622a.21.21,0,0,1,0-.419H180.7a.21.21,0,0,1,0,.419Z" transform="translate(-72.15 -100.672)" fill="rgba(51,51,51,0.11)"/>
      <path id="Path_52036" data-name="Path 52036" d="M180.7,198.759H83.622a.21.21,0,0,1,0-.419H180.7a.21.21,0,0,1,0,.419Z" transform="translate(-72.15 -131.039)" fill="rgba(51,51,51,0.11)"/>
      <path id="Path_52037" data-name="Path 52037" d="M173.789,251.619H61.833a.206.206,0,0,1-.2-.21.211.211,0,0,1,.2-.21H173.789a.211.211,0,0,1,.2.21A.206.206,0,0,1,173.789,251.619Z" transform="translate(-59.492 -162.612)" fill="rgba(51,51,51,0.11)"/>
      <path id="Path_52038" data-name="Path 52038" d="M105.59,246.84v4.585c0,1.739,4.962,3.148,11.086,3.148s11.09-1.408,11.09-3.148V246.84Z" transform="translate(-85.788 -160.08)" fill="#fff"/>
      <path id="Path_52039" data-name="Path 52039" d="M116.345,254.492c-5.553,0-11.3-1.257-11.3-3.353V246.55a.21.21,0,0,1,.21-.21h22.192a.21.21,0,0,1,.21.21v4.585C127.662,253.235,121.915,254.492,116.345,254.492Zm-10.876-7.733v4.376c0,1.421,4.371,2.934,10.876,2.934s10.9-1.517,10.9-2.934v-4.376Z" transform="translate(-85.469 -159.789)" fill="#231f20"/>
      <ellipse id="Ellipse_1076" data-name="Ellipse 1076" cx="11.086" cy="3.143" rx="11.086" ry="3.143" transform="translate(19.802 83.617)" fill="#231f20"/>
      <path id="Path_52040" data-name="Path 52040" d="M116.38,245.521c-6.32,0-11.27-1.463-11.27-3.328s4.95-3.353,11.27-3.353,11.274,1.463,11.274,3.353S122.717,245.521,116.38,245.521Zm0-6.287c-6.522,0-10.9,1.534-10.9,2.963s4.38,2.959,10.9,2.959,10.9-1.53,10.9-2.959-4.359-2.967-10.9-2.967Z" transform="translate(-85.505 -155.433)" fill="#231f20"/>
      <path id="Path_52041" data-name="Path 52041" d="M100.18,230.11V234.7c0,1.735,4.962,3.143,11.086,3.143s11.09-1.408,11.09-3.143V230.11Z" transform="translate(-82.562 -150.362)" fill="#fff"/>
      <path id="Path_52042" data-name="Path 52042" d="M110.975,237.762c-5.553,0-11.3-1.257-11.3-3.353V229.82a.21.21,0,0,1,.21-.21h22.176a.21.21,0,0,1,.21.21v4.589C122.275,236.509,116.529,237.762,110.975,237.762ZM100.1,230.029v4.38c0,1.417,4.371,2.934,10.876,2.934s10.9-1.517,10.9-2.934v-4.38Z" transform="translate(-82.266 -150.071)" fill="#231f20"/>
      <ellipse id="Ellipse_1077" data-name="Ellipse 1077" cx="11.086" cy="3.143" rx="11.086" ry="3.143" transform="translate(17.618 76.605)" fill="#fff"/>
      <path id="Path_52043" data-name="Path 52043" d="M110.975,228.816c-5.553,0-11.3-1.257-11.3-3.353s5.742-3.353,11.3-3.353,11.316,1.257,11.316,3.353S116.529,228.816,110.975,228.816Zm0-6.287c-6.5,0-10.876,1.517-10.876,2.934s4.371,2.934,10.876,2.934,10.9-1.517,10.9-2.934S117.484,222.529,110.975,222.529Z" transform="translate(-82.266 -145.715)" fill="#231f20"/>
      <path id="Path_52044" data-name="Path 52044" d="M113.45,229.322c-4.724,0-9.51-.725-9.51-2.1s4.786-2.117,9.51-2.117,9.51.725,9.51,2.117S118.178,229.322,113.45,229.322Zm0-3.814c-5.633,0-9.091.989-9.091,1.7s3.458,1.676,9.091,1.676,9.091-.989,9.091-1.676S119.083,225.508,113.45,225.508Z" transform="translate(-84.781 -147.457)" fill="#d1d3d4"/>
      <path id="Path_52045" data-name="Path 52045" d="M167.71,248.81V253.4c0,1.739,4.967,3.148,11.09,3.148s11.086-1.408,11.086-3.148V248.81Z" transform="translate(-122.834 -161.224)" fill="#fff"/>
      <path id="Path_52046" data-name="Path 52046" d="M178.486,256.462c-5.553,0-11.316-1.257-11.316-3.353V248.52a.21.21,0,0,1,.21-.21h22.176a.21.21,0,0,1,.21.21V253.1C189.782,255.2,184.04,256.462,178.486,256.462Zm-10.9-7.733V253.1c0,1.417,4.371,2.934,10.9,2.934s10.9-1.521,10.9-2.934v-4.376Z" transform="translate(-122.52 -160.934)" fill="#231f20"/>
      <ellipse id="Ellipse_1078" data-name="Ellipse 1078" cx="11.086" cy="3.143" rx="11.086" ry="3.143" transform="translate(44.88 84.443)" fill="#231f20"/>
      <path id="Path_52047" data-name="Path 52047" d="M178.544,247.52c-6.32,0-11.274-1.463-11.274-3.328s4.954-3.332,11.274-3.332,11.27,1.463,11.27,3.332S184.865,247.52,178.544,247.52Zm0-6.287c-6.521,0-10.9,1.53-10.9,2.963s4.38,2.959,10.9,2.959,10.9-1.53,10.9-2.959-4.376-2.967-10.9-2.967Z" transform="translate(-122.579 -156.606)" fill="#231f20"/>
      <path id="Path_52048" data-name="Path 52048" d="M172,233v4.61c0,1.735,4.962,3.143,11.086,3.143s11.09-1.408,11.09-3.143V233Z" transform="translate(-125.393 -152.04)" fill="#fff"/>
      <path id="Path_52049" data-name="Path 52049" d="M182.746,240.673c-5.553,0-11.316-1.257-11.316-3.353v-4.61a.21.21,0,0,1,.21-.21h22.176a.21.21,0,0,1,.21.21v4.61C194.046,239.415,188.3,240.673,182.746,240.673Zm-10.9-7.733v4.38c0,1.417,4.371,2.934,10.9,2.934s10.9-1.517,10.9-2.934v-4.4Z" transform="translate(-125.061 -151.75)" fill="#231f20"/>
      <ellipse id="Ellipse_1079" data-name="Ellipse 1079" cx="11.086" cy="3.143" rx="11.086" ry="3.143" transform="translate(46.599 77.816)" fill="#231f20"/>
      <path id="Path_52050" data-name="Path 52050" d="M182.81,231.716c-6.32,0-11.27-1.463-11.27-3.328s4.95-3.328,11.27-3.328,11.274,1.459,11.274,3.328S189.131,231.716,182.81,231.716Zm0-6.287c-6.522,0-10.9,1.53-10.9,2.959s4.38,2.959,10.9,2.959,10.9-1.53,10.9-2.959S189.336,225.429,182.81,225.429Z" transform="translate(-125.125 -147.428)" fill="#231f20"/>
      <path id="Path_52051" data-name="Path 52051" d="M167.71,217.13v4.61c0,1.735,4.967,3.143,11.09,3.143s11.086-1.408,11.086-3.143v-4.61Z" transform="translate(-122.834 -142.822)" fill="#fff"/>
      <path id="Path_52052" data-name="Path 52052" d="M178.486,224.753c-5.553,0-11.316-1.257-11.316-3.353v-4.61a.214.214,0,0,1,.21-.21h22.176a.21.21,0,0,1,.21.21v4.61C189.782,223.5,184.04,224.753,178.486,224.753Zm-10.9-7.733v4.38c0,1.417,4.371,2.934,10.9,2.934s10.9-1.517,10.9-2.934v-4.38Z" transform="translate(-122.52 -142.502)" fill="#231f20"/>
      <ellipse id="Ellipse_1080" data-name="Ellipse 1080" cx="11.086" cy="3.143" rx="11.086" ry="3.143" transform="translate(44.88 71.747)" fill="#231f20"/>
      <path id="Path_52053" data-name="Path 52053" d="M178.544,215.821c-6.32,0-11.274-1.463-11.274-3.353s4.954-3.328,11.274-3.328,11.27,1.463,11.27,3.328S184.865,215.821,178.544,215.821Zm0-6.287c-6.521,0-10.9,1.53-10.9,2.959s4.38,2.959,10.9,2.959,10.9-1.53,10.9-2.959-4.376-2.963-10.9-2.963Z" transform="translate(-122.579 -137.602)" fill="#231f20"/>
      <path id="Path_52054" data-name="Path 52054" d="M176.24,204.16v4.585c0,1.739,4.967,3.148,11.09,3.148s11.086-1.408,11.086-3.148V204.16Z" transform="translate(-127.922 -134.669)" fill="#fff"/>
      <path id="Path_52055" data-name="Path 52055" d="M187.016,211.812c-5.553,0-11.316-1.257-11.316-3.353V203.87a.21.21,0,0,1,.21-.21h22.176a.21.21,0,0,1,.21.21v4.585C198.312,210.555,192.591,211.812,187.016,211.812Zm-10.9-7.733v4.376c0,1.417,4.371,2.934,10.9,2.934s10.9-1.521,10.9-2.934v-4.376Z" transform="translate(-127.607 -134.382)" fill="#231f20"/>
      <ellipse id="Ellipse_1081" data-name="Ellipse 1081" cx="11.086" cy="3.143" rx="11.086" ry="3.143" transform="translate(48.323 66.486)" fill="#231f20"/>
      <path id="Path_52056" data-name="Path 52056" d="M187.074,202.87c-6.325,0-11.274-1.463-11.274-3.328s4.95-3.332,11.274-3.332,11.27,1.463,11.27,3.332S193.395,202.87,187.074,202.87Zm0-6.287c-6.526,0-10.9,1.534-10.9,2.963s4.38,2.959,10.9,2.959,10.9-1.53,10.9-2.959-4.376-2.967-10.9-2.967Z" transform="translate(-127.666 -129.916)" fill="#231f20"/>
      <path id="Path_52057" data-name="Path 52057" d="M170.44,191.18v4.589c0,1.735,4.962,3.143,11.086,3.143s11.09-1.408,11.09-3.143V191.18Z" transform="translate(-124.463 -126.951)" fill="#fff"/>
      <path id="Path_52058" data-name="Path 52058" d="M181.235,198.832c-5.553,0-11.3-1.257-11.3-3.353V190.89a.21.21,0,0,1,.21-.21h22.176a.21.21,0,0,1,.21.21v4.589C192.535,197.579,186.789,198.832,181.235,198.832ZM170.359,191.1v4.38c0,1.417,4.371,2.934,10.876,2.934s10.9-1.517,10.9-2.934V191.1Z" transform="translate(-124.172 -126.664)" fill="#231f20"/>
      <ellipse id="Ellipse_1082" data-name="Ellipse 1082" cx="11.086" cy="3.143" rx="11.086" ry="3.143" transform="translate(45.978 61.221)" fill="#fff"/>
      <path id="Path_52059" data-name="Path 52059" d="M181.235,189.886c-5.553,0-11.3-1.257-11.3-3.353s5.742-3.353,11.3-3.353,11.316,1.257,11.316,3.353S186.789,189.886,181.235,189.886Zm0-6.287c-6.5,0-10.876,1.517-10.876,2.934s4.371,2.934,10.876,2.934,10.9-1.517,10.9-2.934S187.744,183.6,181.235,183.6Z" transform="translate(-124.172 -122.171)" fill="#231f20"/>
      <path id="Path_52060" data-name="Path 52060" d="M183.71,190.392c-4.723,0-9.51-.725-9.51-2.1s4.786-2.117,9.51-2.117,9.51.725,9.51,2.117S188.438,190.392,183.71,190.392Zm0-3.814c-5.633,0-9.091.989-9.091,1.7s3.458,1.676,9.091,1.676,9.091-.989,9.091-1.676S189.343,186.578,183.71,186.578Z" transform="translate(-126.648 -123.899)" fill="#d1d3d4"/>
      <path id="Path_52061" data-name="Path 52061" d="M269.906,242.78v4.589c0,1.735-4.962,3.143-11.086,3.143s-11.09-1.408-11.09-3.143V242.78Z" transform="translate(-171.22 -157.721)" fill="#fff"/>
      <path id="Path_52062" data-name="Path 52062" d="M258.506,250.432c-5.553,0-11.316-1.257-11.316-3.353V242.49a.21.21,0,0,1,.21-.21h22.176a.21.21,0,0,1,.21.21v4.589C269.8,249.174,264.06,250.432,258.506,250.432Zm-10.9-7.733v4.38c0,1.417,4.371,2.934,10.9,2.934s10.876-1.517,10.876-2.934V242.7Z" transform="translate(-170.906 -157.431)" fill="#231f20"/>
      <ellipse id="Ellipse_1083" data-name="Ellipse 1083" cx="11.086" cy="3.143" rx="11.086" ry="3.143" transform="translate(76.515 81.915)" fill="#231f20"/>
      <path id="Path_52063" data-name="Path 52063" d="M258.564,241.49c-6.32,0-11.274-1.463-11.274-3.328s4.954-3.332,11.274-3.332,11.27,1.463,11.27,3.332S264.885,241.49,258.564,241.49Zm0-6.287c-6.522,0-10.9,1.53-10.9,2.959s4.384,2.959,10.9,2.959,10.9-1.53,10.9-2.959S265.086,235.2,258.564,235.2Z" transform="translate(-170.964 -153.103)" fill="#231f20"/>
      <path id="Path_52064" data-name="Path 52064" d="M261.386,229.8v4.589c0,1.735-4.967,3.143-11.09,3.143s-11.086-1.408-11.086-3.143V229.8Z" transform="translate(-165.475 -150.182)" fill="#fff"/>
      <path id="Path_52065" data-name="Path 52065" d="M249.976,237.452c-5.553,0-11.316-1.257-11.316-3.353V229.51a.21.21,0,0,1,.21-.21h22.176a.21.21,0,0,1,.21.21V234.1C261.276,236.2,255.53,237.452,249.976,237.452Zm-10.9-7.733v4.38c0,1.417,4.371,2.934,10.9,2.934s10.9-1.517,10.9-2.934v-4.38Z" transform="translate(-165.159 -149.891)" fill="#231f20"/>
      <ellipse id="Ellipse_1084" data-name="Ellipse 1084" cx="11.086" cy="3.143" rx="11.086" ry="3.143" transform="translate(73.735 76.475)" fill="#231f20"/>
      <path id="Path_52066" data-name="Path 52066" d="M250.04,228.52c-6.32,0-11.27-1.463-11.27-3.332s4.95-3.328,11.27-3.328,11.274,1.463,11.274,3.328S256.361,228.52,250.04,228.52Zm0-6.287c-6.522,0-10.9,1.53-10.9,2.959s4.38,2.959,10.9,2.959,10.9-1.53,10.9-2.959-4.376-2.963-10.9-2.963Z" transform="translate(-165.223 -145.569)" fill="#231f20"/>
      <path id="Path_52067" data-name="Path 52067" d="M267.18,216.791v4.61c0,1.739-4.962,3.148-11.086,3.148S245,223.12,245,221.38v-4.61Z" transform="translate(-168.928 -142.613)" fill="#fff"/>
      <path id="Path_52068" data-name="Path 52068" d="M255.805,224.443c-5.549,0-11.3-1.257-11.3-3.353v-4.61a.21.21,0,0,1,.21-.21H266.9a.21.21,0,0,1,.21.21v4.61C267.1,223.19,261.359,224.443,255.805,224.443Zm-10.876-7.733v4.38c0,1.417,4.371,2.934,10.876,2.934s10.9-1.517,10.9-2.934v-4.38Z" transform="translate(-168.648 -142.322)" fill="#231f20"/>
      <ellipse id="Ellipse_1085" data-name="Ellipse 1085" cx="11.086" cy="3.143" rx="11.086" ry="3.143" transform="translate(76.08 71.621)" fill="#231f20"/>
      <path id="Path_52069" data-name="Path 52069" d="M255.84,215.511c-6.32,0-11.27-1.463-11.27-3.353s4.95-3.328,11.27-3.328,11.274,1.463,11.274,3.328S262.165,215.511,255.84,215.511Zm0-6.287c-6.521,0-10.9,1.53-10.9,2.959s4.38,2.963,10.9,2.963,10.9-1.53,10.9-2.963-4.384-2.963-10.9-2.963Z" transform="translate(-168.682 -137.418)" fill="#231f20"/>
      <path id="Path_52070" data-name="Path 52070" d="M268.116,202.13v4.585c0,1.739-4.962,3.148-11.086,3.148s-11.09-1.408-11.09-3.148V202.13Z" transform="translate(-169.489 -133.462)" fill="#fff"/>
      <path id="Path_52071" data-name="Path 52071" d="M256.716,209.782c-5.553,0-11.316-1.257-11.316-3.353V201.84a.21.21,0,0,1,.21-.21h22.176a.21.21,0,0,1,.21.21v4.585C268.012,208.524,262.265,209.782,256.716,209.782Zm-10.9-7.733v4.376c0,1.421,4.371,2.934,10.9,2.934s10.9-1.517,10.9-2.934v-4.376Z" transform="translate(-169.179 -133.175)" fill="#231f20"/>
      <ellipse id="Ellipse_1086" data-name="Ellipse 1086" cx="11.086" cy="3.143" rx="11.086" ry="3.143" transform="translate(76.456 65.663)" fill="#231f20"/>
      <path id="Path_52072" data-name="Path 52072" d="M256.774,200.84c-6.325,0-11.274-1.463-11.274-3.328s4.95-3.332,11.274-3.332,11.27,1.463,11.27,3.332S263.095,200.84,256.774,200.84Zm0-6.287c-6.526,0-10.9,1.534-10.9,2.963s4.38,2.959,10.9,2.959,10.9-1.53,10.9-2.959-4.359-2.967-10.9-2.967Z" transform="translate(-169.237 -128.709)" fill="#231f20"/>
      <path id="Path_52073" data-name="Path 52073" d="M262.926,187.8v4.585c0,1.739-4.967,3.148-11.09,3.148s-11.086-1.408-11.086-3.148V187.8Z" transform="translate(-166.393 -124.941)" fill="#fff"/>
      <path id="Path_52074" data-name="Path 52074" d="M251.545,195.452c-5.553,0-11.3-1.257-11.3-3.353V187.51a.21.21,0,0,1,.21-.21h22.176a.21.21,0,0,1,.21.21v4.585C262.845,194.195,257.1,195.452,251.545,195.452Zm-10.876-7.733v4.376c0,1.421,4.371,2.934,10.876,2.934s10.9-1.517,10.9-2.934v-4.376Z" transform="translate(-166.107 -124.654)" fill="#231f20"/>
      <ellipse id="Ellipse_1087" data-name="Ellipse 1087" cx="11.086" cy="3.143" rx="11.086" ry="3.143" transform="translate(74.357 59.85)" fill="#231f20"/>
      <path id="Path_52075" data-name="Path 52075" d="M251.58,186.481c-6.32,0-11.27-1.463-11.27-3.328s4.95-3.353,11.27-3.353,11.274,1.463,11.274,3.353S257.9,186.481,251.58,186.481Zm0-6.287c-6.522,0-10.9,1.534-10.9,2.963s4.38,2.959,10.9,2.959,10.9-1.53,10.9-2.959-4.376-2.967-10.9-2.967Z" transform="translate(-166.142 -120.161)" fill="#231f20"/>
      <path id="Path_52076" data-name="Path 52076" d="M269.906,173.1v4.568c0,1.739-4.962,3.148-11.086,3.148s-11.09-1.408-11.09-3.148V173.1Z" transform="translate(-171.22 -116.2)" fill="#fff"/>
      <path id="Path_52077" data-name="Path 52077" d="M258.506,180.752c-5.553,0-11.316-1.257-11.316-3.353V172.81a.21.21,0,0,1,.21-.21h22.176a.21.21,0,0,1,.21.21v4.568C269.8,179.495,264.06,180.752,258.506,180.752Zm-10.9-7.733v4.359c0,1.421,4.371,2.934,10.9,2.934s10.876-1.517,10.876-2.934v-4.359Z" transform="translate(-170.906 -115.912)" fill="#231f20"/>
      <ellipse id="Ellipse_1088" data-name="Ellipse 1088" cx="11.086" cy="3.143" rx="11.086" ry="3.143" transform="translate(76.515 53.887)" fill="#fff"/>
      <path id="Path_52078" data-name="Path 52078" d="M258.506,171.806c-5.553,0-11.316-1.257-11.316-3.353s5.746-3.353,11.316-3.353,11.3,1.257,11.3,3.353S264.06,171.806,258.506,171.806Zm0-6.287c-6.509,0-10.9,1.521-10.9,2.934s4.371,2.934,10.9,2.934,10.876-1.517,10.876-2.934-4.371-2.938-10.876-2.938Z" transform="translate(-170.906 -111.424)" fill="#231f20"/>
      <path id="Path_52079" data-name="Path 52079" d="M261.01,172.312c-4.728,0-9.51-.729-9.51-2.117s4.782-2.1,9.51-2.1,9.51.725,9.51,2.1S265.733,172.312,261.01,172.312Zm0-3.814c-5.633,0-9.091.989-9.091,1.676s3.458,1.7,9.091,1.7,9.091-.989,9.091-1.7S266.643,168.5,261.01,168.5Z" transform="translate(-172.71 -113.159)" fill="#d1d3d4"/>
      <path id="Path_52080" data-name="Path 52080" d="M142.592,131.647a8.068,8.068,0,0,1-1.408-1.945c-.084-.516-.184-2.3-.62-1.987s-.331,1.593-.331,1.593-1.806-2.163-2.339-1.676a2.239,2.239,0,0,0-.784,1.861c-.034.943,4.51,4.9,4.51,4.9" transform="translate(-104.404 -89.11)" fill="#fff"/>
      <path id="Path_52081" data-name="Path 52081" d="M141.322,134.264a.21.21,0,0,1-.138-.05c-.771-.671-4.61-4.07-4.581-5.063a2.452,2.452,0,0,1,.838-2.012.511.511,0,0,1,.377-.113c.545.042,1.379.859,1.882,1.4a1.674,1.674,0,0,1,.419-1.2.352.352,0,0,1,.356-.046c.306.134.419.687.553,1.8a1.864,1.864,0,0,0,.046.369,7.8,7.8,0,0,0,1.354,1.836.214.214,0,0,1,0,.3.21.21,0,0,1-.3,0,7.393,7.393,0,0,1-1.459-2.054c0-.092-.029-.231-.05-.386a5.958,5.958,0,0,0-.277-1.433,2.4,2.4,0,0,0-.214,1.375.2.2,0,0,1-.126.21.205.205,0,0,1-.243-.059c-.528-.633-1.534-1.651-1.97-1.676h-.067a2.017,2.017,0,0,0-.713,1.71c-.021.528,2.238,2.816,4.439,4.732a.205.205,0,0,1,0,.293A.189.189,0,0,1,141.322,134.264Z" transform="translate(-104.103 -88.797)" fill="#231f20"/>
      <path id="Path_52082" data-name="Path 52082" d="M143.729,133.475a.205.205,0,0,1-.193-.126,2.125,2.125,0,0,1,.147-2.029.218.218,0,0,1,.293-.05.214.214,0,0,1,.046.293h0a1.714,1.714,0,0,0-.1,1.614.205.205,0,0,1-.1.277A.222.222,0,0,1,143.729,133.475Z" transform="translate(-108.063 -91.231)" fill="#231f20"/>
      <path id="Path_52083" data-name="Path 52083" d="M195.3,236.838a12.757,12.757,0,0,0,0,1.609,5.713,5.713,0,0,1,.419,1.538c-.059.31-3.479,5.738-4.334,4.879s1.333-4.82,1.333-5.231-.272-2.8-.272-2.8Z" transform="translate(-136.518 -154.265)" fill="#fff"/>
      <path id="Path_52084" data-name="Path 52084" d="M191.319,244.892a.516.516,0,0,1-.373-.151c-.666-.666.046-2.485.9-4.451a7.394,7.394,0,0,0,.373-.93c0-.31-.176-1.949-.272-2.775a.214.214,0,0,1,.21-.235h2.854a.2.2,0,0,1,.151.067.2.2,0,0,1,.059.155,10.691,10.691,0,0,0,0,1.53,1.018,1.018,0,0,0,.05.151,3.751,3.751,0,0,1,.365,1.5c-.088.386-2.821,4.736-4.12,5.113A.748.748,0,0,1,191.319,244.892Zm1.069-8.123c.071.62.247,2.251.247,2.594a4.289,4.289,0,0,1-.419,1.094c-.486,1.127-1.5,3.47-.985,3.986a.145.145,0,0,0,.134.021c1.06-.243,3.73-4.455,3.856-4.816a4.312,4.312,0,0,0-.348-1.257,1.158,1.158,0,0,1-.059-.163,7.891,7.891,0,0,1,0-1.463Z" transform="translate(-136.225 -153.986)" fill="#231f20"/>
      <path id="Path_52085" data-name="Path 52085" d="M177.2,237.4a18.569,18.569,0,0,0,0,2.8,4.216,4.216,0,0,1,.306,1.4c-.071.31-4.271,4-4.476,3.353s1.5-3.273,1.538-3.739-.545-4.053-.545-4.053Z" transform="translate(-125.719 -154.463)" fill="#fff"/>
      <path id="Path_52086" data-name="Path 52086" d="M172.887,244.946a.318.318,0,0,1-.323-.222c-.142-.448.314-1.383.977-2.649a7.573,7.573,0,0,0,.549-1.169c.025-.323-.31-2.569-.545-4a.222.222,0,0,1,.055-.176.213.213,0,0,1,.168-.067l3.181.239a.21.21,0,0,1,.193.222,17.568,17.568,0,0,0,0,2.737c.038.134.08.272.122.419a2.44,2.44,0,0,1,.189,1.09c-.08.36-3.7,3.55-4.535,3.588Zm1.1-7.85c.142.88.536,3.424.507,3.843a5.363,5.363,0,0,1-.6,1.333,8.82,8.82,0,0,0-.964,2.247,19.24,19.24,0,0,0,4.095-3.282,2.839,2.839,0,0,0-.189-.838q-.071-.214-.126-.419a15.533,15.533,0,0,1,0-2.661Z" transform="translate(-125.445 -154.166)" fill="#231f20"/>
      <path id="Path_52087" data-name="Path 52087" d="M248.38,135.559a8.128,8.128,0,0,0,1.48-1.89c.1-.511.277-2.293.7-1.962s.268,1.605.268,1.605,1.89-2.1,2.4-1.605a2.246,2.246,0,0,1,.717,1.886c0,.939-4.694,4.719-4.694,4.719" transform="translate(-170.513 -91.529)" fill="#fff"/>
      <path id="Path_52088" data-name="Path 52088" d="M248.943,138.181a.21.21,0,0,1-.163-.075.214.214,0,0,1,.029-.3c2.272-1.823,4.61-4.028,4.61-4.556a2.056,2.056,0,0,0-.65-1.735h-.063c-.44,0-1.48,1-2.037,1.609a.205.205,0,0,1-.243.05.214.214,0,0,1-.122-.214,2.363,2.363,0,0,0-.155-1.383,6.093,6.093,0,0,0-.335,1.421c-.025.159-.046.293-.063.386a7.338,7.338,0,0,1-1.538,2,.21.21,0,0,1-.3,0,.214.214,0,0,1,0-.3,7.352,7.352,0,0,0,1.425-1.781c0-.088.038-.214.059-.365.176-1.111.31-1.676.62-1.781a.344.344,0,0,1,.356.059,1.641,1.641,0,0,1,.377,1.215c.524-.524,1.391-1.312,1.936-1.333a.482.482,0,0,1,.369.13,2.452,2.452,0,0,1,.779,2.041c0,.993-3.977,4.242-4.774,4.883a.189.189,0,0,1-.122.029Z" transform="translate(-170.212 -91.216)" fill="#231f20"/>
      <path id="Path_52089" data-name="Path 52089" d="M175.283,175.88l13.412.7s.838,3.671-1.459,5.495-6.924,3.709-7.2,5.029,1.387,12.875,1.207,15.608l-4.12.977s-3.554-13.793-3.466-16.069a4.9,4.9,0,0,1,1.278-3.353s-3.282,2.812-3.374,3.449,2.355,15.273,2.355,15.273-4.35.172-4.439-.1-4.112-13.8-3.11-16.715S175.283,175.88,175.283,175.88Z" transform="translate(-121.947 -118.861)" fill="#231f20"/>
      <path id="Path_52090" data-name="Path 52090" d="M176.845,203.633a.184.184,0,0,1-.18-.138c-.142-.562-3.558-13.831-3.47-16.124a6.053,6.053,0,0,1,.524-2.276,11.248,11.248,0,0,0-2.251,2.4c-.054.495,1.379,9.367,2.355,15.21a.2.2,0,0,1-.042.151.205.205,0,0,1-.134.067c-4.489.176-4.577-.088-4.61-.23s-4.149-13.831-3.11-16.836c1.006-2.934,8.655-10.059,8.982-10.373a.176.176,0,0,1,.134-.046l13.412.7a.193.193,0,0,1,.172.147c.034.155.817,3.806-1.521,5.679a28.815,28.815,0,0,1-3.449,2.184c-1.739,1-3.537,2.029-3.684,2.749a56.007,56.007,0,0,0,.536,6.9,81.841,81.841,0,0,1,.671,8.688.184.184,0,0,1-.142.168l-4.12.977Zm-2.184-19.8a.184.184,0,0,1,.138.063.189.189,0,0,1,0,.26,4.846,4.846,0,0,0-1.22,3.227c-.08,2.1,3.005,14.25,3.416,15.843l3.806-.9c.063-1.5-.327-5.206-.675-8.491a51.751,51.751,0,0,1-.532-7.008c.184-.889,1.89-1.865,3.868-3a28.7,28.7,0,0,0,3.4-2.15c1.92-1.538,1.534-4.5,1.417-5.172l-13.2-.692c-.717.671-7.892,7.456-8.823,10.168-.956,2.775,2.8,15.566,3.089,16.543a28.144,28.144,0,0,0,4.065.042c-.369-2.23-2.41-14.5-2.318-15.122s2.875-3.085,3.433-3.563A.193.193,0,0,1,174.661,183.834Zm-5.285,18.743Z" transform="translate(-121.685 -118.604)" fill="#231f20"/>
      <path id="Path_52091" data-name="Path 52091" d="M176.971,148.215s-.8-5.8-1.551-8.8c0,0,2.23,3.889,4.9,4.107s10.516-8.827,10.516-8.827l-2.2-3.118s-5.495,4.338-8.663,5.708c-.838-1.915-5.687-8.8-8.487-10.18s-6.379-.293-8.294,1.257a71.522,71.522,0,0,0-7.544,6.01,34.587,34.587,0,0,1-8.487-4.4L145,133.026s8.8,8.131,11.22,6.92l5.6-2.812-.3,10.956Z" transform="translate(-109.726 -88.711)" fill="#de362e"/>
      <path id="Path_52092" data-name="Path 52092" d="M189.566,106.291s-2.272,6.5-3.286,7.859l5.9,2.209,1.106-10.478Z" transform="translate(-133.64 -76.264)" fill="#fff"/>
      <path id="Path_52093" data-name="Path 52093" d="M191.884,116.281a.239.239,0,0,1-.075,0l-5.9-2.209a.218.218,0,0,1-.126-.138.193.193,0,0,1,.033-.184c.981-1.316,3.231-7.737,3.257-7.8a.205.205,0,0,1,.172-.138l3.722-.419a.205.205,0,0,1,.172.059.209.209,0,0,1,.059.172L192.089,116.1a.2.2,0,0,1-.1.155A.209.209,0,0,1,191.884,116.281Zm-5.574-2.515,5.394,2.02,1.052-9.958-3.328.377a62.33,62.33,0,0,1-3.118,7.553Z" transform="translate(-133.346 -75.975)" fill="#231f20"/>
      <path id="Path_52094" data-name="Path 52094" d="M194.095,115.069l-.666,2.9a1.338,1.338,0,0,0,1.588,1.656,3.877,3.877,0,0,0,2.854-1.71l.78-5.281c.034-.222.352-2.406.75-4.321-2.23-.461-4.191-1.027-4.191-1.027.18.26-.625.142-.625.147a3.353,3.353,0,0,0-1.086-.042,34.6,34.6,0,0,0-1.194,3.889,12.734,12.734,0,0,0-.205,2.326C192.125,115.09,194.095,115.069,194.095,115.069Z" transform="translate(-137.103 -77.126)" fill="#fff"/>
      <path id="Path_52095" data-name="Path 52095" d="M194.506,119.538a1.538,1.538,0,0,1-1.2-.453,1.828,1.828,0,0,1-.335-1.438l.616-2.687c-.775-.059-1.928-.448-1.949-1.643a12.6,12.6,0,0,1,.205-2.355,15.267,15.267,0,0,1,.742-2.548c.159-.453.323-.918.457-1.366a.189.189,0,0,1,.155-.134,3.668,3.668,0,0,1,1.148.038,2.093,2.093,0,0,0,.419,0,.21.21,0,0,1,.034-.084.193.193,0,0,1,.2-.075c.021,0,1.982.57,4.191,1.023a.168.168,0,0,1,.122.084.189.189,0,0,1,.029.143c-.348,1.676-.633,3.546-.742,4.279l-.788,5.314a.129.129,0,0,1-.025.067,4.019,4.019,0,0,1-3,1.8Zm-1.161-1.811a1.467,1.467,0,0,0,.251,1.1,1.3,1.3,0,0,0,1.136.314,3.705,3.705,0,0,0,2.687-1.584c.075-.486.767-5.189.775-5.239.109-.746.381-2.515.712-4.149-1.727-.36-3.278-.78-3.818-.93-.067.071-.235.168-.8.092a3.272,3.272,0,0,0-.914-.054c-.13.419-.281.838-.419,1.257a15.4,15.4,0,0,0-.746,2.49,12.249,12.249,0,0,0-.2,2.288c.025,1.257,1.731,1.257,1.806,1.257a.18.18,0,0,1,.151.071.189.189,0,0,1,.034.163l-.666,2.9Z" transform="translate(-136.836 -76.832)" fill="#231f20"/>
      <path id="Path_52096" data-name="Path 52096" d="M197.977,115.1s-1.257,1.257-1.065,1.568.863.251.863.251" transform="translate(-139.853 -81.645)" fill="#fff"/>
      <path id="Path_52097" data-name="Path 52097" d="M197.379,116.891c-.247,0-.733-.042-.926-.356s.189-.9,1.09-1.823a.21.21,0,1,1,.3.293,4.518,4.518,0,0,0-1.023,1.345c.063.088.419.13.658.117a.214.214,0,0,1,.222.193.21.21,0,0,1-.2.226Z" transform="translate(-139.569 -81.382)" fill="#231f20"/>
      <ellipse id="Ellipse_1089" data-name="Ellipse 1089" cx="0.319" cy="0.172" rx="0.319" ry="0.172" transform="translate(56.807 33.219) rotate(-77.06)" fill="#231f20"/>
      <ellipse id="Ellipse_1090" data-name="Ellipse 1090" cx="0.319" cy="0.172" rx="0.319" ry="0.172" transform="translate(59.11 33.87) rotate(-77.06)" fill="#231f20"/>
      <path id="Path_52098" data-name="Path 52098" d="M194.495,105.393l.314-.6.222.713,1.873.557.52-.775-.055,1.048.985.1s-1.857,4.61-1.785,7.5c0,0,5.566,1.538,7.008.545,0,0-1.58-5.7-1.509-7.963s-.063-4.216-2.77-5.264-4.661-.717-6.081.52a4.191,4.191,0,0,0-1.366,3.026S193.929,105.356,194.495,105.393Z" transform="translate(-137.029 -73.18)" fill="#fff"/>
      <path id="Path_52099" data-name="Path 52099" d="M201.572,114.752a25.378,25.378,0,0,1-5.394-.88.2.2,0,0,1-.155-.2c-.063-2.515,1.308-6.287,1.677-7.326l-.713-.071a.205.205,0,0,1-.184-.218v-.293l-.1.147a.205.205,0,0,1-.231.084l-1.873-.557a.214.214,0,0,1-.142-.138l-.071-.226-.08.151a.205.205,0,0,1-.205.113c-.574-.054-2.594-.591-2.678-.616a.205.205,0,0,1-.155-.2,4.354,4.354,0,0,1,1.442-3.19c1.576-1.375,3.692-1.563,6.287-.557,2.812,1.09,2.98,3.122,2.9,5.449-.071,2.226,1.488,7.859,1.5,7.913a.222.222,0,0,1-.084.231A3.353,3.353,0,0,1,201.572,114.752Zm-5.134-1.257c1.576.419,5.327,1.215,6.559.6-.26-.947-1.542-5.78-1.475-7.884.071-2.259-.08-4.07-2.636-5.059-2.477-.96-4.4-.8-5.868.482a3.994,3.994,0,0,0-1.291,2.708c.453.117,1.748.453,2.314.541l.247-.474a.205.205,0,0,1,.2-.113.214.214,0,0,1,.184.147l.189.608,1.618.478.419-.645a.211.211,0,0,1,.386.126l-.046.838.788.08a.218.218,0,0,1,.155.1.2.2,0,0,1,0,.189C198.194,106.29,196.438,110.7,196.438,113.495Z" transform="translate(-136.691 -72.897)" fill="#231f20"/>
      <path id="Path_52100" data-name="Path 52100" d="M194.5,120.04a1.715,1.715,0,0,0,2.825-.08" transform="translate(-138.459 -84.52)" fill="#fff"/>
      <path id="Path_52101" data-name="Path 52101" d="M195.618,120.7a2.305,2.305,0,0,1-1.588-.813.21.21,0,1,1,.319-.268,1.941,1.941,0,0,0,1.257.662h.05a1.622,1.622,0,0,0,1.207-.738.21.21,0,1,1,.331.26,2.024,2.024,0,0,1-1.534.9Z" transform="translate(-138.147 -84.226)" fill="#231f20"/>
      <path id="Path_52102" data-name="Path 52102" d="M196.151,125.234a6.032,6.032,0,0,0,2.217-.444,5.674,5.674,0,0,1-2.729,2.67Z" transform="translate(-139.134 -87.409)" fill="#231f20"/>
      <path id="Path_52103" data-name="Path 52103" d="M195.348,127.378a.208.208,0,0,1-.205-.256l.511-2.226a.205.205,0,0,1,.2-.159,5.825,5.825,0,0,0,2.1-.419.21.21,0,0,1,.3.268,5.886,5.886,0,0,1-2.846,2.775.213.213,0,0,1-.054.017Zm.679-2.23-.386,1.676a5.34,5.34,0,0,0,1.962-1.9,8.144,8.144,0,0,1-1.576.222Z" transform="translate(-138.842 -87.117)" fill="#231f20"/>
      <path id="Path_52104" data-name="Path 52104" d="M253.985,137.37a.185.185,0,0,1-.092,0,.21.21,0,0,1-.1-.281,1.7,1.7,0,0,0-.042-1.618.21.21,0,0,1,.063-.289.205.205,0,0,1,.289.063,2.1,2.1,0,0,1,.067,2.029.206.206,0,0,1-.189.1Z" transform="translate(-173.58 -93.554)" fill="#231f20"/>
      <path id="Path_52105" data-name="Path 52105" d="M213.826,152.727s-2.515-3.206-4.116-5.2" transform="translate(-147.513 -100.954)" fill="#fff"/>
      <path id="Path_52106" data-name="Path 52106" d="M213.535,152.648a.21.21,0,0,1-.168-.08c-.025-.029-2.515-3.227-4.112-5.193a.21.21,0,0,1,.327-.264c1.588,1.97,4.091,5.168,4.116,5.2a.21.21,0,0,1-.038.293A.205.205,0,0,1,213.535,152.648Z" transform="translate(-147.222 -100.666)" fill="#231f20"/>
      <line id="Line_960" data-name="Line 960" x1="0.335" y2="13.349" transform="translate(52.022 44.585)" fill="#fff"/>
      <path id="Path_52107" data-name="Path 52107" d="M184.241,156.227h0a.21.21,0,0,1-.2-.218l.335-13.349a.21.21,0,1,1,.419,0l-.335,13.349a.214.214,0,0,1-.218.218Z" transform="translate(-132.219 -98.084)" fill="#231f20"/>
      <circle id="Ellipse_1091" data-name="Ellipse 1091" cx="14.665" cy="14.665" r="14.665" transform="translate(61.661)" fill="#ffd200"/>
      <path id="Path_52108" data-name="Path 52108" d="M227.266,62.871a12.616,12.616,0,1,1,12.616-12.616A12.616,12.616,0,0,1,227.266,62.871Zm0-24.812a12.2,12.2,0,1,0,12.2,12.2,12.2,12.2,0,0,0-12.2-12.2Z" transform="translate(-150.907 -35.59)" fill="#fff"/>
      <circle id="Ellipse_1092" data-name="Ellipse 1092" cx="14.665" cy="14.665" r="14.665" transform="translate(25.646)" fill="#ffd200"/>
      <path id="Path_52109" data-name="Path 52109" d="M142.87,56.321a3.519,3.519,0,0,0,.228-2.746h1.763V52.111c-.694,0-1.37-.025-2.042,0a.571.571,0,0,1-.634-.393,2.647,2.647,0,0,1,.453-3.17,2.018,2.018,0,0,1,3.123.082,12.679,12.679,0,0,1,.824,1.268c.082.133.143.276.219.422l1.9-.831c-.247-.444-.469-.878-.72-1.29a4.813,4.813,0,0,0-1.9-1.877,3.988,3.988,0,0,0-4.439.431,4.331,4.331,0,0,0-1.794,4.258c.044.355.149.7.235,1.084H138.72v1.468h1.95c.073,0,.19.019.212.067a1.831,1.831,0,0,1,.3,1.268,3.427,3.427,0,0,1-2.054,2.406l-.133.07.675,1.832c.111-.041.2-.067.279-.1.358-.165.707-.352,1.072-.5a3.33,3.33,0,0,1,2.692-.07c.228.1.46.193.691.292a3.974,3.974,0,0,0,3.8-.561c-.314-.647-.6-1.281-.888-1.915-.159.1-.285.181-.418.25a2.264,2.264,0,0,1-1.867.317A7.452,7.452,0,0,0,142.87,56.321Z" transform="translate(-103.831 -38.202)" fill="#fff"/>
      <path id="Path_52110" data-name="Path 52110" d="M137.771,62.871a12.616,12.616,0,1,1,12.62-12.617A12.616,12.616,0,0,1,137.771,62.871Zm0-24.812a12.2,12.2,0,1,0,12.2,12.2,12.2,12.2,0,0,0-12.2-12.2Z" transform="translate(-97.493 -35.59)" fill="#fff"/>
      <circle id="Ellipse_1093" data-name="Ellipse 1093" cx="14.665" cy="14.665" r="14.665" transform="translate(0 22.419)" fill="#ffd200"/>
      <path id="Path_52111" data-name="Path 52111" d="M84.822,107.822a16.664,16.664,0,0,0-1.517-.723.23.23,0,0,1-.164-.242v-2.67a1.08,1.08,0,0,1,.019-.115,3.849,3.849,0,0,1,1.687,1.082c.437-.506.847-.986,1.265-1.473a5.142,5.142,0,0,0-2.791-1.613c-.155-.034-.2-.09-.2-.248v-.971H81.51v1.1a11.577,11.577,0,0,0-1.241.434,3.114,3.114,0,0,0-1.92,2.77A2.937,2.937,0,0,0,80,107.993a14.378,14.378,0,0,0,1.362.645.223.223,0,0,1,.164.242v3.151a4.321,4.321,0,0,1-2.249-1.21l-1.39,1.52a5.921,5.921,0,0,0,3.623,1.706v.93h1.628v-.989l.233-.059a4.727,4.727,0,0,0,1.39-.571A3.244,3.244,0,0,0,84.822,107.822ZM81.5,106.272a1.259,1.259,0,0,1-.968-1.163,1.1,1.1,0,0,1,.968-1.058Zm1.656,5.62c0-.043-.016-.087-.016-.13v-2.317a1.256,1.256,0,0,1,.974,1.241,1.241,1.241,0,0,1-.958,1.216Z" transform="translate(-67.452 -70.894)" fill="#fff"/>
      <path id="Path_52112" data-name="Path 52112" d="M74.036,118.761a12.616,12.616,0,1,1,12.616-12.616A12.616,12.616,0,0,1,74.036,118.761Zm0-24.812a12.2,12.2,0,1,0,12.2,12.2A12.2,12.2,0,0,0,74.036,93.949Z" transform="translate(-59.37 -69.088)" fill="#fff"/>
      <circle id="Ellipse_1094" data-name="Ellipse 1094" cx="14.665" cy="14.665" r="14.665" transform="translate(87.307 22.419)" fill="#ffd200"/>
      <path id="Path_52113" data-name="Path 52113" d="M291,118.761a12.616,12.616,0,1,1,12.616-12.616A12.616,12.616,0,0,1,291,118.761Zm0-24.812a12.2,12.2,0,1,0,12.2,12.2A12.2,12.2,0,0,0,291,93.949Z" transform="translate(-189.023 -69.088)" fill="#fff"/>
      <text id="LE" transform="translate(75.806 17.039)" fill="#fff" font-size="11" font-family="CeraGR-Bold, CeraGR ☞" font-weight="700"><tspan x="-6" y="0">LE</tspan></text>
      <text id="ر.س" transform="translate(101.145 36.484)" fill="#fff" font-size="10" font-family="CeraGR-Bold, CeraGR ☞" font-weight="700"><tspan x="-9" y="0">.</tspan><tspan y="0" font-family="SegoeUI-Bold, Segoe UI">ر.</tspan></text>
    </g>
  </g>
</svg>
