<svg id="liability" xmlns="http://www.w3.org/2000/svg" width="54.204" height="54.203" viewBox="0 0 54.204 54.203">
  <path id="Path_52990" data-name="Path 52990" d="M56.756,5.512A2.756,2.756,0,1,1,58.7,4.706,2.756,2.756,0,0,1,56.756,5.512Zm0-3.675a.919.919,0,1,0,.65.268A.919.919,0,0,0,56.756,1.837Z" transform="translate(-5.309 0)" fill="#cfcfcf"/>
  <path id="Path_52991" data-name="Path 52991" d="M49.26,4.863l1.911-1.911a1.837,1.837,0,0,1,2.6,0l2.6,2.6a1.837,1.837,0,0,1,0,2.6L54.46,10.063Z" transform="translate(-4.924 -0.196)" fill="#333"/>
  <path id="Path_52992" data-name="Path 52992" d="M40.7,31.47a14.24,14.24,0,1,0-12.972-7.441Z" transform="translate(-3.033 -0.243)" fill="#de362e"/>
  <circle id="Ellipse_1129" data-name="Ellipse 1129" cx="4.673" cy="4.673" r="4.673" transform="translate(0 11.215)" fill="#9e9e9e"/>
  <path id="Path_52993" data-name="Path 52993" d="M40.663,54.1a2.756,2.756,0,0,1-2.591,1.81,2.848,2.848,0,0,1-.946-.165L27.021,52.07a2.74,2.74,0,0,1-1.764-2.095l-1.212-6.661a.919.919,0,0,0-1.026-.747l-8.145,1.089a.919.919,0,0,0-.735.582l-3.811,9.909A2.756,2.756,0,0,1,7.756,55.91a2.706,2.706,0,0,1-.992-.184,2.763,2.763,0,0,1-1.58-3.564L9.777,40.219a2.748,2.748,0,0,1,2.2-1.736l7.767-1.038A.919.919,0,0,0,20.377,36L12.855,25.345a2.756,2.756,0,0,1,3.353-4.116l21.13,9.187a2.756,2.756,0,0,1-2.2,5.053l-12.1-5.264,5.347,7.579a2.807,2.807,0,0,1,.459,1.093L30.3,46.912a.919.919,0,0,0,.591.7l8.13,2.953A2.762,2.762,0,0,1,40.663,54.1Z" transform="translate(-1.325 -1.707)" fill="#9e9e9e"/>
  <path id="Path_52994" data-name="Path 52994" d="M47.237,12.789l.066-.066a.919.919,0,1,0-1.3-1.3l-.066.066a4.593,4.593,0,0,0-6.365,6.365L35.729,21.7a2.72,2.72,0,0,1,.531-3.129.919.919,0,1,0-1.3-1.3,4.593,4.593,0,0,0-.584,5.78l-.065.065a.919.919,0,1,0,1.3,1.3l.065-.065a4.593,4.593,0,0,0,6.365-6.365l3.844-3.844a2.756,2.756,0,0,1-.529,3.129.919.919,0,1,0,1.3,1.3,4.6,4.6,0,0,0,.583-5.781Zm-5.781.583a2.756,2.756,0,0,1,3.129-.529L40.927,16.5a2.756,2.756,0,0,1,.529-3.129Zm-.491,7.146a2.736,2.736,0,0,1-.808,1.949,2.826,2.826,0,0,1-3.124.522l3.655-3.651a2.734,2.734,0,0,1,.276,1.181Z" transform="translate(-3.652 -0.872)" fill="#fff"/>
  <path id="Path_52995" data-name="Path 52995" d="M26.246,33.746l-5.971-2.554A.919.919,0,1,1,21,29.51l3.225,1.378Z" transform="translate(-2.516 -2.391)" fill="#848484"/>
</svg>
