<svg xmlns="http://www.w3.org/2000/svg" xmlns:xlink="http://www.w3.org/1999/xlink" width="20" height="20" viewBox="0 0 20 20">
  <defs>
    <clipPath id="clip-path">
      <rect id="Rectangle_17276" data-name="Rectangle 17276" width="20" height="20" transform="translate(26 12)" fill="#fff"/>
    </clipPath>
  </defs>
  <g id="Mask_Group_41909" data-name="Mask Group 41909" transform="translate(-26 -12)" clip-path="url(#clip-path)">
    <g id="user-remove" transform="translate(23.648 10.75)">
      <path id="Path_53545" data-name="Path 53545" d="M11.6,11.959A5.355,5.355,0,1,1,16.959,6.6,5.361,5.361,0,0,1,11.6,11.959Zm0-9.312A3.958,3.958,0,1,0,15.562,6.6,3.966,3.966,0,0,0,11.6,2.647Z" transform="translate(-0.255)" fill="#fff"/>
      <path id="Path_53546" data-name="Path 53546" d="M3.359,22.165a.7.7,0,0,1-.7-.7c0-3.976,3.9-7.217,8.7-7.217a10.145,10.145,0,0,1,2.756.372.7.7,0,1,1-.372,1.341,8.816,8.816,0,0,0-2.384-.317c-4.023,0-7.3,2.607-7.3,5.82A.7.7,0,0,1,3.359,22.165Z" transform="translate(0 -0.915)" fill="#fff"/>
      <path id="Icon_ionic-ios-settings" data-name="Icon ionic-ios-settings" d="M12.9,9.077a1.178,1.178,0,0,1,.756-1.1,4.669,4.669,0,0,0-.565-1.361,1.194,1.194,0,0,1-.479.1,1.175,1.175,0,0,1-1.075-1.654A4.655,4.655,0,0,0,10.176,4.5a1.177,1.177,0,0,1-2.2,0,4.669,4.669,0,0,0-1.361.565A1.175,1.175,0,0,1,5.542,6.719a1.155,1.155,0,0,1-.479-.1A4.772,4.772,0,0,0,4.5,7.98a1.178,1.178,0,0,1,0,2.2,4.669,4.669,0,0,0,.565,1.361,1.176,1.176,0,0,1,1.552,1.552,4.7,4.7,0,0,0,1.361.565,1.175,1.175,0,0,1,2.193,0,4.669,4.669,0,0,0,1.361-.565,1.177,1.177,0,0,1,1.552-1.552,4.7,4.7,0,0,0,.565-1.361A1.184,1.184,0,0,1,12.9,9.077Zm-3.8,1.9a1.907,1.907,0,1,1,1.907-1.907A1.907,1.907,0,0,1,9.1,10.982Z" transform="translate(8.388 7.438)" fill="#fff"/>
    </g>
  </g>
</svg>
