<svg xmlns="http://www.w3.org/2000/svg" xmlns:xlink="http://www.w3.org/1999/xlink" width="20" height="20" viewBox="0 0 20 20">
  <defs>
    <clipPath id="clip-path">
      <rect id="Rectangle_17264" data-name="Rectangle 17264" width="20" height="20" transform="translate(26 101)" fill="#fff"/>
    </clipPath>
  </defs>
  <g id="Mask_Group_41904" data-name="Mask Group 41904" transform="translate(-26 -101)" clip-path="url(#clip-path)">
    <g id="Group_44667" data-name="Group 44667" transform="translate(0 -125)">
      <path id="Rectangle_17239" data-name="Rectangle 17239" d="M4,1.25A2.753,2.753,0,0,0,1.25,4v8A2.753,2.753,0,0,0,4,14.75H16A2.753,2.753,0,0,0,18.75,12V4A2.753,2.753,0,0,0,16,1.25H4M4,0H16a4,4,0,0,1,4,4v8a4,4,0,0,1-4,4H4a4,4,0,0,1-4-4V4A4,4,0,0,1,4,0Z" transform="translate(26 228)" fill="#fff"/>
      <path id="Line_1048" data-name="Line 1048" d="M0,7.625A.625.625,0,0,1-.625,7V0A.625.625,0,0,1,0-.625.625.625,0,0,1,.625,0V7A.625.625,0,0,1,0,7.625Z" transform="translate(39.5 232.5)" fill="#fff"/>
      <path id="Line_1049" data-name="Line 1049" d="M0,5.625A.625.625,0,0,1-.625,5V0A.625.625,0,0,1,0-.625.625.625,0,0,1,.625,0V5A.625.625,0,0,1,0,5.625Z" transform="translate(36 234.5)" fill="#fff"/>
      <path id="Line_1050" data-name="Line 1050" d="M0,3.625A.625.625,0,0,1-.625,3V0A.625.625,0,0,1,0-.625.625.625,0,0,1,.625,0V3A.625.625,0,0,1,0,3.625Z" transform="translate(32.5 236.5)" fill="#fff"/>
    </g>
  </g>
</svg>
