<svg xmlns="http://www.w3.org/2000/svg" xmlns:xlink="http://www.w3.org/1999/xlink" width="20" height="20" viewBox="0 0 20 20">
  <defs>
    <clipPath id="clip-path">
      <rect id="Rectangle_17275" data-name="Rectangle 17275" width="20" height="20" transform="translate(32 314)" fill="#fff"/>
    </clipPath>
  </defs>
  <g id="Mask_Group_41908" data-name="Mask Group 41908" transform="translate(-32 -314)" clip-path="url(#clip-path)">
    <g id="money-change" transform="translate(30.75 311.75)">
      <path id="Path_53538" data-name="Path 53538" d="M15.9,19.529H11.25a.7.7,0,1,1,0-1.4H15.9c2.66,0,3.953-1.293,3.953-3.953V8.6c0-2.66-1.293-3.953-3.953-3.953H6.6c-2.66,0-3.953,1.293-3.953,3.953v1.86a.7.7,0,1,1-1.4,0V8.6C1.25,5.2,3.2,3.25,6.6,3.25h9.3C19.3,3.25,21.25,5.2,21.25,8.6V14.18C21.25,17.576,19.3,19.529,15.9,19.529Z" transform="translate(0)" fill="#fff"/>
      <path id="Path_53539" data-name="Path 53539" d="M11.773,14.8A3.023,3.023,0,1,1,14.8,11.773,3.029,3.029,0,0,1,11.773,14.8Zm0-4.651A1.628,1.628,0,1,0,13.4,11.773,1.636,1.636,0,0,0,11.773,10.145Z" transform="translate(-0.523 -0.384)" fill="#fff"/>
      <path id="Path_53540" data-name="Path 53540" d="M18.448,14.8a.7.7,0,0,1-.7-.7V9.448a.7.7,0,1,1,1.4,0V14.1A.7.7,0,0,1,18.448,14.8Z" transform="translate(-1.151 -0.384)" fill="#fff"/>
      <path id="Path_53541" data-name="Path 53541" d="M7.994,18.415a.7.7,0,0,1-.7-.7V16.527a.383.383,0,0,0-.381-.381H1.948a.7.7,0,1,1,0-1.4H6.915a1.783,1.783,0,0,1,1.777,1.777v1.191A.7.7,0,0,1,7.994,18.415Z" transform="translate(0 -0.802)" fill="#fff"/>
      <path id="Path_53542" data-name="Path 53542" d="M3.082,17.195a.69.69,0,0,1-.493-.2L1.454,15.856a.7.7,0,0,1,0-.986l1.135-1.135a.7.7,0,0,1,.986.986l-.642.642L3.575,16a.7.7,0,0,1,0,.986A.69.69,0,0,1,3.082,17.195Z" transform="translate(0 -0.717)" fill="#fff"/>
      <path id="Path_53543" data-name="Path 53543" d="M7.994,21.255H3.027A1.783,1.783,0,0,1,1.25,19.478V18.287a.7.7,0,1,1,1.4,0v1.191a.383.383,0,0,0,.381.381H7.994a.7.7,0,1,1,0,1.4Z" transform="translate(0 -1)" fill="#fff"/>
      <path id="Path_53544" data-name="Path 53544" d="M7.227,22.475a.69.69,0,0,1-.493-.2.7.7,0,0,1,0-.986l.642-.642L6.734,20a.7.7,0,1,1,.986-.986L8.855,20.15a.7.7,0,0,1,0,.986L7.72,22.271A.675.675,0,0,1,7.227,22.475Z" transform="translate(-0.368 -1.086)" fill="#fff"/>
    </g>
  </g>
</svg>
