<svg xmlns="http://www.w3.org/2000/svg" xmlns:xlink="http://www.w3.org/1999/xlink" width="20" height="20" viewBox="0 0 20 20">
  <defs>
    <clipPath id="clip-path">
      <rect id="Rectangle_17277" data-name="Rectangle 17277" width="20" height="20" transform="translate(21764 9415)" fill="#fff"/>
    </clipPath>
  </defs>
  <g id="Mask_Group_41910" data-name="Mask Group 41910" transform="translate(-21764 -9415)" clip-path="url(#clip-path)">
    <g id="report" transform="translate(21713.07 9415)">
      <path id="Path_53547" data-name="Path 53547" d="M67.1,1.1H64.9A3.154,3.154,0,0,0,62.512,0H59.348a3.154,3.154,0,0,0-2.39,1.1h-2.2A1.762,1.762,0,0,0,53,2.857V18.239A1.762,1.762,0,0,0,54.758,20H67.1a1.762,1.762,0,0,0,1.758-1.761V2.857A1.762,1.762,0,0,0,67.1,1.1Zm-7.754.078h3.164a2,2,0,0,1,1.9,1.409H57.443A2,2,0,0,1,59.348,1.174Zm8.34,17.065a.587.587,0,0,1-.586.587H54.758a.587.587,0,0,1-.586-.587V2.857a.587.587,0,0,1,.586-.587h1.556a3.165,3.165,0,0,0-.131.9.587.587,0,0,0,.586.587h8.32a.587.587,0,0,0,.586-.587,3.165,3.165,0,0,0-.131-.9H67.1a.587.587,0,0,1,.586.587Z" transform="translate(0)" fill="#fff"/>
      <path id="Path_53548" data-name="Path 53548" d="M131.072,294.413l-.862.863-.211-.211a.587.587,0,1,0-.829.83l.625.626a.585.585,0,0,0,.829,0l1.276-1.279a.586.586,0,1,0-.829-.83Z" transform="translate(-73.031 -282.748)" fill="#fff"/>
      <path id="Path_53549" data-name="Path 53549" d="M236.313,310.607h-4.727a.587.587,0,0,0,0,1.174h4.727a.587.587,0,0,0,0-1.174Z" transform="translate(-171.047 -298.474)" fill="#fff"/>
      <path id="Path_53550" data-name="Path 53550" d="M131.072,380.581l-.862.863-.211-.211a.586.586,0,0,0-.829.83l.625.626a.585.585,0,0,0,.829,0l1.276-1.279a.586.586,0,1,0-.829-.83Z" transform="translate(-73.031 -365.55)" fill="#fff"/>
      <path id="Path_53551" data-name="Path 53551" d="M236.313,396.775h-4.727a.587.587,0,0,0,0,1.174h4.727a.587.587,0,0,0,0-1.174Z" transform="translate(-171.047 -381.276)" fill="#fff"/>
      <path id="Path_53552" data-name="Path 53552" d="M154.3,147.1l1.812-1.816v.07a.586.586,0,1,0,1.172,0c0-1.661,0-1.506-.007-1.572a.586.586,0,0,0-.579-.5H155.21a.587.587,0,0,0,0,1.174h.07l-1.4,1.4-1.773-1.777a.585.585,0,0,0-.829,0l-2.109,2.114a.587.587,0,1,0,.829.83l1.7-1.7,1.773,1.777A.585.585,0,0,0,154.3,147.1Z" transform="translate(-92.25 -137.683)" fill="#fff"/>
    </g>
  </g>
</svg>
