<svg xmlns="http://www.w3.org/2000/svg" xmlns:xlink="http://www.w3.org/1999/xlink" width="32" height="32" viewBox="0 0 32 32">
  <defs>
    <clipPath id="clip-path">
      <rect id="Rectangle_15823" data-name="Rectangle 15823" width="32" height="32" fill="#06f"/>
    </clipPath>
  </defs>
  <g id="Mask_Group_41762" data-name="Mask Group 41762" clip-path="url(#clip-path)">
    <g id="Group_43658" data-name="Group 43658" transform="translate(6.272 4.001)">
      <path id="Path_46752" data-name="Path 46752" d="M12.984,22.279a24.337,24.337,0,0,1-7.623-1.216,3.07,3.07,0,0,1-1.953-1.807,2.925,2.925,0,0,1,.3-2.607l1.276-2.092a4.39,4.39,0,0,0,.51-1.829V9.563a7.49,7.49,0,0,1,14.98,0v3.165a4.531,4.531,0,0,0,.51,1.84l1.265,2.081A3,3,0,0,1,20.6,21.063,24.217,24.217,0,0,1,12.984,22.279Zm0-18.466a5.8,5.8,0,0,0-5.825,5.75v3.165A6.116,6.116,0,0,1,6.415,15.4L5.139,17.493a1.346,1.346,0,0,0-.166,1.194,1.4,1.4,0,0,0,.921.81,22.467,22.467,0,0,0,14.192,0,1.366,1.366,0,0,0,.743-2L19.552,15.4a6.094,6.094,0,0,1-.743-2.683V9.563A5.787,5.787,0,0,0,12.984,3.813Z" transform="translate(-3.227 -0.993)" fill="#333"/>
      <path id="Path_46753" data-name="Path 46753" d="M14.726,4.465a.906.906,0,0,1-.25-.036,8.386,8.386,0,0,0-1-.214,6.959,6.959,0,0,0-2.9.214A.886.886,0,0,1,9.49,3.251a3.259,3.259,0,0,1,6.069,0,.908.908,0,0,1-.167.928A.92.92,0,0,1,14.726,4.465Z" transform="translate(-2.757 -1.18)" fill="#333"/>
      <path id="Path_46754" data-name="Path 46754" d="M12.732,23.523A4.47,4.47,0,0,1,8.27,19.06h1.785a2.678,2.678,0,1,0,5.355,0H17.2A4.465,4.465,0,0,1,12.732,23.523Z" transform="translate(-2.976 0.477)" fill="#333"/>
    </g>
    <rect id="Rectangle_15824" data-name="Rectangle 15824" width="2" height="8" rx="1" transform="translate(15 11)" fill="#333"/>
    <g id="Ellipse_769" data-name="Ellipse 769" transform="translate(17 3)" fill="#de362e" stroke="#fff" stroke-width="1">
      <circle cx="5" cy="5" r="5" stroke="none"/>
      <circle cx="5" cy="5" r="4.5" fill="none"/>
    </g>
  </g>
</svg>
