<svg xmlns="http://www.w3.org/2000/svg" xmlns:xlink="http://www.w3.org/1999/xlink" width="20" height="20" viewBox="0 0 20 20">
  <defs>
    <clipPath id="clip-path">
      <rect id="Rectangle_17266" data-name="Rectangle 17266" width="20" height="20" transform="translate(21779.998 8798.998)" fill="#fff"/>
    </clipPath>
  </defs>
  <g id="Mask_Group_41905" data-name="Mask Group 41905" transform="translate(-21779.998 -8798.998)" clip-path="url(#clip-path)">
    <g id="hand-shake" transform="translate(21779.998 8706.745)">
      <g id="Group_44670" data-name="Group 44670" transform="translate(2.916 96.888)">
        <g id="Group_44669" data-name="Group 44669" transform="translate(0 0)">
          <path id="Path_53523" data-name="Path 53523" d="M87.518,126.344a13.439,13.439,0,0,0-3.153-3.052c-.757-.612-1.472-1.19-1.928-1.646a.417.417,0,0,0-.436-.1c-.281.1-.454.18-.591.241a1.378,1.378,0,0,1-.559.153.416.416,0,0,0-.3.183,1.274,1.274,0,0,1-1.607.669c-.13-.043-.153-.1-.166-.152a2.755,2.755,0,0,1,.921-1.787c1.354-1.355,2.053-1.694,3.527-1.035,1.673.748,3.35,1.334,3.367,1.34a.417.417,0,0,0,.274-.788c-.017-.006-1.66-.58-3.3-1.314-1.911-.854-2.959-.292-4.457,1.207a3.385,3.385,0,0,0-1.144,2.569,1.031,1.031,0,0,0,.716.751,2.085,2.085,0,0,0,2.448-.838,2.1,2.1,0,0,0,.626-.2c.078-.035.17-.076.292-.125.477.448,1.12.968,1.8,1.516a13.938,13.938,0,0,1,2.927,2.764.488.488,0,0,1-.124.626.459.459,0,0,1-.513.1.417.417,0,0,0-.651.387.5.5,0,0,1-.319.469.64.64,0,0,1-.649.015.417.417,0,0,0-.7.266.792.792,0,0,1-.492.638.439.439,0,0,1-.478-.074.422.422,0,0,0-.381-.1.416.416,0,0,0-.292.262c-.016.042-.052.142-.442.142a2.4,2.4,0,0,1-1.021-.349c-.293-.193-2.127-1.561-3.711-2.888-.223-.187-.607-.589-.948-.944-.3-.315-.577-.6-.719-.721a.417.417,0,1,0-.538.637c.129.109.379.373.655.661.372.388.756.79,1.014,1.007,1.552,1.3,3.417,2.7,3.788,2.946a3.2,3.2,0,0,0,1.479.485,1.434,1.434,0,0,0,.946-.278,1.3,1.3,0,0,0,.947-.01,1.641,1.641,0,0,0,.868-.8,1.611,1.611,0,0,0,1.046-.151,1.414,1.414,0,0,0,.7-.727,1.363,1.363,0,0,0,.956-.342A1.325,1.325,0,0,0,87.518,126.344Z" transform="translate(-74.642 -118.658)" fill="#fff"/>
        </g>
      </g>
      <g id="Group_44672" data-name="Group 44672" transform="translate(4.167 97.67)">
        <g id="Group_44671" data-name="Group 44671" transform="translate(0 0)">
          <path id="Path_53524" data-name="Path 53524" d="M110.833,138.663h-3.75a.417.417,0,1,0,0,.833h3.75a.417.417,0,1,0,0-.833Z" transform="translate(-106.666 -138.663)" fill="#fff"/>
        </g>
      </g>
      <g id="Group_44674" data-name="Group 44674" transform="translate(15.032 103.502)">
        <g id="Group_44673" data-name="Group 44673" transform="translate(0 0)">
          <path id="Path_53525" data-name="Path 53525" d="M386.792,288.162a.416.416,0,0,0-.578-.113l-1.218.818a.417.417,0,0,0,.465.692l1.218-.818A.417.417,0,0,0,386.792,288.162Z" transform="translate(-384.811 -287.977)" fill="#fff"/>
        </g>
      </g>
      <g id="Group_44676" data-name="Group 44676" transform="translate(11.251 103.086)">
        <g id="Group_44675" data-name="Group 44675" transform="translate(0 0)">
          <path id="Path_53526" data-name="Path 53526" d="M291.191,279.907c-.3-.235-1.632-1.6-2.457-2.461a.417.417,0,1,0-.6.577c.214.223,2.1,2.193,2.542,2.539a.415.415,0,0,0,.258.089.421.421,0,0,0,.328-.159A.416.416,0,0,0,291.191,279.907Z" transform="translate(-288.015 -277.317)" fill="#fff"/>
        </g>
      </g>
      <g id="Group_44678" data-name="Group 44678" transform="translate(10 104.337)">
        <g id="Group_44677" data-name="Group 44677">
          <path id="Path_53527" data-name="Path 53527" d="M258.766,311.512c-.5-.4-1.753-1.732-2.037-2.04a.417.417,0,1,0-.614.564c.015.016,1.512,1.632,2.13,2.127a.417.417,0,0,0,.521-.651Z" transform="translate(-256.005 -309.337)" fill="#fff"/>
        </g>
      </g>
      <g id="Group_44680" data-name="Group 44680" transform="translate(8.334 105.169)">
        <g id="Group_44679" data-name="Group 44679" transform="translate(0 0)">
          <path id="Path_53528" data-name="Path 53528" d="M216.112,332.825c-.594-.5-1.81-1.8-2.048-2.049a.417.417,0,0,0-.609.569c.342.366,1.505,1.6,2.119,2.118a.417.417,0,0,0,.538-.637Z" transform="translate(-213.343 -330.644)" fill="#fff"/>
        </g>
      </g>
      <g id="Group_44682" data-name="Group 44682" transform="translate(0 96.003)">
        <g id="Group_44681" data-name="Group 44681" transform="translate(0 0)">
          <path id="Path_53529" data-name="Path 53529" d="M4.87,96.951c-.714-.677-3.57-.9-4.428-.947A.416.416,0,0,0,0,96.42v7.5a.417.417,0,0,0,.417.417h2.5a.416.416,0,0,0,.4-.287A43.687,43.687,0,0,0,5,97.289.415.415,0,0,0,4.87,96.951ZM2.613,103.5H.833V96.867a12.659,12.659,0,0,1,3.309.591A43.722,43.722,0,0,1,2.613,103.5Z" transform="translate(0 -96.003)" fill="#fff"/>
        </g>
      </g>
      <g id="Group_44684" data-name="Group 44684" transform="translate(14.182 96.837)">
        <g id="Group_44683" data-name="Group 44683" transform="translate(0 0)">
          <path id="Path_53530" data-name="Path 53530" d="M368.448,117.33a13,13,0,0,0-5.163.873.415.415,0,0,0-.223.259.421.421,0,0,0,.046.338,55.4,55.4,0,0,1,2.438,6.557.417.417,0,0,0,.4.306h2.5a.417.417,0,0,0,.417-.417v-7.5A.416.416,0,0,0,368.448,117.33Zm-.417,7.5H366.26c-.395-1.287-1.562-4.642-2.213-6.028a13.572,13.572,0,0,1,3.984-.633Z" transform="translate(-363.046 -117.33)" fill="#fff"/>
        </g>
      </g>
    </g>
  </g>
</svg>
