<svg xmlns="http://www.w3.org/2000/svg" width="20.001" height="20.002" viewBox="0 0 20.001 20.002">
  <path id="Path_53515" data-name="Path 53515" d="M6631,23748a10,10,0,1,1,10-10A9.932,9.932,0,0,1,6631,23748Zm-1.448-5.781a.766.766,0,0,0,0,1.531h1.126a.766.766,0,0,0,0-1.531Zm-4.023,0a.766.766,0,0,0,0,1.531h.8a.766.766,0,0,0,0-1.531Zm4.023-5.1a.763.763,0,1,0,0,1.525h6.914a.763.763,0,1,0,0-1.525Zm-4.023,0a.763.763,0,1,0,0,1.525h.8a.763.763,0,1,0,0-1.525Zm4.023-4.828a.767.767,0,0,0,0,1.533h6.914a.767.767,0,0,0,0-1.533Zm-4.023,0a.767.767,0,0,0,0,1.533h.8a.767.767,0,0,0,0-1.533Z" transform="translate(-6621.001 -23727.998)" fill="#fff"/>
</svg>
