<svg xmlns="http://www.w3.org/2000/svg" viewBox="0 0 225.91 143.74"><defs><style>.cls-1{fill:#ff2b2b;}.cls-2{fill:#fefefe;}.cls-3{fill:#1a1a1a;}.cls-4{fill:#b5b5b5;}.cls-5{fill:#fff;}</style></defs><title>Asset 22</title><g id="Layer_2" data-name="Layer 2"><g id="Layer_1-2" data-name="Layer 1"><rect class="cls-1" x="143.06" y="17.3" width="44.18" height="44.18"/><rect class="cls-2" x="40.01" y="42.22" width="120.13" height="81.02" rx="5.03"/><path class="cls-2" d="M24.5,75.78V67.4s-3.36.87-3.77-2.2a2.69,2.69,0,0,1,2.16-3.13,2.6,2.6,0,0,1,1.11,0c.56.22,1.63.75,1.63.75a9.67,9.67,0,0,0,2.2-2.4,16.48,16.48,0,0,0,.94-3.78S31,58.9,32.89,59a18,18,0,0,0,3.19-.17l.08.76a3.81,3.81,0,0,1,1.54,3.21c0,2.22-.7,3.23-1.28,3.48l-.08,3.43a3.19,3.19,0,0,1-3.06,2.77l.42,3.62-1.91,7.22Z"/><path class="cls-3" d="M22.17,78.76s-6.61,1.11-9.49,4.87A49.59,49.59,0,0,0,4.79,97.08c-2,5.52-1.94,5.29-2.79,8A54.24,54.24,0,0,0,.23,115.67c-.14,2.76.73,7.36,4.43,9.41s5.68,2.17,5.68,2.17,0,3.41-.06,4.73.06,3.15.06,3.15H49.58s-1.13-4.49-1.34-6.22-.52-5.79-.52-5.79l-3.38.14s-4.22-1.46-4.34-4.74,0-9.85,0-9.85L41.63,107a15.63,15.63,0,0,0-3.79-5.9c-2.85-2.79-3.08-3-3.08-3s2.3-4,2.81-5.08.91-3.23,2.37-2.91v-9.7l-4.35-1.5Z"/><polygon class="cls-2" points="24.5 76.05 22.17 78.76 27.44 90.25 28.38 89.11 31.73 98.6 33.28 97.36 34.66 98.14 35.97 95.97 35.21 88.29 35.51 88.7 35.55 78.83 33.49 75.81 24.5 76.05"/><path class="cls-2" d="M191.44,75.43s-5.38.26-6.86-4.8,1-7.17,2.11-7.64,2.06-2.56,2.49-3.33a5.21,5.21,0,0,1,3.89-3.06c2.38-.26,4.21.24,5.15,1.39a7.14,7.14,0,0,1,4.26.29A8.74,8.74,0,0,1,207,63.09a8.93,8.93,0,0,1,.35,3.56c-.3,1.49-.81,2.3-.3,3.35s1,1.57.21,2.64a9,9,0,0,1-5.15,2.79Z"/><path class="cls-3" d="M182.73,86.4a12.32,12.32,0,0,1,5.14-4,37.35,37.35,0,0,1,8-2l7.78-.14s5-.22,7.17.79,4,1.25,6.68,7.13c0,0,2.94,5.45,3.63,7s3.21,7.62,3.68,10.75,1.53,8.73-1.54,13.57c0,0-1.94,3-3.05,3.24v12.32H180.69a24.22,24.22,0,0,0,1.6-6.48c.3-3.45.4-5.32.4-5.32a9.5,9.5,0,0,1-8.17-4.41s-2.91-3.81-3.49-6.24a17.14,17.14,0,0,0-1.13-3.49Z"/><path class="cls-2" d="M189.18,66.12s1.07,5.49,1.53,7.23S192.16,78,195,77.46c.18.24,1,3.59,1,3.59s-.73,5.57.8,5.73,5.67-4.62,6.57-5.94l-2.34-9.12s2.87-.73,2.22-3.17c0,0-.42-2.17-3.34-1.37a4.84,4.84,0,0,1-2.05-3c-.47-2.08-.7-3-.7-3a7,7,0,0,1-3.68,2.39C191.22,64,189.45,65.44,189.18,66.12Z"/><path class="cls-2" d="M193.85,95.89,192.2,98l-.51-1.5S193.41,95.62,193.85,95.89Z"/><path class="cls-2" d="M197.12,96.05l-2.49,3-1.88.55,2.65,7.74s1.92-.14,2.49-.25a9.93,9.93,0,0,1,2.54,3.28,19.18,19.18,0,0,0,3.34-2.46,42.06,42.06,0,0,0,3.09-3.57s-2.79-3.75-4.16-5.16A8.32,8.32,0,0,0,197.12,96.05Z"/><path class="cls-2" d="M168.94,95.51l1.14,3.15a22.8,22.8,0,0,0,4,.3c1.29-.14,3.11.12,3,1.5a3.91,3.91,0,0,1-.6,1.91s1.21.83,1.08,1.7a4.93,4.93,0,0,1-.59,1.62,1.18,1.18,0,0,1,.77,1.13,1.94,1.94,0,0,1-1.51,2.1,11.26,11.26,0,0,1-6.77.17c-2.53-.92-3.19-5.76-3.34-7.47S166.71,96.83,168.94,95.51Z"/><path class="cls-2" d="M104.09,69.68A6.32,6.32,0,0,0,100.33,68c-2.44-.26-2.56.19-2.56.19a2.91,2.91,0,0,0-2-.19c-.8.4-.63,1.58-.63,1.58s-1.16.71-.56,2.92a6.67,6.67,0,0,0,1.23,4,27.21,27.21,0,0,1,2.31,3.31A18.8,18.8,0,0,1,98.84,82a15,15,0,0,1,4.72-1.42,31.51,31.51,0,0,1,4,.19s-.61-2.63-.61-3.11a15.08,15.08,0,0,0-.27-3c-.22-.69-.88-2.18-.88-2.18l-4.22-.25L99,69.56Z"/><path class="cls-2" d="M133.67,81.49c0,.14,0,1,0,1h1.24Z"/><path class="cls-2" d="M137.62,73.58s2,1.29,3.26-.34a2.4,2.4,0,0,0-.19-3.39l-.21-.17a2.89,2.89,0,0,0-3.11.08,4.54,4.54,0,0,1-3.13-2.85,16,16,0,0,1-1-4.74s-1.57.17-2.72,3.08l-.73,4.62s-2.31.44-2.48,1.16,1.51,2.16,1.51,2.16S128,78,132.5,78.35A5.45,5.45,0,0,1,134.69,76a13.59,13.59,0,0,0,2.73-1.14C137.69,74.52,138.07,74.21,137.62,73.58Z"/><polygon class="cls-1" points="192.2 97.96 196.67 92.66 198.6 94.29 194.63 99.01 192.9 99.51 192.2 97.96"/><polygon class="cls-2" points="196.67 92.66 197.4 91.79 199.3 93.26 198.6 94.15 196.67 92.66"/><polygon class="cls-2" points="170.04 98.46 166.4 87.85 186.99 87.85 197.22 117.8 176.76 117.84 170.04 98.46"/><polygon class="cls-1" points="168.06 87.6 167.72 86.61 188.15 86.55 198.6 116.63 196.86 116.63 186.99 87.85 168.06 87.6"/><path class="cls-3" d="M137.89,73.88a1.49,1.49,0,0,1-1.34,1.29c-1.23.17-3.59,1.47-4,3s.24,4,4.56,4.76,7.22.2,8.15-.26,3-1.32,2.74-3.39-2.2-3.19-2.6-3.52-.28-1.09-.12-1.86,1.57-5.72,1.61-6.22a6.87,6.87,0,0,0-.9-4.56c-1.24-1.74-4.51-2.52-4.51-2.52a19.72,19.72,0,0,0-5.42-1.05c-2.16.08-4.41.12-5.24,1.54s-1.58,2.79-.58,5a5.07,5.07,0,0,1,2.91-4s.4,4.31,1.41,5.54,1.7,2.08,2.65,2.13a2.28,2.28,0,0,1,1.65-.62,2.81,2.81,0,0,1,2.62,2.35s-.22,2.34-1.64,2.59A2.69,2.69,0,0,1,137.89,73.88Z"/><path class="cls-1" d="M134.86,82.41s-4.43.55-6.09,2.43a23.06,23.06,0,0,0-4,6.1c-.9,2.13-2.23,5.56-2.65,6.35s-1.45,3.32-4,2.91-2.77-2.36-3.17-3.59L110.17,82a10.59,10.59,0,0,0-13.73,2.35s1.24,7.45,2,10.46a64.1,64.1,0,0,0,3.76,11.28c1.56,3.07,5.06,8.41,10.69,9.47s9.37,0,10.79-.58c.17.08-.56,20.07-.56,20.07h31.82l-.63-16.79s3.35,2.07,6,.48a5.5,5.5,0,0,0,2.63-5.49,35.66,35.66,0,0,0-1.36-7.09,57.57,57.57,0,0,0-4.46-10.4c-2.42-4.23-5.42-8.68-5.42-8.68A11.29,11.29,0,0,0,148,83.57c-2.25-1.22-2.61-.89-2.61-.89a15.28,15.28,0,0,1-5.46.61A23.69,23.69,0,0,1,134.86,82.41Z"/><polygon class="cls-3" points="99.04 69.59 108.25 70.11 108.11 72.63 101.6 72.27 99.04 69.59"/><rect class="cls-2" x="107.3" y="70.77" width="2.53" height="1.23" transform="translate(31.18 175.75) rotate(-86.77)"/><path class="cls-2" d="M94.79,69.27l-3,1.26,2.4,1.26S94.32,69.67,94.79,69.27Z"/><polygon class="cls-2" points="118.49 141.82 129.6 140.7 120.7 136.75 111.33 137.52 112.85 138.53 110.11 138.45 101.25 142.38 112.32 143.51 116.86 140.87 118.49 141.82"/><path class="cls-3" d="M137.66,98.27s-1.83,14.76-13.9,20.13V115s3.58-.79,7.44-5S137.66,98.27,137.66,98.27Z"/><path class="cls-4" d="M177.61,107.65a4,4,0,0,1-3.28,3.17l-.64-1.35A4.75,4.75,0,0,0,177.61,107.65Z"/><rect class="cls-2" x="154.45" y="66.78" width="10.7" height="10.7"/><path class="cls-1" d="M160.64,68.39a.78.78,0,1,1-.78-.78.78.78,0,0,1,.78.78Z"/><path class="cls-1" d="M115.46,52.81a.58.58,0,0,1-.56.58.57.57,0,0,1-.58-.56v0a.57.57,0,0,1,.56-.58.58.58,0,0,1,.58.56Z"/><rect class="cls-3" x="144.86" y="24.26" width="8.38" height="17.91"/><polygon class="cls-5" points="158.74 33.9 158.74 43.88 160.05 45.83 160.29 49.93 167.07 49.93 167.07 33.9 158.74 33.9"/><rect class="cls-5" x="172.63" y="39.75" width="8.26" height="10.18"/><path class="cls-2" d="M34.66,98.14S36.35,95.4,37,94.07s1.16-2.81,1.44-3.29A1.25,1.25,0,0,1,39.94,90c.74.21.85.84.8,1.66S39.93,94.41,40,95s.29,1.43,1.43,1.11a9.18,9.18,0,0,0,3.1-2c.61-.56,3-2.93,3-2.93A1.56,1.56,0,0,1,49.28,91a1.41,1.41,0,0,1,.56,1.64,1.77,1.77,0,0,1,1.1.49c.39.46.56,1.28.24,1.52a.74.74,0,0,0,.39.6,1.31,1.31,0,0,1,.17,1.59,21.56,21.56,0,0,1-4.25,4.64,27.65,27.65,0,0,1-6.35,4s-1.89-2.74-3-4A35.1,35.1,0,0,0,34.66,98.14Z"/><polygon class="cls-3" points="24.5 67.6 24.41 69.1 23.26 67.61 24.5 67.6"/><path class="cls-1" d="M25.48,63a8.25,8.25,0,0,0,2.67-3.35,12.83,12.83,0,0,0,.62-2.94A5.63,5.63,0,0,0,33.26,59c3.15.14,2.87-.29,2.87-.29v.65l.59.35a8.41,8.41,0,0,0-.09-3,5.45,5.45,0,0,0-3.11-3.33,7.49,7.49,0,0,0-4.22-.67,9.55,9.55,0,0,0-2.63,1.06c-.28.2-2.56.33-3.56,1.31a5.12,5.12,0,0,0-1.86,3.37c-.2,1.6-.19,3.45.31,4.27A2.66,2.66,0,0,1,23.37,62,3.41,3.41,0,0,1,25.48,63Z"/><path class="cls-3" d="M30,67.83A3.08,3.08,0,0,1,31.34,69a2.23,2.23,0,0,1,.13,1.35,3.1,3.1,0,0,0,1.83-.14c.86-.4.92-1.2.64-1.54s-1-.08-1.39-.06-.9,0-1-.38-.49-1.16-1.07-1.1S30,67.83,30,67.83Z"/><polygon class="cls-1" points="29.27 87.63 31.34 90.5 30.92 95.59 31.73 98.6 33.53 97.45 34.66 98.14 35.97 95.97 35.59 93.29 33.94 90.25 34.21 86.89 31.75 83.48 29.27 87.63"/><path class="cls-1" d="M195.87,80.4l.16.65s-.85,5.65.71,5.7,4.29-3.06,4.78-3.61,1.88-2.3,1.88-2.3l-.22-.55h1.34a19.93,19.93,0,0,1-.75,5.59c-.85,2.76-1.77,4.72-3.33,4.74a3.55,3.55,0,0,1-3-1.64,6.28,6.28,0,0,1-.61-1.88s-2.7,2.47-3.9,2.36-2.12-1.18-1.34-3.11a53.28,53.28,0,0,1,3.19-5.78Z"/><path class="cls-3" d="M47.26,44.09H66.65V24.7a18.9,18.9,0,0,0-14.07,6C46.47,37.34,47.26,44.09,47.26,44.09Z"/><path class="cls-1" d="M72,29.41V49H52.38A19.61,19.61,0,1,0,72,29.41Z"/><polygon class="cls-1" points="116.86 140.87 113.21 138.71 110.11 138.45 101.25 142.38 112.32 143.51 116.86 140.87"/><path class="cls-5" d="M33.53,53.34a7.43,7.43,0,0,0-2.43-.69s5.43,2.89,3.78,6.33c1,0,1.22-.18,1.25-.26v.6l.59.35a8.41,8.41,0,0,0-.09-3A5.44,5.44,0,0,0,33.53,53.34Z"/><path class="cls-5" d="M28.79,56.56S26.7,61.68,24.6,62.1l1,.78a8.05,8.05,0,0,0,2.56-3.27,12.83,12.83,0,0,0,.62-2.94C28.79,56.76,28.79,56.56,28.79,56.56Z"/><path class="cls-5" d="M133.16,62.06s.4,4.31,1.41,5.54,1.7,2.08,2.65,2.13c-3.37-2.17-3-9.22-3-10.11-1.49.13-2.81.44-3.4,1.45-.82,1.42-1.58,2.79-.58,5A5.08,5.08,0,0,1,133.16,62.06Z"/><path class="cls-5" d="M136.19,82.69a2.08,2.08,0,0,1-.94-.82,3.17,3.17,0,0,1-.49-1.17,4.72,4.72,0,0,1,.22-2.92,3.06,3.06,0,0,1,1-1.17,10.15,10.15,0,0,1,1.25-.69,3.46,3.46,0,0,0,.9-.67,3.16,3.16,0,0,0,.64-.89l-.45-.31a1.15,1.15,0,0,1-.41-.17,1.49,1.49,0,0,1-1.34,1.29c-1.23.17-3.59,1.47-4,3S132.71,81.73,136.19,82.69Z"/><polygon class="cls-5" points="30.92 85 32.62 87.07 32.51 90.35 35.79 96.21 35.76 93.85 33.94 90.25 34.39 86.89 31.74 83.64 30.92 85"/><path class="cls-3" d="M108.11,72.86l-6.33-.35c0-.46,6.12-.12,6.12-.12l.11-2.06-9-.51c0-.45,9.25.06,9.25.06a12.84,12.84,0,0,1,.07,2.77A.23.23,0,0,1,108.11,72.86Z"/><path class="cls-3" d="M109.34,72.93l-1.24-.07c0-.45,1-.4,1-.4l.12-2.07-1,0c0-.46,1.25-.39,1.25-.39a12.23,12.23,0,0,1,.08,2.77A.23.23,0,0,1,109.34,72.93Z"/><path class="cls-3" d="M94.38,72.09c-.11,0-2.81-1.44-2.81-1.44,0-.42,3.15-1.63,3.15-1.63.16.42-2.49,1.46-2.49,1.46l2.25,1.18C94.54,72.05,94.46,72.09,94.38,72.09Z"/><path class="cls-3" d="M100.24,75.42c-4.33-2.79-5.22-4.85-5.38-5.83a1.76,1.76,0,0,1,.3-1.42c.94-1.18,2.72,0,2.79.09s3.6,4.22,5.58,4.9c-2.19-.27-5.54-4.16-5.86-4.54-.19-.12-1.52-1-2.15-.17a1.31,1.31,0,0,0-.21,1.07c.12.73.84,2.72,5,5.49C100.38,75.39,100.31,75.42,100.24,75.42Z"/><path class="cls-3" d="M98.6,77.76c-.32-.19-4.39-3.62-4.53-6.6A2.78,2.78,0,0,1,94.9,69a8.37,8.37,0,0,0-.38,2.16c.14,2.78,4.18,6.19,4.23,6.22C98.73,77.74,98.66,77.76,98.6,77.76Z"/><path class="cls-3" d="M104.3,70.12a7.85,7.85,0,0,0-2.83-1.78,14.51,14.51,0,0,0-4,.13c0-.47,2.58-.89,4-.57a6.65,6.65,0,0,1,2.89,1.83C104.41,70.1,104.35,70.12,104.3,70.12Z"/><path class="cls-3" d="M107.58,81a8.45,8.45,0,0,1-.83-3.83,9,9,0,0,0-1.13-4.53c.45-.14,1.74,2,1.58,4.55a12.72,12.72,0,0,0,.59,3.51C107.62,81,107.6,81,107.58,81Z"/><path class="cls-3" d="M99,82.1c-.57-1-1.32-2.6-1.63-3-1.06-1.31-3.66-4.49-3-6.61-.14,2,2.34,5.06,3.15,6.06a23.24,23.24,0,0,1,1.7,3.24C99.1,82.09,99.07,82.1,99,82.1Z"/><path class="cls-3" d="M194.53,99.36c-.18-.38,3.76-5,3.76-5L196.7,93l-4.32,5.13c-.35-.29,4.12-5.6,4.12-5.6a12.65,12.65,0,0,1,2.25,1.61c0,.32-4.05,5.16-4.05,5.16A.21.21,0,0,1,194.53,99.36Z"/><path class="cls-3" d="M198.6,94.52c-.17-.38.48-1.14.48-1.14L197.49,92l-.65.77c-.34-.3.45-1.24.45-1.24a13.2,13.2,0,0,1,2.26,1.6c0,.32-.77,1.27-.77,1.27A.25.25,0,0,1,198.6,94.52Z"/><path class="cls-3" d="M193.85,103a4.61,4.61,0,0,1,2-1.09,3.37,3.37,0,0,1-1.94,1.08Z"/><path class="cls-3" d="M192.79,99.78c1.18-.64,2.69-.94,3.53-1.51-.66,1-2.23,1.31-3.49,1.51Z"/><path class="cls-3" d="M194.68,105.4a12.69,12.69,0,0,1,2.08-.78c.08.45-.73.65-2.06.78Z"/><path class="cls-3" d="M191.69,96.69a3.91,3.91,0,0,1,2.41-1.23c0,.46-1.23.55-2.29,1.2A.27.27,0,0,1,191.69,96.69Z"/><path class="cls-3" d="M206.86,104.52c-.22-.14-4.41-5.54-5.47-6.43a9.07,9.07,0,0,0-4.29-1.82c.15-.44,2.68-.15,4.59,1.47,1.09.93,5.18,6.19,5.35,6.42C207,104.51,206.91,104.52,206.86,104.52Z"/><path class="cls-3" d="M200.55,110.55c-1.22-1.81-2.35-3.26-2.65-3.27a11.81,11.81,0,0,1-2.51.25,7,7,0,0,1,2-.64,2.63,2.63,0,0,1,.49-.07c.73,0,2.23,2.37,2.84,3.39C200.63,110.55,200.59,110.55,200.55,110.55Z"/><path class="cls-3" d="M129.24,75.71c-.07-.44.06-.44.31-.48a1.66,1.66,0,0,0,1.18-.88,1,1,0,0,0,.14-.69c-.59-.09-.68,0-.78.16a1.49,1.49,0,0,1-.43.4,1.08,1.08,0,0,1-1-.11,4.13,4.13,0,0,1,.79-.29c.42-.44.55-.61.77-.72a.88.88,0,0,1,.64,0,.75.75,0,0,1,.43.41,1.27,1.27,0,0,1-.14,1.09,2.16,2.16,0,0,1-1.52,1.12Z"/><path class="cls-3" d="M12.29,127.61c-5.08,0-10.79-3-11.93-8.14-1.49-6.64,2.09-16.94,3.23-19.94A53.77,53.77,0,0,1,9.48,87.46c4-6.34,8-8.09,12.66-8.78-4.65,1.14-8.36,2.82-12.28,9A54.86,54.86,0,0,0,4,99.68c-1.12,3-4.67,13.15-3.21,19.67,1.21,5.43,7.86,8.4,13.08,7.67,9.63-1.34,26.12-18.68,27.51-20.15a16.24,16.24,0,0,0-2.93-4.72c-2.78-3.27-4.5-4.25-4.91-4.46-1.46.91-17.76,11.16-23.4,19.78,5.55-9.32,23.09-20.12,23.26-20.23s2.1.73,5.39,4.61a15.63,15.63,0,0,1,3.07,5c-.77,1-17.76,19.2-27.93,20.62A13.12,13.12,0,0,1,12.29,127.61Z"/><path class="cls-3" d="M32.12,70.62a2.85,2.85,0,0,1-1-.18,2.68,2.68,0,0,1-1.54-1.79,1.59,1.59,0,0,1,.12-1.36.88.88,0,0,1,.81-.37,1.31,1.31,0,0,1,1,.78c.26.56.32.58.47.64s.21.08.78-.15a1.28,1.28,0,0,1,1.23.09.87.87,0,0,1,.35.82,1.72,1.72,0,0,1-.86,1.14A2.61,2.61,0,0,1,32.12,70.62Zm-1.69-3.25A.93.93,0,0,0,30,68.53,2.22,2.22,0,0,0,31.31,70a2.11,2.11,0,0,0,1.92-.16,1.31,1.31,0,0,0,.65-.79.48.48,0,0,0-.17-.42.85.85,0,0,0-.79,0c-.68.27-.84.26-1.12.15s-.41-.21-.72-.87a.85.85,0,0,0-.6-.52Z"/><path class="cls-3" d="M31.53,70.55A2.39,2.39,0,0,0,29.7,68a1.82,1.82,0,0,1,2.11,1.47,1.87,1.87,0,0,1-.06.88A.23.23,0,0,1,31.53,70.55Z"/><path class="cls-3" d="M14.91,111.82c4-8.57,5-19.3,5.05-19.41.45.15-.6,11-4.85,19.29A.24.24,0,0,1,14.91,111.82Z"/><path class="cls-3" d="M31.65,72.77a12.24,12.24,0,0,1-1.56-.07,9.27,9.27,0,0,1-2.22-.42,5.73,5.73,0,0,1,2.26,0c2.57.2,4.18,0,5.07-.82a2.82,2.82,0,0,0,.9-2c0-.61.08-1.93.09-3.07a7.41,7.41,0,0,1,.36,3.1,3.26,3.26,0,0,1-1,2.36A5.88,5.88,0,0,1,31.65,72.77Z"/><path class="cls-3" d="M36.16,59.61a1.49,1.49,0,0,1-.26-.84c.46,0,.49.61.49.61A2.5,2.5,0,0,1,36.16,59.61Z"/><path class="cls-3" d="M24.5,76.2c-.23-.23-.23-8.8-.23-8.8.46,0,.46,8.57.46,8.57A.26.26,0,0,1,24.5,76.2Z"/><path class="cls-3" d="M23.48,67.83a2.92,2.92,0,0,1-1.84-.64,3,3,0,1,1,4.6-3.46,4,4,0,0,1-1.2-.87,2.52,2.52,0,1,0,0,4A1.5,1.5,0,0,1,23.48,67.83Z"/><path class="cls-3" d="M33.7,76.27a24.77,24.77,0,0,1-.64-3.82c.45,0,.87,3.57.87,3.57C33.72,76.27,33.71,76.27,33.7,76.27Z"/><path class="cls-3" d="M25.48,63.19a9.64,9.64,0,0,0,3.06-6.52c.51,0,2.92,3.06,7.53,1.87A6.46,6.46,0,0,1,29,57.21a8.45,8.45,0,0,1-3.35,5.94A.22.22,0,0,1,25.48,63.19Z"/><path class="cls-3" d="M22.64,66.52c-.11-.42,1.73-1.38,1.73-1.38l-1.76-1.73c.32-.32,2.3,1.62,2.3,1.62,0,.36-2.17,1.47-2.17,1.47A.18.18,0,0,1,22.64,66.52Z"/><path class="cls-3" d="M27.79,55.52a16.56,16.56,0,0,1-1.33-1.45c.35-.29,1.5,1.07,1.5,1.07C27.93,55.5,27.88,55.52,27.79,55.52Z"/><path class="cls-3" d="M21.47,62.82c-.27-.32-1.43-4.07.31-6.71a5.78,5.78,0,0,1,4.53-2.4c.44-.35,3.16-2.32,7.39-.55,3.56,1.5,3.58,4.84,3.27,6.7-.1-2.19-.34-5-3.45-6.28-4.24-1.78-6.86.43-7,.52a5.7,5.7,0,0,0-4.39,2.26c-1.63,2.46-.49,6.12-.48,6.16C21.51,62.81,21.49,62.82,21.47,62.82Z"/><path class="cls-3" d="M24.5,69.4a6.56,6.56,0,0,1-1.57-1.67c.39-.23,1,.72,1.71,1.26C24.64,69.37,24.57,69.4,24.5,69.4Z"/><path class="cls-3" d="M34,67.35c.34-.59.51-.65.66-.74a.79.79,0,0,0,.4-.46.59.59,0,0,0-.1-.43,1,1,0,0,0-.68-.4h-.51a16.9,16.9,0,0,1-.56-3.39h.45l.29,3c.84.12,1.19.33,1.39.64a1,1,0,0,1,.16.78,1.21,1.21,0,0,1-.62.76,3,3,0,0,1-.56.24Z"/><path class="cls-3" d="M133.48,67.27a1.64,1.64,0,0,0-1.94-.39c.21-.65,1.27-.89,2.11,0C133.59,67.27,133.54,67.27,133.48,67.27Z"/><path class="cls-3" d="M131.94,68.39c-.18,0-.3,0-.36.71s.13.86.29.85.33-.23.33-.75S132.18,68.43,131.94,68.39Z"/><path class="cls-3" d="M139,74.36a2.7,2.7,0,0,1-1.56-.49,6.7,6.7,0,0,1,1.55,0,2.27,2.27,0,0,0,2.26-2.25A2.24,2.24,0,0,0,139,69.36h0a2.23,2.23,0,0,0-1.92,1A1.74,1.74,0,0,1,139,68.9a2.71,2.71,0,1,1,0,5.42h0Z"/><path class="cls-3" d="M139.6,73c-.13,0-1.84-1.16-1.84-1.16,0-.38,1.71-1.65,1.71-1.65.27.37-1.19,1.45-1.19,1.45l1.44,1C139.79,73,139.67,73,139.6,73Z"/><path class="cls-3" d="M133.62,82.68c-.23-.24-.17-1.2-.17-1.2.45,0,.39,1,.39,1A.23.23,0,0,1,133.62,82.68Z"/><path class="cls-3" d="M123.15,135.27c-.28-4.61.51-20.32.52-20.47.44.18-.34,15.87-.29,20.24Z"/><path class="cls-3" d="M68.66,46.41H49.05c0-.45,19.38-.45,19.38-.45V26.59c.45,0,.45,19.6.45,19.6A.22.22,0,0,1,68.66,46.41Z"/><path class="cls-3" d="M68.66,66A19.84,19.84,0,1,1,82,60.83a21.84,21.84,0,0,0,6-14.64A19.38,19.38,0,1,0,68.64,65.56h0A19.73,19.73,0,0,0,72,65.28,6.17,6.17,0,0,1,68.66,66Z"/><path class="cls-3" d="M40,80.84a11.56,11.56,0,0,0-4.48-1.78,6.62,6.62,0,0,1,4.6,1.36C40.15,80.8,40.08,80.84,40,80.84Z"/><path class="cls-3" d="M49.58,135.34c-1.15-3-1.78-6.91-2.09-11.93A76.71,76.71,0,0,0,49.8,135C49.63,135.34,49.6,135.34,49.58,135.34Z"/><path class="cls-3" d="M10.34,135.34a49,49,0,0,1-.23-8.12c.45.07.19,4.07.46,7.88A1.75,1.75,0,0,1,10.34,135.34Z"/><path class="cls-3" d="M35.79,66.71a1.44,1.44,0,0,1-.65-.14c.34-.34.48-.32.67-.32.93,0,1.68-1.54,1.64-3.32s-.85-3.27-1.77-3.26c-.43,0-.84.34-1.15.94A4.92,4.92,0,0,0,34,63a4.18,4.18,0,0,0,.41,2c-.69-.34-.85-1.07-.87-1.94a5.36,5.36,0,0,1,.54-2.61,1.86,1.86,0,0,1,1.55-1.18c1.23,0,2.19,1.61,2.24,3.7s-.88,3.76-2.09,3.79Z"/><path class="cls-3" d="M30.31,66.6c-1.21,0-2.17-1.62-2.22-3.7a5.36,5.36,0,0,1,.55-2.61,1.86,1.86,0,0,1,1.54-1.18,1.55,1.55,0,0,1,1.1.48,4.73,4.73,0,0,1,1.14,3.22,5.59,5.59,0,0,1-.54,2.61,1.91,1.91,0,0,1-1.55,1.18Zm-.1-7a1.43,1.43,0,0,0-1.17.94,5,5,0,0,0-.49,2.39c0,1.77.84,3.25,1.76,3.25.44,0,.85-.34,1.16-.93A5.06,5.06,0,0,0,32,62.86,4.28,4.28,0,0,0,31,60a1.15,1.15,0,0,0-.75-.39Z"/><path class="cls-3" d="M218.49,113.84c-2.9-4.86-9.23-10.06-11.11-11.32,2.16.9,8.57,6.17,11.31,11C218.57,113.83,218.53,113.84,218.49,113.84Z"/><path class="cls-3" d="M182.12,123.49a8.67,8.67,0,0,1-1.91-.21c-4.84-1-8.82-7.85-10.62-14.13,2.2,6,6.06,12.68,10.71,13.69a8.79,8.79,0,0,0,2.29.18C182.45,123.49,182.29,123.49,182.12,123.49Z"/><path class="cls-3" d="M216.58,124c-7,0-16.12-9.72-18.86-12.82,7.89,8.25,15.14,13,19.78,12.3s7.42-6.22,7.64-11.12-1.29-10.9-4.5-17.71c-.65-1.38-1.39-2.74-2.1-4-.42-.78-.84-1.55-1.25-2.34-.12-.24-.24-.48-.37-.72a14.22,14.22,0,0,0-3.28-4.72c-3.28-2.68-8.31-2.44-10.33-2.22,2-.68,7.21-.92,10.62,1.87a14.24,14.24,0,0,1,3.4,4.86c.12.24.24.48.37.72.4.79.82,1.56,1.24,2.33.72,1.32,1.46,2.69,2.11,4.08,3.25,6.87,4.78,12.9,4.55,17.92s-3.13,10.86-8,11.55A7,7,0,0,1,216.58,124Z"/><path class="cls-3" d="M182.73,86.63c2.56-3.93,6.46-5.18,9.54-5.88.1,0,2.42-.49,3.6-.58a21.47,21.47,0,0,1-3.5,1c-3,.67-6.81,1.9-9.46,5.34A.22.22,0,0,1,182.73,86.63Z"/><path class="cls-3" d="M194.23,77.69a4.17,4.17,0,0,1-.5,0,3,3,0,0,1-2.33-1.8,11.45,11.45,0,0,1-1.07-3.16c-.11-.52-.25-1.22-.39-2-.35-1.8-.79-4-1-4.69.64.56,1,2.7,1.43,4.6.14.75.28,1.44.38,2a11,11,0,0,0,1,3,2.67,2.67,0,0,0,2,1.56,5.2,5.2,0,0,0,1.84-.18c.73-.2,1.79-.52,2.51-.8a4.91,4.91,0,0,1-2.4,1.24A6.17,6.17,0,0,1,194.23,77.69Z"/><path class="cls-3" d="M201,71.89a2.54,2.54,0,0,1-.78-.12,3.18,3.18,0,0,1,1.28-.39,2.15,2.15,0,1,0-2.08-3.54,1.09,1.09,0,0,1,1-1.08,2.61,2.61,0,1,1,1.25,5.06h0A2.55,2.55,0,0,1,201,71.89Z"/><path class="cls-3" d="M201.79,70.61c-.1,0-1.89-1-1.89-1-.06-.36,1.46-2,1.46-2,.33.32-1,1.69-1,1.69l1.52.81C201.91,70.57,201.79,70.61,201.79,70.61Z"/><path class="cls-3" d="M210.16,104.52a40.84,40.84,0,0,0-2.67-12.64c.44-.12,2.89,5.81,2.89,12.42A.22.22,0,0,1,210.16,104.52Z"/><path class="cls-3" d="M194.54,74.21c.28-.42.69-.53,1-.79a1.73,1.73,0,0,0,.4-1.2c.46,0,.52.93-.08,1.52A1.8,1.8,0,0,1,194.54,74.21Z"/><path class="cls-3" d="M180.88,134.94c1.82-4.75,1.7-16.84,1.7-17,.46.49.58,12.3-1.49,16.82A.25.25,0,0,1,180.88,134.94Z"/><path class="cls-3" d="M172.87,109.72c-2.37,0-4.26-.57-5-1.57a7.79,7.79,0,0,1-1.33-3,16.48,16.48,0,0,1-.38-5.81c.25-2.13,2.59-4,2.69-4,.25.38-2,2.15-2.24,4.09a16.29,16.29,0,0,0,.37,5.65,7.45,7.45,0,0,0,1.25,2.8c.73.93,3,1.68,6.54,1.28,1-.12,3-.92,2.8-2.31a1.23,1.23,0,0,0-.65-.95c.71-.13,1,.36,1.1.91.18,1.64-1.8,2.64-3.2,2.8A15.93,15.93,0,0,1,172.87,109.72Z"/><path class="cls-3" d="M174.63,103a33,33,0,0,1-5.34-.53c.55-.28,4.89.2,5.87,0,.59-.08,1.23-.16,1.45-.52a1.88,1.88,0,0,0,.21-1.58,2,2,0,0,0-1-1,2.57,2.57,0,0,0-1.34-.16c-5.07.14-5.93-.9-6-1,.4-.24,1.25.69,5.64.58a3.44,3.44,0,0,1,1.93.2,2.46,2.46,0,0,1,1.19,1.29,2.28,2.28,0,0,1-.25,2,2.23,2.23,0,0,1-1.62.71A6.12,6.12,0,0,1,174.63,103Z"/><path class="cls-3" d="M173.79,106.45a39,39,0,0,1-4.59-.32c.1-.45,3.7.06,6.32-.21a1.79,1.79,0,0,0,1.81-1.77v-.07a2.22,2.22,0,0,0-1-1.52,1.56,1.56,0,0,1,1.44,1.49,2.24,2.24,0,0,1-2.12,2.32h-.1A17.4,17.4,0,0,1,173.79,106.45Z"/><path class="cls-3" d="M197,87c-1.73-.54-1.26-4.86-1.13-5.83l-.85-3.7c.44-.11,1.3,3.64,1.3,3.64-.27,2.13-.29,5.14.51,5.41,1.18.43,4.5-3.26,6.36-5.73l-2.31-9c.44-.12,2.78,9,2.78,9C203.1,81.62,199,87,197,87Z"/><path class="cls-3" d="M27.55,90.73C27.35,90.59,22,78.85,22,78.85a32.71,32.71,0,0,1,2.36-3c.34,0,7.32,7.21,7.32,7.21l1.84-7c.41-.07,2.24,2.64,2.24,2.64V88.8c-.41.13-4-4.84-4-4.84l-4,6.73A.25.25,0,0,1,27.55,90.73ZM22.44,78.79,27.58,90l3.89-6.5-7-7.2ZM32,83.43,35.31,88V78.83l-1.52-2.24Z"/><path class="cls-3" d="M31.79,98.82c-1.66-4.86-3.55-9.58-3.57-9.62.45-.13,2.34,4.61,3.78,9.33Z"/><path class="cls-3" d="M36,96.07c-.56-5.46-1-7.72-1-7.74.45-.06.87,2.21,1.2,7.5Z"/><path class="cls-3" d="M31.34,90.73c-.18-.1-2.25-3-2.25-3,.37-.27,2.36,2.5,2.36,2.5L33.73,90,34,86.84c.46,0,.18,3.4.18,3.4a15.62,15.62,0,0,1-2.79.46Z"/><path class="cls-3" d="M30.92,96.27c-.23-.25.2-5.83.2-5.83.45,0,0,5.62,0,5.62A.23.23,0,0,1,30.92,96.27Z"/><path class="cls-3" d="M35.79,94.19c-.21-.12-2.06-3.83-2.06-3.83.41-.21,2.26,3.5,2.26,3.5C35.86,94.19,35.79,94.19,35.79,94.19Z"/><path class="cls-3" d="M225.79,135.34H2.32c0-.45,223.45-.45,223.45-.45C226,135.27,225.9,135.34,225.79,135.34Z"/><path class="cls-3" d="M190.66,68.06c.17-.06.31,0,.49.62s0,.87-.11.89-.37-.16-.47-.67S190.43,68.15,190.66,68.06Z"/><path class="cls-3" d="M195.79,66.84c.17-.06.31,0,.48.63s0,.87-.14.89-.36-.17-.45-.69S195.53,66.92,195.79,66.84Z"/><path class="cls-3" d="M220.18,135.27C220.11,131.9,220,123,220,123c.46.09.61,9,.46,12.11A.23.23,0,0,1,220.18,135.27Z"/><path class="cls-3" d="M117,116.27a15.19,15.19,0,0,1-11.13-4.46c-3.64-3.71-5.43-8.84-6.71-13.36a122.93,122.93,0,0,1-2.91-14c.06-.44,1.66-3.67,7.28-4.18,5.07-.45,6.76,1.46,6.83,1.54s4.87,14.83,4.87,14.83c.38,1.19.74,2.31,1.82,2.92a2.92,2.92,0,0,0,3.34-.36,7.89,7.89,0,0,0,2-3.17c.24-.59.49-1.19.73-1.8a52.38,52.38,0,0,1,2.61-5.83A11.74,11.74,0,0,1,131.07,83a11.47,11.47,0,0,1,4.21-.9c-1.42.54-2.67.72-4,1.31a11.31,11.31,0,0,0-5.12,5.22,54.25,54.25,0,0,0-2.59,5.78c-.24.61-.48,1.21-.73,1.81a8.56,8.56,0,0,1-2.11,3.34,3.4,3.4,0,0,1-3.87.41,5,5,0,0,1-2-3.18l-1.68-5.13L110,82.13c-.23-.23-1.94-1.76-6.4-1.35-4.94.44-6.65,3.12-6.9,3.55a123.81,123.81,0,0,0,2.92,14c1.26,4.47,3,9.52,6.59,13.16,5.55,5.66,14,5.12,20,2.07A16,16,0,0,1,117,116.27Z"/><path class="cls-3" d="M155,135.34c-.24-.32-1.38-12-.81-20.53s0-20.06,0-20.17a18,18,0,0,0-1.95-5.94,11.48,11.48,0,0,0-2.68-3.78,8.64,8.64,0,0,0-4.17-2,6.09,6.09,0,0,1,4.47,1.62,11.75,11.75,0,0,1,2.79,3.93,18.07,18.07,0,0,1,2,6.11c0,.11.57,11.68,0,20.22a148.79,148.79,0,0,0,.59,20.25C155,135.34,155,135.34,155,135.34Z"/><path class="cls-3" d="M117.26,116.27a15.34,15.34,0,0,1-1.9-.08C133.61,117.28,138,96.28,138,96.07,138.41,96.4,134.28,116.27,117.26,116.27Z"/><path class="cls-3" d="M157.92,119.67a7.29,7.29,0,0,1-3.81-1.22c.43-.25,4.32,2.49,7.42-.94,4.25-4.69-4-23-11.39-32,8,9,16.2,27.36,11.73,32.3A5.21,5.21,0,0,1,157.92,119.67Z"/><path class="cls-3" d="M132.33,78.57a4,4,0,0,1-3.05-1.52,5.24,5.24,0,0,1-.74-3.76C128.18,73,127,71.79,127,71s1.75-1.22,2.51-1.35l.55-4.06c.06-.18,1.16-3.34,3-3.77.28.28.51,7,4.27,7.7-3.77-.19-4.35-5.79-4.43-7.17-1.49.61-2.44,3.31-2.45,3.34l-.56,4.19c-1.29.36-2.48.78-2.48,1.13a5.42,5.42,0,0,0,1.45,2c.06.24-.35,2.32.71,3.75a3.59,3.59,0,0,0,2.7,1.33C132.54,78.49,132.44,78.57,132.33,78.57Z"/><path class="cls-3" d="M141.16,83.61a20.1,20.1,0,0,1-5-.69,6.68,6.68,0,0,1-2.75-1.31,3.38,3.38,0,0,1-1.26-2.8,4.45,4.45,0,0,1,2.91-3.31,6,6,0,0,1,.75-.25c1.05-.31,1.8-.59,1.83-1.38.41,1.19-.76,1.54-1.7,1.81-.24.07-.48.15-.71.24a4,4,0,0,0-2.62,2.93,2.92,2.92,0,0,0,1.1,2.41,6.06,6.06,0,0,0,2.56,1.21c2.6.69,6.32,1.21,9.24-.19a4.33,4.33,0,0,0,1.86-1.53c1.07-1.7-.25-3.19-1.52-4.3-.5-.41-1-.86-1-1.42a43,43,0,0,1,1.69-7,6.23,6.23,0,0,0-1-5.11,6.64,6.64,0,0,0-4.2-2.16,9.09,9.09,0,0,0-2.28-.63c-5.76-1-8.13-.23-9.06,2.87a8.23,8.23,0,0,0,.32,3.59c-.47,0-1.18-2.33-.76-3.72,1.15-3.82,4.52-4,9.58-3.19a9.09,9.09,0,0,1,2.28.63,6.92,6.92,0,0,1,4.48,2.32A6.61,6.61,0,0,1,147,67.87,44.4,44.4,0,0,0,145.27,75c0,.31.4.67.68.9,1.44,1.26,3,3,1.76,5a4.85,4.85,0,0,1-2,1.7A10.52,10.52,0,0,1,141.16,83.61Z"/><path class="cls-3" d="M82.63,80.19c-.16-.39,9.26-9.8,9.26-9.8.32.32-9.09,9.73-9.09,9.73A.23.23,0,0,1,82.63,80.19Z"/><path class="cls-3" d="M80,80.19c-.16-.07-3.34-3.25-3.34-3.25.32-.32,3.5,2.86,3.5,2.86C80.09,80.17,80,80.19,80,80.19Z"/><path class="cls-3" d="M65.56,85.88c-.16-.39,8.75-9.3,8.75-9.3.32.32-8.59,9.23-8.59,9.23A.24.24,0,0,1,65.56,85.88Z"/><path class="cls-3" d="M62.92,86c-.16-.07-7.07-7-7.07-7,.32-.32,7.23,6.58,7.23,6.58C63,86,63,86,62.92,86Z"/><path class="cls-3" d="M75.65,77.43a2,2,0,1,1,2-2v0A2,2,0,0,1,75.65,77.43Zm0-3.46a1.51,1.51,0,1,0,1.5,1.52h0A1.52,1.52,0,0,0,75.65,74Z"/><path class="cls-3" d="M81.39,83.27a2,2,0,1,1,2-2A2,2,0,0,1,81.39,83.27Zm0-3.46a1.5,1.5,0,1,0,1.5,1.5,1.52,1.52,0,0,0-1.47-1.55h0Z"/><path class="cls-3" d="M64.21,89a2,2,0,1,1,2-2A2,2,0,0,1,64.21,89Zm0-3.46a1.5,1.5,0,1,0,1.5,1.5A1.5,1.5,0,0,0,64.21,85.55Z"/><path class="cls-3" d="M54.79,79.49a2,2,0,1,1,2-2v.05A2,2,0,0,1,54.79,79.49Zm0-3.46a1.51,1.51,0,1,0,1.5,1.52h0A1.52,1.52,0,0,0,54.79,76Z"/><path class="cls-3" d="M197.29,118.1H176.7c-.22-.15-3-8.41-3-8.41.43-.15,3.21,8,3.21,8H197L186.79,88.08H166.68l3.54,10.32c-.43.15-4.08-10.47-4.08-10.47.22-.31,20.81-.31,20.81-.31.21.16,10.51,30.18,10.51,30.18C197.43,118.06,197.36,118.1,197.29,118.1Z"/><path class="cls-3" d="M198.61,116.86h-1.75c0-.46,1.43-.46,1.43-.46L188.15,86.84H168l.24.69c-.44.15-.77-.84-.77-.84.21-.3,20.8-.3,20.8-.3.22.15,10.51,30.17,10.51,30.17C198.79,116.82,198.68,116.86,198.61,116.86Z"/><path class="cls-3" d="M188.57,67.82c-.23-.34-.21-2.93,3.79-4.12,3.73-1.1,4.72-2.78,4.73-2.8.43.15.8,5.11,2.94,6.07-2.13-.46-2.74-4-2.91-5.37a9.93,9.93,0,0,1-4.63,2.54c-3.65,1.08-3.69,3.35-3.69,3.45Z"/><path class="cls-3" d="M202,75.72c1.36-.7,4.46-1.84,5.27-3.34a1.35,1.35,0,0,0,.08-1.25c-.06-.14-.14-.28-.21-.42a4.53,4.53,0,0,1-.27-.54,4.17,4.17,0,0,1,.07-2.52,8.4,8.4,0,0,0,.19-1,8.57,8.57,0,0,0-.55-4.07,6.92,6.92,0,0,0-5-4.28,8.64,8.64,0,0,0-2.38-.18c-.94.16-1.06.17-1.17,0a5.52,5.52,0,0,0-5.5-1.18,5.21,5.21,0,0,0-2.86,2.21,9.56,9.56,0,0,0-.53,1c-.18.38-.37.76-.59,1.13a7.58,7.58,0,0,1-2.2,2.17l-.66.5a3,3,0,0,0-.85,1.21,7.33,7.33,0,0,0-.4,3.88c.52,3.66,3.21,6.17,6.57,6.17-3.48.58-6.45-2.13-7-6.11a7.82,7.82,0,0,1,.43-4.12,3.38,3.38,0,0,1,1-1.39l.67-.51a7.21,7.21,0,0,0,2.08-2c.21-.35.39-.72.57-1.09a8.46,8.46,0,0,1,.54-1,5.69,5.69,0,0,1,3.12-2.41,6,6,0,0,1,5.91,1.24,4.49,4.49,0,0,0,.61-.09,9.14,9.14,0,0,1,2.76.14,7.39,7.39,0,0,1,5.33,4.56,9.1,9.1,0,0,1,.59,4.29,10.28,10.28,0,0,1-.21,1.08,3.84,3.84,0,0,0-.08,2.25,3.58,3.58,0,0,0,.24.48c.08.15.16.3.23.46a1.85,1.85,0,0,1-.1,1.65c-1,1.78-4.47,2.91-5.63,3.11Z"/><path class="cls-3" d="M189.45,67.36c-.11-.43.55-.94,1.38-1.1a11.44,11.44,0,0,1-1.24,1A.21.21,0,0,1,189.45,67.36Z"/><path class="cls-3" d="M193.89,66c-.1-.44,1.21-1.56,3.19-.74a3.9,3.9,0,0,0-3,.69A.27.27,0,0,1,193.89,66Z"/><path class="cls-3" d="M198.34,111.44a.73.73,0,0,1-.61-.24c-.47-.51-.08-1.56,1.16-3.11-.85,1.78-1,2.58-.83,2.81s.73.13,1.89-.49a22.87,22.87,0,0,0,6.72-6.09c.73-1.09.82-1.67.67-1.83s-.76-.12-1.66.37c.6-.84,1.51-1.22,2-.68s.16,1.22-.63,2.39a23.3,23.3,0,0,1-6.88,6.24A4.3,4.3,0,0,1,198.34,111.44Z"/><path class="cls-3" d="M193,72.62a1.6,1.6,0,0,1-1.31-.51.81.81,0,0,1-.07-.88,21.8,21.8,0,0,0,.51-3.94c.43.37.25,3.37-.1,4.13a.4.4,0,0,0,0,.42,1.51,1.51,0,0,0,1.31.3C193.23,72.61,193.09,72.62,193,72.62Z"/><path class="cls-3" d="M171,90.27a1.82,1.82,0,0,1-1.25-.62,4.69,4.69,0,0,1-1.1-2c-.49-1.73-.1-3.31.9-3.6s2,.71,2.57,2.26c-.89-1.15-1.77-2-2.44-1.82s-1,1.6-.59,3a4.22,4.22,0,0,0,1,1.8,1.23,1.23,0,0,0,1.13.46C171.23,90.27,171.12,90.27,171,90.27Z"/><path class="cls-3" d="M177.32,90.27a1.82,1.82,0,0,1-1.25-.62,4.86,4.86,0,0,1-1.1-2c-.49-1.73-.1-3.31.9-3.6s2,.71,2.57,2.26c-.88-1.15-1.77-2-2.44-1.82s-1,1.6-.59,3a4.22,4.22,0,0,0,1,1.8,1.21,1.21,0,0,0,1.12.46C177.54,90.27,177.43,90.27,177.32,90.27Z"/><path class="cls-3" d="M183.68,90.27a1.8,1.8,0,0,1-1.25-.62,5.06,5.06,0,0,1-1.22-4.26,1.63,1.63,0,0,1,1-1.33c.94-.26,2,.71,2.57,2.26-.89-1.15-1.77-2-2.44-1.82a1.19,1.19,0,0,0-.71,1,4.58,4.58,0,0,0,1.12,3.8,1.23,1.23,0,0,0,1.13.46C183.9,90.27,183.79,90.27,183.68,90.27Z"/><path class="cls-3" d="M112.32,143.74l-11.24-1.07c-.07-.44,8.94-4.43,8.94-4.43l3.22.28c0,.45-3.09.16-3.09.16L102,142.27l10.28,1,4.48-2.61c.23.39-4.31,3-4.31,3A.32.32,0,0,1,112.32,143.74Z"/><path class="cls-3" d="M118.49,142.05c-.11,0-7.27-4.21-7.27-4.21.09-.42,9.46-1.32,9.46-1.32l9.12,4c-.07.43-11.28,1.51-11.28,1.51Zm-6.43-4.25,6.48,3.78,10.28-1L120.66,137Z"/><path class="cls-3" d="M184.58,93H171.49c0-.46,13.09-.46,13.09-.46C184.79,92.91,184.71,93,184.58,93Z"/><path class="cls-3" d="M185.79,96.5H172.7c0-.45,13.09-.45,13.09-.45C186,96.4,185.89,96.5,185.79,96.5Z"/><path class="cls-3" d="M188,103H177c0-.46,11-.46,11-.46C188.25,102.93,188.15,103,188,103Z"/><path class="cls-3" d="M187,99.93H176.69c0-.46,10.28-.46,10.28-.46C187.2,99.83,187.1,99.93,187,99.93Z"/><path class="cls-3" d="M189.18,106.45h-11.6c0-.45,11.6-.45,11.6-.45C189.4,106.35,189.3,106.45,189.18,106.45Z"/><path class="cls-3" d="M190.33,109.88H177.24c0-.46,13.09-.46,13.09-.46C190.56,109.78,190.46,109.88,190.33,109.88Z"/><path class="cls-3" d="M165.15,77.71h-10.7c-.23-.23-.23-10.93-.23-10.93.23-.23,10.93-.23,10.93-.23.23.23.23,10.93.23,10.93A.23.23,0,0,1,165.15,77.71Zm-10.47-.46h10.25V67H154.68Z"/><path class="cls-3" d="M120.18,62.05h-10.7c-.23-.23-.23-10.93-.23-10.93.23-.23,10.93-.23,10.93-.23.23.23.23,10.93.23,10.93A.23.23,0,0,1,120.18,62.05Zm-10.47-.45H120V51.35H109.71Z"/><path class="cls-3" d="M114.89,53.84a1,1,0,1,1,1-1A1,1,0,0,1,114.89,53.84Zm0-1.61a.58.58,0,1,0,.58.58.59.59,0,0,0-.58-.54Z"/><path class="cls-3" d="M118.17,56.06H117c0-.45,1.21-.45,1.21-.45C118.4,56,118.3,56.06,118.17,56.06Z"/><path class="cls-3" d="M114.43,56.06h-2.82c0-.45,2.82-.45,2.82-.45C114.66,56,114.56,56.06,114.43,56.06Z"/><path class="cls-3" d="M118.17,58.27h-6.56c0-.46,6.56-.46,6.56-.46C118.4,58.18,118.3,58.27,118.17,58.27Z"/><path class="cls-3" d="M159.86,69.5a1,1,0,1,1,1-1A1,1,0,0,1,159.86,69.5Zm0-1.61a.58.58,0,1,0,.58.58.58.58,0,0,0-.58-.58Z"/><path class="cls-3" d="M163.14,71.72h-6.56c0-.45,6.56-.45,6.56-.45C163.37,71.62,163.27,71.72,163.14,71.72Z"/><path class="cls-3" d="M159.72,74h-3.14c0-.46,3.14-.46,3.14-.46C159.94,73.84,159.84,74,159.72,74Z"/><path class="cls-3" d="M78.33,104H73.25c0-.45,5.08-.45,5.08-.45C78.56,103.86,78.46,104,78.33,104Z"/><path class="cls-3" d="M70.86,104H51.72c0-.45,19.14-.45,19.14-.45C71.09,103.86,71,104,70.86,104Z"/><path class="cls-3" d="M72.25,108H51.72c0-.46,20.53-.46,20.53-.46C72.48,107.92,72.38,108,72.25,108Z"/><path class="cls-3" d="M78.33,112.07H66.18c0-.45,12.15-.45,12.15-.45C78.56,112,78.46,112.07,78.33,112.07Z"/><path class="cls-3" d="M57.14,112.07H51.72c0-.45,5.42-.45,5.42-.45C57.37,112,57.27,112.07,57.14,112.07Z"/><path class="cls-3" d="M98.6,104H91.79c0-.45,6.83-.45,6.83-.45C98.79,103.86,98.73,104,98.6,104Z"/><path class="cls-3" d="M103.12,108H91.79c0-.46,11.35-.46,11.35-.46C103.34,107.92,103.24,108,103.12,108Z"/><path class="cls-3" d="M104.61,112.07H91.79c0-.45,12.84-.45,12.84-.45C104.84,112,104.79,112.07,104.61,112.07Z"/><path class="cls-3" d="M154.79,123.47c2.59-.45,4.64-2.07,5.1-4.48C159.87,121.71,157.64,123.47,154.79,123.47Z"/><path class="cls-3" d="M160.29,102.82c-.23-.23-.23-23.06-.23-23.06.46,0,.46,22.83.46,22.83A.23.23,0,0,1,160.29,102.82Z"/><path class="cls-3" d="M160.29,64.53c-.23-.23-.23-16.84-.23-16.84a5.13,5.13,0,0,0-5-5.24H87.85c0-.46,67.21-.46,67.21-.46a5.59,5.59,0,0,1,5.46,5.7V64.27a.23.23,0,0,1-.2.26Z"/><path class="cls-3" d="M40,90.11c-.23-.23-.23-42.42-.23-42.42A5.59,5.59,0,0,1,45.24,42h4.22c0,.46-4.22.46-4.22.46a5.14,5.14,0,0,0-5,5.24V89.88a.23.23,0,0,1-.23.23Z"/><path class="cls-3" d="M123.63,123.47H45.24a5.59,5.59,0,0,1-5.47-5.69v-9.12c.46,0,.46,9.12.46,9.12a5.14,5.14,0,0,0,5,5.24h78.39C123.86,123.37,123.79,123.47,123.63,123.47Z"/><path class="cls-3" d="M185,59.41h-6.36c0-.46,6.13-.46,6.13-.46V15.27H141.07V42c-.45,0-.45-26.94-.45-26.94.22-.23,44.41-.23,44.41-.23.22.23.22,44.41.22,44.41A.22.22,0,0,1,185,59.41Z"/><path class="cls-3" d="M178.67,59.41h-18c0-.46,18-.46,18-.46C178.9,59.27,178.79,59.41,178.67,59.41Z"/><path class="cls-3" d="M153.24,42.17c-.23-.23-.23-17.68-.23-17.68h-7.8V41.94c-.46,0-.46-17.68-.46-17.68.23-.23,8.49-.23,8.49-.23.23.23.23,17.91.23,17.91A.23.23,0,0,1,153.24,42.17Z"/><path class="cls-3" d="M167.07,50.15h-6.45c0-.45,6.22-.45,6.22-.45V34.18H159V44c-.45,0-.45-10-.45-10,.22-.23,8.49-.23,8.49-.23.23.23.23,16.21.23,16.21A.24.24,0,0,1,167.07,50.15Z"/><path class="cls-3" d="M180.89,50.15h-8.26c-.23-.22-.23-10.4-.23-10.4.23-.22,8.49-.22,8.49-.22.23.22.23,10.4.23,10.4a.22.22,0,0,1-.22.22Zm-8-.45h7.81V40h-7.81Z"/><path class="cls-3" d="M32.18,63.52c-.18-.37.13-.85.68-1a1.42,1.42,0,0,1,1.11.26A4.31,4.31,0,0,1,33,63a1,1,0,0,0-.58.41A.24.24,0,0,1,32.18,63.52Z"/><path class="cls-3" d="M41,105.66c-.19-.36,8.34-12.79,8.34-12.79a1.38,1.38,0,0,1,1.3-.23,1.7,1.7,0,0,1,.59.41,1.34,1.34,0,0,1,.22,1.67,1.68,1.68,0,0,1,.69,2c-.58,2-7.82,8.44-11.1,9Zm8.69-12.49-8.17,11.9c3.45-1.08,9.73-7,10.19-8.51A1.28,1.28,0,0,0,51,95c.26-.76.24-1.23-.13-1.63a1.31,1.31,0,0,0-.43-.31A.93.93,0,0,0,49.67,93.17Z"/><path class="cls-3" d="M34.66,98.37c.68-1.5,2.69-5.31,3.13-6.33.08-.17.14-.36.21-.55.29-.85.66-1.89,2-1.69a1,1,0,0,1,.72.5,4,4,0,0,1-.11,3.11c-.63,1.77-.48,2.24,0,2.48.71.34,2.51-1,3.1-1.49a32,32,0,0,0,2.48-2.32l.55-.54c.7-.68,1.75-1.69,2.91-.62a1.44,1.44,0,0,1,.51,1c0,.74-.7,1.39-1.21,1.86a41.62,41.62,0,0,1-4.27,3.57l-10.06,1Zm5-8.14c-.71,0-1,.54-1.25,1.41-.07.2-.14.4-.22.58a57.13,57.13,0,0,1-3.08,5.65L44.52,97a44,44,0,0,0,3.87-3.22c.74-.69,1.36-1.26,1.36-1.8a1,1,0,0,0-.37-.7c-.71-.66-1.33-.31-2.28.6l-.54.54c-.74.73-1.84,1.84-2.53,2.37-1.3,1-2.73,1.93-3.58,1.53s-.84-1.46-.27-3a3.81,3.81,0,0,0,.15-2.72.52.52,0,0,0-.4-.29l-.25,0Z"/><path class="cls-3" d="M46.16,99.59c-.14-.41,1-1.36,2.36-2.45a21.72,21.72,0,0,0,2.4-2.49c.5,0,.55.18.49.3-.58.52-1.66,1.78-2.6,2.55l-2.5,2A.29.29,0,0,1,46.16,99.59Z"/><path class="cls-3" d="M200.42,90.9a3.75,3.75,0,0,1-3.84-3.25c-.67.67-2.27,2.1-3.66,2.1a1.71,1.71,0,0,1-1.4-.71c-1.68-2.18,3-8.4,3.19-8.66-.94,2-4.05,6.8-2.83,8.38a1.25,1.25,0,0,0,1,.53c1.62,0,3.68-2.27,3.7-2.29.41.28.62,3.45,3.85,3.45,2.69,0,3.79-7.35,4-10.18C204.79,80.74,204.09,90.9,200.42,90.9Z"/><path class="cls-3" d="M137.88,24.4a20.28,20.28,0,0,1-.83-2.72,5.54,5.54,0,0,1,1,2.46C137.9,24.4,137.89,24.4,137.88,24.4Zm-1.54-5c-.56-.93-1-1.71-1.39-2.45a4.4,4.4,0,0,1,1.6,2.13c-.15.3-.18.31-.21.31Zm-2.63-4.53c-.7-.79-1.26-1.46-1.84-2.09a4.37,4.37,0,0,1,2,1.73c-.08.34-.08.35-.16.35ZM130.16,11c-.8-.63-1.49-1.16-2.19-1.66a4.45,4.45,0,0,1,2.34,1.26c0,.36-.09.39-.15.39Zm-4.28-3c-.84-.44-1.62-.83-2.43-1.19a4.6,4.6,0,0,1,2.54.77c.05.36,0,.4-.11.4Zm-4.77-2.14c-.87-.29-1.71-.55-2.56-.78a4.61,4.61,0,0,1,2.64.34c.1.36,0,.42-.08.42Zm-5-1.35c-.87-.17-1.73-.31-2.62-.42a4.81,4.81,0,0,1,2.66,0c.16.32.06.4,0,.4Z"/><path class="cls-3" d="M75.47,24.49c-.21-.34.07-1.28.74-2.78a23.17,23.17,0,0,1-.52,2.61A.23.23,0,0,1,75.47,24.49Zm2.12-4.81a7,7,0,0,1,1.16-2.61,6.6,6.6,0,0,1-1,2.49A.22.22,0,0,1,77.59,19.68Zm2.87-4.39A6.22,6.22,0,0,1,82,12.9a6.42,6.42,0,0,1-1.34,2.3.26.26,0,0,1-.18.07ZM84,11.42a5.87,5.87,0,0,1,1.87-2.09,6.46,6.46,0,0,1-1.71,2,.22.22,0,0,1-.16.09Zm4.16-3.18a5.33,5.33,0,0,1,2.18-1.72,6.71,6.71,0,0,1-2.06,1.69.34.34,0,0,1-.12.06Zm4.67-2.36a5.06,5.06,0,0,1,2.41-1.29A6.57,6.57,0,0,1,92.9,5.87Zm5-1.47a4.78,4.78,0,0,1,2.56-.86,6.46,6.46,0,0,1-2.52.86Zm5.2-.63a1.39,1.39,0,0,1,1.18-.51,1.38,1.38,0,0,1-1.17.51Z"/><path class="cls-3" d="M218.56,78.6a10,10,0,0,1,1.26-2.54,4.77,4.77,0,0,1-1.07,2.44A.26.26,0,0,1,218.56,78.6Zm2.75-4.47a11.5,11.5,0,0,1,.93-2.68,4.82,4.82,0,0,1-.73,2.56A.24.24,0,0,1,221.31,74.13Zm2.1-4.8a13.27,13.27,0,0,1,.56-2.79,4.57,4.57,0,0,1-.34,2.63A.22.22,0,0,1,223.41,69.33Zm1.38-5.06a19.22,19.22,0,0,1,.09-2.84,4.36,4.36,0,0,1,.14,2.65A.24.24,0,0,1,224.79,64.27Zm.38-5.22a26.33,26.33,0,0,1-.45-2.8,4.48,4.48,0,0,1,.68,2.57Zm-.73-5.18c-.43-1-.69-1.84-1-2.65a4.56,4.56,0,0,1,1.22,2.36c-.23.28-.25.28-.27.28ZM222.61,49c-.58-.89-1-1.65-1.48-2.39a4.52,4.52,0,0,1,1.68,2.06c-.18.31-.22.32-.25.32Zm-2.78-4.43c-.71-.78-1.28-1.44-1.88-2A4.4,4.4,0,0,1,220,44.22c-.14.29-.22.31-.22.31Zm-3.66-3.74c-.81-.59-1.52-1.09-2.26-1.55a4.35,4.35,0,0,1,2.4,1.14c-.06.37-.12.4-.19.4ZM211.74,38c-.87-.39-1.68-.72-2.5-1a4.52,4.52,0,0,1,2.59.58c0,.36,0,.41-.14.41Zm-23.12-1.4c0-.46.92-.74,2.52-1a18,18,0,0,1-2.45,1Zm18.17-.36c-.87-.21-1.72-.38-2.6-.52a4.72,4.72,0,0,1,2.66.07C207,36.2,206.85,36.27,206.79,36.27Zm-13-.62a4.82,4.82,0,0,1,2.59-.69,6.27,6.27,0,0,1-2.57.69Zm7.85-.2c-.88-.06-1.75-.1-2.62-.11a4.68,4.68,0,0,1,2.64-.34c.13.36,0,.45-.08.45Z"/><path class="cls-3" d="M108.69,7.46a3.73,3.73,0,1,1,3.72-3.74v0A3.74,3.74,0,0,1,108.69,7.46Zm0-7A3.27,3.27,0,1,0,112,3.73,3.26,3.26,0,0,0,108.69.46Z"/></g></g></svg>